/* XPM */
static char *result[] = {
/* columns rows colors chars-per-pixel */
"64 64 232 2 ",
"   c #010101",
".  c #0A0003",
"X  c #140304",
"o  c #1A0A0B",
"O  c #1B0E11",
"+  c #130E18",
"@  c #1B1315",
"#  c #1D1C1C",
"$  c #151718",
"%  c #270A0C",
"&  c #370B0C",
"*  c #250E10",
"=  c #231215",
"-  c #241D1E",
";  c #2B1819",
":  c #361719",
">  c #32120B",
",  c #382317",
"<  c #2C2119",
"1  c #1D1C21",
"2  c #110E20",
"3  c #231C24",
"4  c #281E26",
"5  c #371E20",
"6  c #1F2121",
"7  c #242223",
"8  c #2B2323",
"9  c #2C2B2B",
"0  c #2C242C",
"q  c #322425",
"w  c #32262A",
"e  c #34292A",
"r  c #3C2B2C",
"t  c #3B2625",
"y  c #3A2C33",
"u  c #362C35",
"i  c #3D3336",
"p  c #3B3939",
"a  c #2E3534",
"s  c #44191D",
"d  c #48191B",
"f  c #581515",
"g  c #450E0E",
"h  c #4C2E19",
"j  c #41271A",
"k  c #4F3019",
"l  c #442325",
"z  c #4B2526",
"x  c #4D272A",
"c  c #422C2D",
"v  c #4D2B2D",
"b  c #552525",
"n  c #532728",
"m  c #552A2C",
"M  c #5C2B2D",
"N  c #5B2627",
"B  c #47352C",
"V  c #563B2C",
"C  c #4B2E31",
"Z  c #542E30",
"A  c #5A2E31",
"S  c #4B3333",
"D  c #42343B",
"F  c #433C3C",
"G  c #4D3B3D",
"H  c #453534",
"J  c #543335",
"K  c #5C3235",
"L  c #5B3C33",
"P  c #5C3538",
"I  c #533A35",
"U  c #622C2E",
"Y  c #643235",
"T  c #6A3234",
"R  c #65363A",
"E  c #6A373B",
"W  c #65393B",
"Q  c #6C393E",
"!  c #623D37",
"~  c #713639",
"^  c #733A3D",
"/  c #7C3B3E",
"(  c #703537",
")  c #6E2829",
"_  c #672D1F",
"`  c #4B443C",
"'  c #574437",
"]  c #5B412C",
"[  c #69452C",
"{  c #6C482E",
"}  c #784B2B",
"|  c #634334",
" . c #6B4336",
".. c #6C4939",
"X. c #744B34",
"o. c #764A37",
"O. c #7B5338",
"+. c #71502E",
"@. c #7A653F",
"#. c #76623C",
"$. c #553D40",
"%. c #6F3B40",
"&. c #733C41",
"*. c #7A3E41",
"=. c #494646",
"-. c #554342",
";. c #5D4B46",
":. c #554B45",
">. c #59514C",
",. c #545148",
"<. c #5B5A5A",
"1. c #565555",
"2. c #504E51",
"3. c #644443",
"4. c #6B4A48",
"5. c #7C4245",
"6. c #744E43",
"7. c #744749",
"8. c #6E5A4C",
"9. c #675349",
"0. c #7C5443",
"q. c #73564C",
"w. c #615F54",
"e. c #625D59",
"r. c #686457",
"t. c #726A5C",
"y. c #7B6B4C",
"u. c #686869",
"i. c #736D6A",
"p. c #7A7565",
"a. c #747165",
"s. c #747373",
"d. c #7C7A79",
"f. c #6E7171",
"g. c #635E61",
"h. c #843E3F",
"j. c #8D3A3A",
"k. c #993C3C",
"l. c #A23E3E",
"z. c #8A5A3A",
"x. c #915E3A",
"c. c #965E36",
"v. c #894E23",
"b. c #886C3F",
"n. c #88693F",
"m. c #95633F",
"M. c #99653F",
"N. c #843E40",
"B. c #8D3F40",
"V. c #903F40",
"C. c #834245",
"Z. c #8C4344",
"A. c #844549",
"S. c #8D4A4C",
"D. c #88474A",
"F. c #934243",
"G. c #9C4342",
"H. c #954A4C",
"J. c #9A4B4C",
"K. c #944748",
"L. c #845944",
"P. c #8B5C41",
"I. c #835845",
"U. c #9C4F50",
"Y. c #9C5152",
"T. c #925154",
"R. c #905D41",
"E. c #A24544",
"W. c #A44B4B",
"Q. c #AB4D4D",
"!. c #A84646",
"~. c #A34F50",
"^. c #A35152",
"/. c #A95556",
"(. c #B65C5B",
"). c #AF504F",
"_. c #896943",
"`. c #946340",
"'. c #996641",
"]. c #9E6941",
"[. c #966348",
"{. c #907544",
"}. c #A46C43",
"|. c #B37548",
" X c #B17346",
".X c #AB7047",
"XX c #837B6A",
"oX c #817E78",
"OX c #BB6161",
"+X c #B15E60",
"@X c #C06060",
"#X c #AC8752",
"$X c #B59059",
"%X c #8D8473",
"&X c #9B927E",
"*X c #978E7B",
"=X c #C39B5F",
"-X c #787980",
";X c #8C8B8C",
":X c #868586",
">X c #958D85",
",X c #9F9885",
"<X c #9B9481",
"1X c #939394",
"2X c #94999C",
"3X c #97989B",
"4X c #8B8F92",
"5X c #A29984",
"6X c #A59B89",
"7X c #AEA38E",
"8X c #AEA495",
"9X c #ABA49A",
"0X c #B3A996",
"qX c #BFB49F",
"wX c #9C9FA3",
"eX c #BEB5A5",
"rX c #B5B5B5",
"tX c #9FA2A6",
"yX c #C1B69F",
"uX c #C1B6A0",
"iX c #C3B8A3",
"pX c #C9BEA7",
"aX c #C3BBAC",
"sX c #CABFA8",
"dX c #CCC2AC",
"fX c #CFC6B1",
"gX c #D7D7D7",
"hX c #C2C2C2",
"jX c #FFFFFF",
"kX c #F1F1F1",
"lX c #E9E9E9",
"zX c None",
/* pixels */
"zXzXzXzXzXzXzXzXzXzXzXzXzXzXzXzXzXzXzXzXzXzXzXzXzXi / E $ zXzXzXzXzXzXzXzXzXzXzXzXzXzXzXzXzXzXzXzXzXzXzXzXzXzXzXzXzXzXzXzXzXzXzX",
"zXzXzXzXzXzXzXzXzXzXzXzXzXzXzXzXzXzXzXzXzXzXzX3Xg B.G.E r & u.zXzXzXzXzXzXzXzXzXzXzXzXzXzXzXzXzXzXzXzXzXzXzXzXzXzXzXzXzXzXzXzXzX",
"zXzXzXzXzXzXzXzXzXzXzXzXzXzXzXzXzXzXzXzXzXzXF ) !./ F.W 9 &.M $ zXzXzXzXzXzXzXzXzXzXzXzXzXzXzXzXzXzXzXzXzXzXzXzXzXzXzXzXzXzXzXzX",
"zXzXzXzXzXzXzXzXzXzXzXzXzXzXzXzXzXzXzXzXzX* k.E.W.C.F.R q &.&.- % zXzXzXzXzXzXzXzXzXzXzXzXzXzXzXzXzXzXzXzXzXzXzXzXzXzXzXzXzXzXzX",
"zXzXzXzXzXzXzXzXzXzXzXzXzXzXzXzXzXzXzXu.f V.N.Q.H.h.F.R 7 m *.7 &.d =.zXzXzXzXzXzXzXzXzXzXzXzXzXzXzXzXzXzXzXzXzXzXzXzXzXzXzXzXzX",
"zXzXzXzXzXzXzXzXzXzXzXzXzXzXzXzXzXzXq j.!.N.D.V.E./ F.E e ^ m 8 &.Q Y * zXzXzXzXzXzXzXzXzXzXzXzXzXzXzXzXzXzXzXzXzXzXzXzXzXzXzXzX",
"zXzXzXzXzXzXzXzXzXzXzXzXzXzXzXzXzX& !.G.W.A.N.E.G.Z.F.R e ^ &.6 M &.Q K . f.zXzXzXzXzXzXzXzXzXzXzXzXzXzXzXzXzXzXzXzXzXzXzXzXzXzX",
"zXzXzXzXzXzXzXzXzXzXzXzXzXzXzXF ) *.E.^.F.N.N.E.^.^ F.W 7 U *.7 &.z ~ K c U 8 zXzXzXzXzXzXzXzXzXzXzXzXzXzXzXzXzXzXzXzXzXzXzXzXzX",
"zXzXzXzXzXzXzXzXzXzXzXzXzXzX> l.G.5.U.z.l.N.S.J.G./ F.W e R m 8 &.&.A l c ^ E % zXzXzXzXzXzXzXzXzXzXzXzXzXzXzXzXzXzXzXzXzXzXzXzX",
"zXzXzXzXzXzXzXzXzXzXzXzXs.f !.G.W.Q G.G.E.B.*.E.G.h.F.E q ^ &.6 ( Q Q P q ^ Q &.% p zXzXzXzXzXzXzXzXzXzXzXzXzXzXzXzXzXzXzXzXzXzX",
"zXzXzXzXzXzXzXzXzXzXzXt M !.G.^.Z.^ G.E.U.N.N.G.W.5.F.R 7 / &.7 A M &.K c m T &.r A * zXzXzXzXzXzXzXzXzXzXzXzXzXzXzXzXzXzXzXzXzX",
"zXzXzXzXzXzXzXzXzXzX& !.Q W.U.F.G.^ ^.K.V.B.B.^.K.N.F.R 9 n T 7 &.R n K r &.K M c J *.& s.zXzXzXzXzXzXzXzXzXzXzXzXzXzXzXzXzXzXzX",
"zXzXzXzXzXzXzXzX=.) !.E.Q K.G.G.G.&.F.G.G.h.C.G.E.h.F.R 8 &.K 7 *.Q &.c c ^ Q Q 8 R E q =.a.a.t.e.p zXzXzXzXzXzXzXzXzXzXzXzXzXzX",
"zXzXzXzXzXzXzX* k.G.E.W.Q l.G.W.H.^ E.G.^.C.h.G.E.A.F.R e ^ &.7 N E Q P q N &.&.r z 4 d.u 7 7 7 8 1.p zXzXzXzXzXzXzXzXzXzXzXzXzX",
"zXzXzXzXzXf.f B.k.W.J.E.Q E.^.K.F.^ !.J.G.h.h.W.H./ F.W 7 M *.7 *.m A P r &.x ~ r R G p.$ i.u.i.2.  <.zXzXzXzXzXzXzXzXzXzXzXzXzX",
"zXzXzXzX; j.!.*.S.F.V.E.Q U.V.G.F.5.H.G.E.h.A.K.E.h.F.R q ^ m 7 &.%.R l c %.Q A 8 R c XX    =.-   9 2.zXzXzXzXzXzXzXzXzXzXzXzXzX",
"zXzXzX& !.E.W.5.V.G.V./.Q E.G.E.J.^ E.G.W.A.h.E.G.C.F.R q ^ Q 6 U &.%.P q T %.&.r x t :Xd.d.s.s.d.;Xp s.zXzXzXzXzXzXzXzXzXzXzXzX",
"zX=.) N.k.~.K./ B.E.~.G.^ V.W.H.F.^ G.^.K.h.h.E.^.*.F.E 8 T 5.7 Q z ^ J c K m &.r W ; s.>X*X>X>X5Xa X U 8 zXzXzXzXzXzXzXzXzXzXzX",
": l.F.C.Y.k.E./ J.H.V.E.~ Q.K.E.G.^ ^.F.E.C.Z.J.F.h.F.W e K M 7 &.%.m x c ^ Q n t P K   w 0 9 9 a   * &.^ X zXzXzXzXzXzXzXzXzXzX",
"b E.K./ G.G.E.C.B.!.V.Q.%.K.G.V.W.Q G.G.G.Z.*.E.G.h.F.R 8 &.^ 6 ^ Q ^ Z q *.Q &.e A Y   $ $   @ $ # X *.Q s zXzXzXzXzXzXzXzXzXzX",
"N /.C./ G.W.J.^ V.G.W.H.E G.E.Q.B.&.G.W.J./ Z.z.W.5.F.E 8 *.&.7 A U &.J c n E &.r J s a :Xr.<.1Xi.e.o m T s zXzXzXzXzXzXzXzXzXzX",
"n G.F./ ~.K.E./ F.~.F.E.%.!.U.V.V.&.Q.H.E.h.B.Q.K.h.F.R 8 n ^ 7 &.Y n R r &.m U c P *.: 9 :X:Xi.d.<.o *.K % zXzXzXzXzXzXzXzXzXzX",
"b E.k.5.F.G.G./ S.V.V.E.E H.V.E.V.*.V.E.E.N.N.V.G.h.F.W e &.A 7 &.Q %.t v Q Q R 8 W %.%.M # u.s.s.<.o &.&.s zXzXzXzXzXzXzXzXzXzX",
"b ).S./ E.G.~.5.V.E.E.^.Q E.K.W.U.*.!.V.~.N.N.!.E.C.F.W e ^ ^ 6 m ^ %.P 8 U &.^ r l Y %.&.8 * p :Xe.. U &.d zXzXzXzXzXzXzXzXzXzX",
"m J.z.N.!.U.V.N.B.W.H.V.Q l.~.K.V.*.E.^.F.B.N.W.J./ B.W 7 M *.7 *.x T P r Q z ^ r R K n 5.7 5.z 6 e.o &.n d zXzXzXzXzXzXzXzXzXzX",
"b !.B.N.W.V.E.*.H.K.E.E.E /.F.G.V.*.~.V.G.N.D.K.E.h.K.Q e Q n 8 &.Q K l c &.%.M q P Q Q n 7 &.%.E O 4 &.%.> zXzXzXzXzXzXzXzXzXzX",
"b !.V.*.G.G.!.*.B.G.V.).%.V.G.G.U.~ E.V.E.D.N.E.G.N.~.G.8 Q &.1 T &.Q P q ~ Q %.r l ^ Q ^ 7 U Q Q Q 8 T %.s zXzXzXzXzXzXzXzXzXzX",
"M ~.B.*.G.~.H.*.V.E.^.G.%.E.E.~.V.&.E.Q.H.h.B.V.(.S.E Q r ^ &.7 R b ^ K c A A &.r R x T &.7 Q n ^ W w Y A d zXzXzXzXzXzXzXzXzXzX",
"x !.V.N.^.V.E.*.K.U.V.E.Q Q.H.V.K./ ^.F.E.N.Z.OX5.x - q l C E 7 &.%.n m c ^ R n r K ^ K U 7 ^ Q n A e ^ %.% zXzXzXzXzXzXzXzXzXzX",
"b !.H.*.V.K.E.N.N.G.G.E.&.K.G.G.E.~ G.E.V.Z.D.&.= r ..| I = P 8 *.Q %.C t *.E &.q K Q Q Q 6 ^ Q Q K < 5.%.s zXzXzXzXzXzXzXzXzXzX",
"b ).B.N.!.E.Y.&.V.V.Q.U.E G.G.~.S.^ E.V.@XS.A O 3.V <.u.B ..= Z c Q &.K r x ~ %.r C M ^ ^ 7 M Y ^ W w n ~ s zXzXzXzXzXzXzXzXzXzX",
"m V.V.*.Q.H.V.N.V./.F.E.E !.U.F.K.~ Q.(.&.5 4 ..H d.2X2X:XF ..r : J Z R r &.m T r K Q x ^ 7 &.K n Q w &.Z & zXzXzXzXzXzXzXzXzXzX",
"b W.j.5.K.G.E./ H.V.E.E.Q J.K.G.F.5.T.R O I L ,.;X3X1X1X3X1X<.V 3.@ K r c Q %.R q R Q %.A 7 *.%.%.z e &.%.s zXzXzXzXzXzXzXzXzXzX",
"b Q.S./ E.G.W.5.V.E.V.^.Q !.V.W.+XQ n @ 4.B u.;X;X>X1X1X1X1X3Xs.H ..< l J Y ^ Q r l T %.^ 7 N &.%.P 7 M &.s zXzXzXzXzXzXzXzXzXzX",
"M J.k.*.E.U.F./ V.!.U.G.Q l.)./.Q ; r X.i oXrXgXgXhX1X1X1X1X1X1X:X=.L S = J v *.r P A M *.7 &.x T Q e Q x d zXzXzXzXzXzXzXzXzXzX",
"b !.B.C.H.G.E./ H.K.V.E.E @XD.A O 3.X.p hXjXjXjXkXrX1X1X1X1X;XrXlXgX=.[ q.O A S q P %.W N 6 &.%.K z e &.&.> zXzXzXzXzXzXzXzXzXzX",
"b !.K./ E.G.E.5.B.E.V.).&.*.5 3 I.V 1.3XjXjXjXjXrX;X1X1X1X1X1XrXlXgX1Xu.V q.w : J Z *.Q &.7 T Q Q W < ~ %.s zXzXzXzXzXzXzXzXzXzX",
"M ^.N./ G.W.H./ Z.V.(.Y.E = G O.F -XtX3X3XtX3X3X2X2X3X3X2X2X2X2X4X1X2XwX:X$.o.3.O K c &.^ 7 R n ^ R e A Y d zXzXzXzXzXzXzXzXzXzX",
"n E.F./ /.F.E./ F.OX5.x @ q.+.#._.n.y.@.@.#.#.@.y.@.@.@.@.@.@.@.@.@.@.@.@.y.y.+.I.4 l C E 8 &.Q x Y 8 &.R & zXzXzXzXzXzXzXzXzXzX",
"N E.F.5.V.G.G.N.T.E ; r 9., n._.b.b.b.n.b.b.b.n.n.b.b.b.b.b.b.b.b.b.b.b.b.n.b.{.< 3.I = P 6 *.Q &.Z e &.Q s zXzXzXzXzXzXzXzXzXzX",
"b ).D./ G.G.OXA.P O ..}.P.q.z.L.6.0.O.z.3.0.0.4.0.0.6.0.0.I.6.7.6.0.6.6.o.6.0.4.L.L.].L.@ A H Q %.W 8 N &.d zXzXzXzXzXzXzXzXzXzX",
"m J.F./ Q.(.&.5 - 7.'.`.M.M.m.M.m.M.m.m.`.M.M.M.m.M.M.x.'.x.M.'.M.M.M.M.m.m.M.M.M.M.M.0.7.t : J K Q w &.Z & zXzXzXzXzXzXzXzXzXzX",
"b !.j.S.Y.R @ c 3.3.O.m.x.x.x.x.m.z.m.m.x.x.x.x.x.x.x.x.x.x.x.x.z.m.m.z.x.x.x.z.x.n.z.o.-.3.I o K c q &.&.: zXzXzXzXzXzXzXzXzXzX",
"b !./.Q x = F a.t.r.r.r.r.<.w.w.w.w.<.w.w.w.<.r.w.w.w.w.w.w.w.w.w.w.w.w.w.<.r.r.w.w.w.r.r.r.t.t.o l J R &.d zXzXzXzXzXzXzXzXzXzX",
"E /.Q ; e 4.` %XXXp.*X7X7XiXiXiXiXiXiXiXyXyXiXiXuXiXiXuXiXuXiXuXyXiXyXiXiXiXiXiXiXqX7X7X6X5XXXXXG H = K Z d zXzXzXzXzXzXzXzXzXzX",
"t Y O -.I.L.` %X*XqXiXiXyXeXqXqXqXqXqXqXqXqXqXqXqXqXeXyXyXqXyXqXqXqXqXqXqXqXqXqXqXeXuXyXiXiX6Xp.J 4.4.@ m o zXzXzXzXzXzXzXzXzXzX",
"5 p 4.P.M.M.' %XpXqXqXqXyXqXqXqXqXqXqXqXqXqXqXqXqXqXqXyXqXqXqXqXqXqXqXqXqXqXqXyXqXqXqXqXuXuX0Xa.] }.`.I.p : zXzXzXzXzXzXzXzXzXzX",
"zX3X..M.M.M.' %XpXqXqXqXqXqXqXqXqXqXqXqXqXqXyXyXyXqXyXeXuXuXqXyXqXyXqXqXqXqXqXqXqXqXqXqXyXuX0Xa.X.'.'...f.zXzXzXzXzXzXzXzXzXzXzX",
"zX4Xx.m.`.'.' %XpXqXeXqXqXqXqXqXqXqXqXqXqXqXyXuXyXiXyXyXuXyXuXyXqXyXqXqXqXqXqXqXuXuXyXeXqXyX0Xa.{ '.M.x.u.zXzXzXzXzXzXzXzXzXzXzX",
"zX4Xc.m.m.M.' %XpXpXpXdXpXsXpXpXyXqXqXqXuX6X>.y i i i i i u i =.&XyXqXqXqXqXpXsXsXiXsXsXdXyX0Xp.{ `.m.m.i.zXzXzXzXzXzXzXzXzXzXzX",
"zX;X} m.m.M.i p.yXe w w J 1 e 4 yXyXqXqXuX7X>.y ;.G -.-.G ;.D F 5XyXqXqXqXdXy w w J 1 w - qX&X,.O.`.m.X.1.zXzXzXzXzXzXzXzXzXzXzX",
"zXzX1.z.m.M.L p.iXu D D `.1 $.w yXeXyXqXuX7X>.y 8.-.9.8.-.8.G F 5XuXqXqXqXdXD D D '.1 G w qX&X,.R.`.M.V zXzXzXzXzXzXzXzXzXzXzXzX",
"zXzXe.x.x.'.[ p.iXu i u `.2 D w yXyXqXqXiX7X>.y 8.;.0 4 -.8.G F 5XiXyXqXyXsXi i u `.2 D w eX&X` M.M.M.' zXzXzXzXzXzXzXzXzXzXzXzX",
"zXzXi.c.`.'.[ a.iXi #X=X'.$X$XH eXuXqXqXuX7X>.c 8.-.| ..$.8.G F 5XiXqXqXyXdXD #X=X].$X$XB eX&X:.M.`.M.V zXzXzXzXzXzXzXzXzXzXzXzX",
"zXzXt.M.`.'.[ p.iXu r L L L c 4 uXqXyXqXuX8X>.y 9.-.;.9.$.9.G F 5XiXqXqXqXsXu y V L L H 7 iX&X,.M.m.M.' zXzXzXzXzXzXzXzXzXzXzXzX",
"zXzXe.x.`.'.[ a.0X,X,X,X,X,X,X,XqXqXqXqXyX7X>.u $X9.;.9.$.w.G p 5XuXqXqXyXiX5X5X,X,X,X5X&XyX*X` M.`.].c zXzXzXzXzXzXzXzXzXzXzXzX",
"zXzX:XV '.m.M.y 6XfXdXdXdXdXdXfXdXqXqXqXqX7X,.u #XL ;.9.G 8.G F 5XyXqXqXqXdXdXdXdXdXfXdXdXfX>.X.`.'.} a.zXzXzXzXzXzXzXzXzXzXzXzX",
"zXzXzXB '.'.q.q j h h h , h h , , >XdXdXdX0X,.i 9.' ;.9.$.8.G F 6XdXdXdXeX> , h h h , h , h , y ' ... zXzXzXzXzXzXzXzXzXzXzXzXzX",
"zXzXzXB } V { } [. X|.}.L.|..X[..XO.X...O.t.>.r 8.-.;.9.G 8.G F p.O.O.' O..X_. X X}.R.|.[.}.|..Xz.].v.zXzXzXzXzXzXzXzXzXzXzXzXzX",
"zXzXzXV }.I.'.'.0.M.`.`.0.`.`.0.m.m.`.P.x.< <.2.1.1.1.1.1.1.1.<.q [ ].z.M.m.0.m.m.m.0.M.L.P.`.`.0.`._ zXzXzXzXzXzXzXzXzXzXzXzXzX",
"zXzXzXr M.0.M.`.L.M.m.M.0.'.m.L.`.M.`.`.' 0 9X9X8X8X8X8X9X8X8X9X2.l '.0.M.M.0.M.m.M.0.M.P.x.m.'.I.].> zXzXzXzXzXzXzXzXzXzXzXzXzX",
"zXzXzX; P  .X.X.P X.o.o. .|  .|  . .!  .C   1 1 1 1 1 # 1 1 1 6   q !  .X.X.! X.O. . .!  . .! ..! ..X zXzXzXzXzXzXzXzXzXzXzXzXzX",
"zXzXzXzXzXzXzXzXzXzXzXzXzXzXzXzXzXzXzXzX3X7 eXaXaXaXaXaXeXaXaXaX=.f.zXzXzXzXzXzXzXzXzXzXzXzXzXzXzXzXzXzXzXzXzXzXzXzXzXzXzXzXzXzX",
"zXzXzXzXzXzXzXzXzXzXzXzXzXzXzXzXzXzXzXzXzX  3 # # $ # # # # # #   zXzXzXzXzXzXzXzXzXzXzXzXzXzXzXzXzXzXzXzXzXzXzXzXzXzXzXzXzXzXzX"
};
