/* XPM */
static char *result[] = {
/* columns rows colors chars-per-pixel */
"64 64 242 2 ",
"   c #000000",
".  c #010B02",
"X  c #0E0D03",
"o  c #0C0808",
"O  c #130906",
"+  c #031204",
"@  c #051905",
"#  c #161105",
"$  c #131313",
"%  c #1C1C1D",
"&  c #0F0B10",
"*  c #281F16",
"=  c #391E13",
"-  c #002C02",
";  c #05240A",
":  c #043A04",
">  c #053509",
",  c #093409",
"<  c #0B3C0A",
"1  c #073606",
"2  c #073913",
"3  c #153211",
"4  c #283216",
"5  c #362916",
"6  c #363536",
"7  c #2C2C2A",
"8  c #201E20",
"9  c #5B2A14",
"0  c #5B3318",
"q  c #4A2E15",
"w  c #6A3615",
"e  c #69381A",
"r  c #733D1E",
"t  c #7A391C",
"y  c #632C10",
"u  c #4A2920",
"i  c #462720",
"p  c #532B22",
"a  c #4A3A29",
"s  c #653222",
"d  c #683A20",
"f  c #773D22",
"g  c #662A21",
"h  c #0D430C",
"j  c #07450A",
"k  c #10480E",
"l  c #0D4C12",
"z  c #0A4213",
"x  c #0D5C1B",
"c  c #0A5319",
"v  c #1B5816",
"b  c #164714",
"n  c #2D5518",
"m  c #0D631D",
"M  c #056C18",
"N  c #0F6813",
"B  c #2D7E1E",
"V  c #277116",
"C  c #266A18",
"Z  c #2E5828",
"A  c #096C26",
"S  c #0D7425",
"D  c #0A7629",
"F  c #0D7B29",
"G  c #077925",
"H  c #107C29",
"J  c #147625",
"K  c #0F6D2B",
"L  c #236F27",
"P  c #287827",
"I  c #37673D",
"U  c #75401D",
"Y  c #7A421D",
"T  c #534732",
"R  c #754321",
"E  c #7C4422",
"W  c #7B4724",
"Q  c #6B4F29",
"!  c #586B24",
"~  c #656C25",
"^  c #59411F",
"/  c #1C3853",
"(  c #004E6D",
")  c #23466A",
"_  c #2D547A",
"`  c #274E74",
"'  c #235E51",
"]  c gray28",
"[  c #545354",
"{  c #5E5E5F",
"}  c #564D44",
"|  c #625144",
" . c #557258",
".. c #7A7554",
"X. c #6E7271",
"o. c #83371E",
"O. c #833F21",
"+. c #814522",
"@. c #814924",
"#. c #8B5B33",
"$. c #976828",
"%. c #976937",
"&. c #9D733D",
"*. c #99783B",
"=. c #887138",
"-. c #A27639",
";. c #AE6C24",
":. c #82471E",
">. c #C07D32",
",. c #9B6F46",
"<. c #966848",
"1. c #9E7343",
"2. c #9E7248",
"3. c #85694E",
"4. c #A27543",
"5. c #A37A41",
"6. c #AA7A47",
"7. c #AC794B",
"8. c #0E832B",
"9. c #07852B",
"0. c #10822C",
"q. c #128B2E",
"w. c #1B8528",
"e. c #139431",
"r. c #258C28",
"t. c #2A9529",
"y. c #379C28",
"u. c #3AA122",
"i. c #3BA82A",
"p. c #2E801E",
"a. c #589630",
"s. c #41A429",
"d. c #44AB2A",
"f. c #46A928",
"g. c #46B22C",
"h. c #49B62D",
"j. c #51AF27",
"k. c #6EA835",
"l. c #4DC430",
"z. c #3E9553",
"x. c #358F4A",
"c. c #5C815C",
"v. c #419A56",
"b. c #52A859",
"n. c #68B655",
"m. c #678052",
"M. c #949008",
"N. c #BC9F2E",
"B. c #B18B37",
"V. c #A7AA28",
"C. c #CDB91D",
"Z. c #CDB722",
"A. c #C3A929",
"S. c #9AD115",
"D. c #89CA17",
"F. c #BED90A",
"G. c #D8CA08",
"H. c #D7CB03",
"J. c #DED209",
"K. c #E8DC12",
"L. c #EEDF11",
"P. c #FFFF00",
"I. c #F8F504",
"U. c #EDED09",
"Y. c #E7E518",
"T. c #AA8144",
"R. c #A9844E",
"E. c #B68845",
"W. c #AB8559",
"Q. c #B88B4E",
"!. c #8D946B",
"~. c #B79369",
"^. c #B2906B",
"/. c #CF9D50",
"(. c #DEAB53",
"). c #D9A358",
"_. c #D0AE45",
"`. c #E4B848",
"'. c #E5AB56",
"]. c #E5B254",
"[. c #EBB757",
"{. c #F1BB5C",
"}. c #F7AD58",
"|. c #C39E73",
" X c #CAAA74",
".X c #F1CB4D",
"XX c #FFF45B",
"oX c #F6CE62",
"OX c #DDC743",
"+X c #1A449E",
"@X c #2A4D99",
"#X c #315C84",
"$X c #3158A8",
"%X c #1547AC",
"&X c #6F7898",
"*X c #4465AA",
"=X c #7E8697",
"-X c #06B7F7",
";X c #00D1FF",
":X c #878689",
">X c #959595",
",X c #B49A8A",
"<X c #BBBBBC",
"1X c #A1A3A5",
"2X c #BCAA8C",
"3X c #C9A783",
"4X c #D4B38A",
"5X c #D9B88E",
"6X c #DCBC93",
"7X c #D4B597",
"8X c #CCB192",
"9X c #E5BD88",
"0X c #E9BF97",
"qX c #C3B8B6",
"wX c #DFC094",
"eX c #E3C59B",
"rX c #E8C699",
"tX c #F1CA9E",
"yX c #FACF96",
"uX c #EDD0A5",
"iX c #FAD8AA",
"pX c #F2D3AA",
"aX c #FEE3B7",
"sX c #FFE6BB",
"dX c #FFE8BB",
"fX c #F6F6B9",
"gX c #ADBAC8",
"hX c #AECED5",
"jX c #A2E2E5",
"kX c #CDCACD",
"lX c #FFEBC2",
"zX c #FFE4C9",
"xX c #FFF0C7",
"cX c #FFF4CB",
"vX c #FFFCCB",
"bX c #FFFFDA",
"nX c #FFFAD4",
"mX c #FFF8EA",
"MX c #FFFFFF",
"NX c #EBECEC",
"BX c #E2D7D1",
"VX c None",
/* pixels */
"VXVXVXVXVXVXVXVXVXVXVXVXVXVXVXVXVXVXVXVXVXVXVXVXVXVXVXVXVXVXVXVXVXVXVXVXVXVXVXVXVXVXVXVXVXVXVXVXVXVXVXVXVXVXVXVXVXVXVXVXVXVXVXVX",
"VXVXVXVXVXVXVXVXVXVXVXVXVXVXVXVXVXVXVXVXVXVXVXVXVXVXVXVXVXVXVXVXVXVXVXVXVXVXVXVXVXVXVXVXVXVXVXVXVXVXVXVXVXVXVXVXVXVXVXVXVXVXVXVX",
"VXVXVXVXVXVXVXVXVXVXVXVXVXVXVXVXVXVXVXVXVXVXx.z.n.n.n.n.n.n.n.n.n.I I  .v.z.m.<.<.W.~.W.VXVXVXVXVXVXVXVXVXVXVXVXVXVXVXVXVXVXVXVX",
"VXVXVXVXVXVXVXVXVXVXVXVXVXVXVXVXVXVXVXVXVXVXM G r.u.y.u.u.u.u.u.y.- 1 j G G n t w %.5.$.VXVXVXVXVXVXVXVXVXVXVXVXVXVXVXVXVXVXVXVX",
"VXVXVXVXVXVXVXVXVXVXVXVXVXVXVXVXVXVXVXVXVXVXA D t.f.s.u.s.s.s.s.y., h c 8.G Z g p #.<.#.VXVXVXVXVXVXVXVXVXVXVXVXVXVXVXVXVXVXVXVX",
"VXVXVXVXVXVXVXVXVXVXVXVXVXVXVXVXM J H H F r.u.s.s.s.s.s.s.s.s.s.s.: < v d.i.S.P.P.P.P.P.`.(.].&.5.R.VXVXVXVXVXVXVXVXVXVXVXVXVXVX",
"VXVXVXVXVXVXVXVXVXVXVXVXVXVXVXVXM G S F D r.s.s.s.s.s.s.s.s.s.s.y.1 h v d.y.S.P.P.P.P.P.`.(.'.*.-.R.VXVXVXVXVXVXVXVXVXVXVXVXVXVX",
"VXVXVXVXVXVXVXVXVXVXVXVXVXVXVXVXM F F F F r.s.s.s.s.s.s.s.s.s.f.s., > v d.t.S.P.P.P.P.P.`.(.].1.1.R.MXVXVXVXVXVXVXVXVXVXVXVXVXVX",
"VXVXVXVXVXVXVXVXVXVXVXVXVX@ - : 0.F r.f.f.f.s.s.s.s.s.s.s.d.- > < h.g.k.}.}.'.).).7.<.<.1.&.<.P.P.P.#.$.~.VXVXVXVXVXVXVXVXVXVXVX",
"VXVXVXVXVXVXVXVXVXVXVXVXVX- < j H F w.s.s.s.s.s.s.s.i.s.s.g.< < k d.i.k.].'.'.(.'.E.5.5.5.4.<.P.P.I.<.*.|.VXVXVXVXVXVXVXVXVXVXVX",
"VXVXVXVXVXVXVXVXVXVXVXVXVXj k l H F w.y.y.i.s.s.s.s.s.s.s.g.> h k g.i.k.)./.`.`.OXE.5.5.B.6.6.I.U.L.B.B. XVXVXVXVXVXVXVXVXVXVXVX",
"VXVXVXVXVXVXVXVXVXVXb - - 0.F 8.H H H D K r.s.s.s.s.s.s.s.g.> j k d.u.a.-.,.C.P.P.A.4.1.(.].].<.,.-.P.P.J.%.$.8XVXVXVXVXVXVXVXVX",
"VXVXVXVXVXVXVXVXVXVXZ < < H H H H H J H H t.d.s.s.f.f.s.s.h.1 < h i.i.j.-.5.C.P.P.N.*.*.(.].[.,.1.B.P.P.K.2.&.7XVXVXVXVXVXVXVXVX",
"VXVXVXVXVXVXVXVXVXVXZ : < H H H H H H H H J p.p.P B B B B B C v C S.k.V.4.4.Z.P.P.A.^.~.7.B.B.Q.Q.E.P.P.G.#.#.8XVXVXVXVXVXVXVXVX",
"VXVXVXVXVXVXVXVXVXVXZ : < 8.H H H H H J H x , , < , , < , > h.s.j.P.P.L.,.2.Z.P.P.oX8XeXW e 9 {.].].P.P.H.g y ,XVXVXVXVXVXVXVXVX",
"VXVXVXVXVXVXVXVXVXVXZ < , F J H H H H H 0.x < < j < < h h 1 g.f.j.P.P.K.2.4.C.P.P.oX8X7XR w 9 {.].`.P.P.H.9 y ,XVXVXVXVXVXVXVXVX",
"VXVXVXVXVXVXVXVXVXVXL m x F H H H H H H H K m m m m m h h , t.w.t.P.P.K.2.1.B.Z.C. X4X5X^.W.^.%.%.-.Z.Z._.<X8XBXVXVXVXVXVXVXVXVX",
"VXVXVXVXVXVXVX .- - G F H H H H J H H H H H H H H 0.0.l h < 0.G w.P.P.K.1.T.5.1.&.|.7X4X5X5XrXy e R 4.%.|.VXVXVXVXVXVXVXVXVXVXVX",
"VXVXVXVXVXVXVXc.: 1 S H H H H F F 0.F 0.0.H H H H H q.h < , G G w.P.P.L.<.<.*.*.$.|.4X4X4X4XeXw W W -.$.~.VXVXVXVXVXVXVXVXVXVXVX",
"VXVXVXVXVXVXVXc.: < J H H H H J l l l l k m H H x l l m J M 1.m.=.N.B.A.U.U.OX3X XtXiXaX5X4XrX  O * VXVXVXVXVXVXVXVXVXVXVXVXVXVX",
"VXVXVXVXVXVXVXc.: < S H H H H J < h h h < x H 0.l h < J 0.G 7.5.5.4.1.N.P.P..X5X4XpXlXlX6X4XtX    $ VXVXVXVXVXVXVXVXVXVXVXVXVXVX",
"VXVXVXVXVXVXVXc.j h J F H 0.0.H h k h h h x 0.0.l < , H 0.G E.T.6.5.1.N.P.P.OX8X3XsXnXbXeXwXiX    $ VXVXVXVXVXVXVXVXVXVXVXVXVXVX",
"VXVXVXVXVXVXVX[     K H H < h <     . k h h h < m 0.8.l h j E r R T.1.N.P.P.XXzXnXT     e U @.    $ VXVXVXVXVXVXVXVXVXVXVXVXVXVX",
"VXVXVXVXVXVXVX[     K H 0.< h h     + h h < j < A F F j < : E U R T.1.N.P.P.XXzXcXT     e U @.    $ VXVXVXVXVXVXVXVXVXVXVXVXVXVX",
"VXVXVXVXVXVXVX[ .   S H 0.< h <     + h k h j : m F F j , j t d R T.4.N.P.P.XXzXxXT     e U :.    $ VXVXVXVXVXVXVXVXVXVXVXVXVXVX",
"VXVXVXVXVXVXVX[     , < < h h <     + k j !.bXcXcXcXnXtX0XiXw r R oX'./.<.%.3XlXaXMXMXMX*X%X+XyXtX4X    6 VXVXVXVXVXVXVXVXVXVXVX",
"VXVXVXVXVXVXVX[     , h h h h j     . k : m.cXdXlXsXlX7X4X6Xe f W ].(./.5.&.3XlXaXmXMXMX*X@X@XrX5X3X    ] VXVXVXVXVXVXVXVXVXVXVX",
"VXVXVXVXVXVXVX[     k l l , , , 6 7 7 1 - ..aXpXaXsXlX6X6XtXq 0 e .XOX_.%.%. XlXaXmXMXMX*X@X+XwX5X3X    ] VXVXVXVXVXVXVXVXVXVXVX",
"VXVXVXVXVXVXVX[     K 0.q.    & VXVXkX    q -.$.6XlXaXsXlXbX    . P.P.H.g y ^.xXaXmXMXMX*X@X+X9X5X3X    ] VXVXVXVXVXVXVXVXVXVXVX",
"VXVXVXVXVXVXVX[     S 0.q.    & VXVX<X    ^ Q.-.rXlXfXaXdXvX    X P.P.G.s e ~.xXaXmXMXMX$X+X+XyXeX X    ] VXVXVXVXVXVXVXVXVXVXVX",
"VXVXVXVXVXVXVX[     x m J     & VXVX<X    * Q ^ ~.wX9XhXjXjX    # P.P.G.s w ^.xXsXnXmXmX:X&X&X3.3...{ { >XVXVXVXVXVXVXVXVXVXVXVX",
"VXVXVXVXVXVXVX[     , < h     & VXVX<X          Q -.;.-X-X;X    X P.P.G.s w ^.xXsXsXsXsX9X9XiX    & VXVXVXVXVXVXVXVXVXVXVXVXVXVX",
"VXVXVXVXVXVXVX]     > k l       VXVX<X    .     Q E.>.-X;X;X    X P.P.G.s w ~.cXdXdXlXlXeXeXiX    o VXVXVXVXVXVXVXVXVXVXVXVXVXVX",
"VXVXVXVXVXVXVXVXVXVX3 @ . VXVXVXVXVXfXM.M.$.=.%.^ 5 9 ( ( (     X P.P.G.s w W.uXeXrXeXiX| T a 1X>XVXVXVXVXVXVXVXVXVXVXVXVXVXVXVX",
"VXVXVXVXVXVXVXVXVXVX8     VXVXVXVXVXfXP.P.Y.[.{.q .             # P.P.H.s f 2.7X4X4X4XrXo     VXVXVXVXVXVXVXVXVXVXVXVXVXVXVXVXVX",
"VXVXVXVXVXVXVXVXVXVXo     VXVXVXVXVXvXP.P.L.}.oX0 .             X P.P.J.s W 7.tX0X0XrXiX      VXVXVXVXVXVXVXVXVXVXVXVXVXVXVXVXVX",
"VXVXVXVXVXVXVXVXVXVXVXVXVXVXVXVXVXVXVXvXbX!.# * , , , x A S     # .X`.B.o O 4 Z Z 4 * $ kXkXVXVXVXVXVXVXVXVXVXVXVXVXVXVXVXVXVXVX",
"VXVXVXVXVXVXVXVXVXVXVXVXVXVXVXVXVXVXVXVXVX:Xo   , h < F 0.q.    O {.].4.    @ j j .     NXVXVXVXVXVXVXVXVXVXVXVXVXVXVXVXVXVXVXVX",
"VXVXVXVXVXVXVXVXVXVXVXVXVXVXVXVXVXVXVXVXVX:X    ; < , H q.e.    . oXoXB.    + h h .     VXVXVXVXVXVXVXVXVXVXVXVXVXVXVXVXVXVXVXVX",
"VXVXVXVXVXVXVXVXVXVXVXVXVXVXVXVXVXVXVXVXVX:X    x H q..     +.f r     ; 0.H H F H H H 8..     VXVXVXVXVXVXVXVXVXVXVXVXVXVXVXVXVX",
"VXVXVXVXVXVXVXVXVXVXVXVXVXVXVXVXVXVXVXVXVX:X    c 0.q..     W E r     ; q.F H H H J F q..     VXVXVXVXVXVXVXVXVXVXVXVXVXVXVXVXVX",
"VXVXVXVXVXVXVXVXVXVXVXVXVXVXVXVXVXVXVXVXVX:X    c H q..     W R e     @ q.H H H H H H 8..     VXVXVXVXVXVXVXVXVXVXVXVXVXVXVXVXVX",
"VXVXVXVXVXVXVXVXVXVXVXVXVXVXVXVXVXVXVXVXVX:X    c 8.0..     9.9.9.q.e.x     , 0.F 8.H A P.P.P.      VXVXVXVXVXVXVXVXVXVXVXVXVXVX",
"VXVXVXVXVXVXVXVXVXVXVXVXVXVXVXVXVXVXVXVXVX:X    c 8.q..     9.F G G G c     2 8.F D D A U.P.P..   $ VXVXVXVXVXVXVXVXVXVXVXVXVXVX",
"VXVXVXVXVXVXVXVXVXVXVXVXVXVXVXVXVXVXVXVXVXX.+ + b L P .     b.z.z.z.v.I     3 P L L L x G.F.U..   $ VXVXVXVXVXVXVXVXVXVXVXVXVXVX",
"VXVXVXVXVXVXVXVXVXVXVXVXVXVXVXVXVXVXVX    > e.9.! o.+.O     MXMXMXMXMXkX    = O.f f t o.K D D     $ VXVXVXVXVXVXVXVXVXVXVXVXVXVX",
"VXVXVXVXVXVXVXVXVXVXVXVXVXVXVXVXVXVXVX    2 8.G T r +..     MXMXMXMXMX<X    = Y f t f o.H F q.    $ VXVXVXVXVXVXVXVXVXVXVXVXVXVX",
"VXVXVXVXVXVXVXVXVXVXVXVXVXVXVXVXVXVXVX    2 0.9.! ~ ~ o     hXgXgXgXgX=X    4 ~ ~ ! ! ~ r.r.t.    $ VXVXVXVXVXVXVXVXVXVXVXVXVXVX",
"VXVXVXVXVXVXVXVXVXVXVXVXVXVXVXVXVXVXVX    2 8.D y.d.h.+     ` ) ) ) ) /     v g.i.i.s.i.f.f.h.    $ VXVXVXVXVXVXVXVXVXVXVXVXVXVX",
"VXVXVXVXVXVXVXVXVXVXVXVXVXVXVXVXVXVXVXo   > q.8.t.d.h.+     #X_ _ ` #X/     v g.d.s.s.f.d.g.l.      VXVXVXVXVXVXVXVXVXVXVXVXVXVX",
"VXVXVXVXVXVXVXVXVXVXVXVXVXVXVXVXVXVXVXVXVX .; ; P d.h.+     | T } a } a     z t.r.y.s.d.b 3 1 VXVXVXVXVXVXVXVXVXVXVXVXVXVXVXVXVX",
"VXVXVXVXVXVXVXVXVXVXVXVXVXVXVXVXVXVXVXVXVX:X    C d.g.+     :.U f f Y 0     2 8.D y.s.h.. .   VXVXVXVXVXVXVXVXVXVXVXVXVXVXVXVXVX",
"VXVXVXVXVXVXVXVXVXVXVXVXVXVXVXVXVXVXVXVXVXX.    V h.l.$     t w t y w q     z q.9.i.g.l.      VXVXVXVXVXVXVXVXVXVXVXVXVXVXVXVXVX",
"VXVXVXVXVXVXVXVXVXVXVXVXVXVXVXVXVXVXVXVXVXVXVXVX[ @ ;       4X|.|.uXuX^.    . @ + @ @ . VXVXVXVXVXVXVXVXVXVXVXVXVXVXVXVXVXVXVXVX",
"VXVXVXVXVXVXVXVXVXVXVXVXVXVXVXVXVXVXVXVXVXVXVXVX[           tX5X5XxXcX2X                VXVXVXVXVXVXVXVXVXVXVXVXVXVXVXVXVXVXVXVX",
"VXVXVXVXVXVXVXVXVXVXVXVXVXVXVXVXVXVXVXVXVXVXVXVXZ           iXtXtXbXmX8X                VXVXVXVXVXVXVXVXVXVXVXVXVXVXVXVXVXVXVXVX",
"VXVXVXVXVXVXVXVXVXVXVXVXVXVXVXVXVXVXVXVXVXVXVXVXVXVXVX%         .     O p u u u i d E +.      VXVXVXVXVXVXVXVXVXVXVXVXVXVXVXVXVX",
"VXVXVXVXVXVXVXVXVXVXVXVXVXVXVXVXVXVXVXVXVXVXVXVXVXVXVX%               & p u u u i d R W o     VXVXVXVXVXVXVXVXVXVXVXVXVXVXVXVXVX",
"VXVXVXVXVXVXVXVXVXVXVXVXVXVXVXVXVXVXVXVXVXVXVXVXVXVXVX%               O u i u u i d R W o     VXVXVXVXVXVXVXVXVXVXVXVXVXVXVXVXVX",
"VXVXVXVXVXVXVXVXVXVXVXVXVXVXVXVXVXVXVXVXVXVXVXVXVXVXVXVXVXVX          O p i d Y R R f W o     VXVXVXVXVXVXVXVXVXVXVXVXVXVXVXVXVX",
"VXVXVXVXVXVXVXVXVXVXVXVXVXVXVXVXVXVXVXVXVXVXVXVXVXVXVXVXVXVX          O p u s W W R R @.      VXVXVXVXVXVXVXVXVXVXVXVXVXVXVXVXVX",
"VXVXVXVXVXVXVXVXVXVXVXVXVXVXVXVXVXVXVXVXVXVXVXVXVXVXVXVXVXVX8 6 6 6 6 6 = 5 i 0 0 0 0 0 6 6 * VXVXVXVXVXVXVXVXVXVXVXVXVXVXVXVXVX",
"VXVXVXVXVXVXVXVXVXVXVXVXVXVXVXVXVXVXVXVXVXVXVXVXVXVXVXVXVXVXVXVXVXVXVXVX                VXVXVXVXVXVXVXVXVXVXVXVXVXVXVXVXVXVXVXVX",
"VXVXVXVXVXVXVXVXVXVXVXVXVXVXVXVXVXVXVXVXVXVXVXVXVXVXVXVXVXVXVXVXVXVXVXVX                VXVXVXVXVXVXVXVXVXVXVXVXVXVXVXVXVXVXVXVX"
};
