/* XPM */
static char *result[] = {
/* columns rows colors chars-per-pixel */
"64 64 218 2 ",
"   c #000000",
".  c #010C02",
"X  c #0B0A0B",
"o  c #070307",
"O  c #190A05",
"+  c #011404",
"@  c #051C06",
"#  c #1E1309",
"$  c #171718",
"%  c #28140E",
"&  c #2B1813",
"*  c #361A0E",
"=  c #052306",
"-  c #042C07",
";  c #082908",
":  c #023502",
">  c #0C3505",
",  c #013B02",
"<  c #06330A",
"1  c #0A330A",
"2  c #033C0A",
"3  c #0B3D0A",
"4  c #0C3B01",
"5  c #143A0B",
"6  c #073510",
"7  c #3C2414",
"8  c #2E2C10",
"9  c #1B1E21",
"0  c #292929",
"q  c #393838",
"w  c #2F2F31",
"e  c #5D2400",
"r  c #4B2A14",
"t  c #47271B",
"y  c #592819",
"u  c #593117",
"i  c #452A13",
"p  c #602B09",
"a  c #693413",
"s  c #6D3B1B",
"d  c #673416",
"f  c #7A361F",
"g  c #743C1C",
"h  c #7D3A1F",
"j  c #793E17",
"k  c #732F0B",
"l  c #4B2A22",
"z  c #522D23",
"x  c #553427",
"c  c #49372E",
"v  c #6B3925",
"b  c #773920",
"n  c #682D24",
"m  c #0D440D",
"M  c #0E4A0E",
"N  c #07450A",
"B  c #0D4A11",
"V  c #094315",
"C  c #184713",
"Z  c #0B561D",
"A  c #0E5D1B",
"S  c #085A13",
"D  c #1A5B13",
"F  c #195313",
"G  c #12470E",
"H  c #225D17",
"J  c #0E631D",
"K  c #196419",
"L  c #007616",
"P  c #236617",
"I  c #266419",
"U  c #28731A",
"Y  c #0C6321",
"T  c #0E6A22",
"R  c #106B21",
"E  c #0E7225",
"W  c #0B7629",
"Q  c #0D7A29",
"!  c #067728",
"~  c #107C29",
"^  c #107021",
"/  c #286C27",
"(  c #366728",
")  c #287328",
"_  c #0B5B20",
"`  c #6B431B",
"'  c #544737",
"]  c #51422E",
"[  c #674B28",
"{  c #7A4422",
"}  c #794724",
"|  c #695823",
" . c #785235",
".. c #557C25",
"X. c #4D7824",
"o. c #6C6124",
"O. c #25425F",
"+. c #2C5174",
"@. c #05787B",
"#. c #08746D",
"$. c #464648",
"%. c #595A5B",
"&. c #515152",
"*. c #574F4A",
"=. c #655B4B",
"-. c #4F5E6B",
";. c #625D64",
":. c #5F6163",
">. c #777778",
",. c #6D6A64",
"<. c #8A3909",
"1. c #883C21",
"2. c #824924",
"3. c #874524",
"4. c #8B5D2B",
"5. c #985E2B",
"6. c #855939",
"7. c #996B2C",
"8. c #936728",
"9. c #9F722F",
"0. c #8B6437",
"q. c #946637",
"w. c #9D7236",
"e. c #A6773A",
"r. c #93631E",
"t. c #9A6E49",
"y. c #9D7346",
"u. c #9B755A",
"i. c #8C644D",
"p. c #A07543",
"a. c #A47A42",
"s. c #A87845",
"d. c #A47D5E",
"f. c #9B7762",
"g. c #0A862B",
"h. c #11822B",
"j. c #1B8429",
"k. c #128B2E",
"l. c #139531",
"z. c #368E23",
"x. c #318520",
"c. c #2D9229",
"v. c #369D2A",
"b. c #389926",
"n. c #3BA526",
"m. c #3EA429",
"M. c #3EAA29",
"N. c #35A328",
"B. c #38B52A",
"V. c #4F8526",
"C. c #649332",
"Z. c #6C9F2C",
"A. c #41A429",
"S. c #45AC2B",
"D. c #47AA29",
"F. c #45B32C",
"G. c #49B22C",
"H. c #7CA837",
"J. c #70BF21",
"K. c #62B61F",
"L. c #4CC130",
"P. c #7A9C7C",
"I. c #B99732",
"U. c #AE833E",
"Y. c #8FA738",
"T. c #BFA22D",
"R. c #D1B718",
"E. c #CFB922",
"W. c #C3A82C",
"Q. c #C19733",
"!. c #87C718",
"~. c #BBDE35",
"^. c #FFFE00",
"/. c #FAF704",
"(. c #F2E909",
"). c #CAF439",
"_. c #A98144",
"`. c #B78949",
"'. c #AA815C",
"]. c #BA9A6C",
"[. c #AA8B77",
"{. c #B39672",
"}. c #D9A657",
"|. c #E8AC55",
" X c #ECB752",
".X c #C19C6C",
"XX c #C2A276",
"oX c #506E8D",
"OX c #01B8FF",
"+X c #00ABF2",
"@X c #00C7FF",
"#X c #AF9B86",
"$X c #90AB91",
"%X c #ACB0AC",
"&X c #ADA48D",
"*X c #C3AB85",
"=X c #D3B389",
"-X c #D9BA8E",
";X c #D9BD97",
":X c #C1B193",
">X c #E6BD94",
",X c #C6B2A7",
"<X c #AAC0AC",
"1X c #DEC199",
"2X c #E6C297",
"3X c #DACAB1",
"4X c #F3D8AE",
"5X c #EDD2B0",
"6X c #FFE9BF",
"7X c #FFFFB7",
"8X c #B3B9C0",
"9X c #FBDCC0",
"0X c #FFE9C1",
"qX c #FFF7CD",
"wX c #FFFCD2",
"eX c white",
"rX c #EAF1EB",
"tX c None",
/* pixels */
"tXtXtXtXtXtXtXtXtXtXtXtXtXtXtXtXtXtXtXtXtXtXtXtXtXtXtXtXtXtXtXtXtXtXtXtXtXtXtXtXtXtXtXtXtXtXtXtXtXtXtXtXtXtXtXtXtXtXtXtXtXtXtXtX",
"tXtXtXtXtXtXtXtXtXtXtXtXtXtXtXtXtXtXtXtXtXtXtXtXtXtXtXtXtXtXtXtXtXtXtXtXtXtXtXtXtXtXtXtXtXtXtXtXtXtXtXtXtXtXtXtXtXtXtXtXtXtXtXtX",
"tXtXtXtXtXtXtXtXtXtXtXtXtXtXtXtXtXtXtXtXtXtXtXtXtXtXtXtXtXtXtXtXtXtXtXtXtXtXtXtXtXtXtXtXtXtXtXtXtXtXtXtXtXtXtXtXtXtXtXtXtXtXtXtX",
"tXtXtXtXtXtXtXtXtXtXtXtXtXtXtXtXtXtXtXtXtXtXtXtXtXtXtXtXtXtXtXtXtXtXtXtXtXtXtXtXtXtXtXtXtXtXtXtXtXtXtXtXtXtXtXtXtXtXtXtXtXtXtXtX",
"tXtXtXtXtXtXtXtXtXtXtXtXtXtXtXtXtXtXtXtXtXtXtXtXtXtXtXtXtXtXtXtXtXtXtXtXtXtXtXtXtXtXtXtXtXtXtXtXtXtXtXtXtXtXtXtXtXtXtXtXtXtXtXtX",
"tXtXtXtXtXtXtXtXtXtXtXtXtXtXtXtXtXtXtXtXtXtXtXtXp p a 9.7.7.7.7.7.7.9.e e 6.tXtXtXtXtXtXtXtXtXtXtXtXtXtXtXtXtXtXtXtXtXtXtXtXtXtX",
"tXtXtXtXtXtXtXtXtXtXtXtXtXtXtXtXtXtXtXtXtXtXtXtXa s g s.p.p.p.y.a.a._.s s i.tXtXtXtXtXtXtXtXtXtXtXtXtXtXtXtXtXtXtXtXtXtXtXtXtXtX",
"tXtXtXtXtXtXtXtXtXtXtXtXtXtXtXtXtXtXtXtXtXtX%X8X5.4.7.W.T.T.T.W.U.e._.} } y.7X7XtXtXtXtXtXtXtXtXtXtXtXtXtXtXtXtXtXtXtXtXtXtXtXtX",
"tXtXtXtXtXtXtXtXtXtXtXtXtXtXtXtXtXtXtXtXtX$.     X X X^.^.^.^.^.I.p.a._.p.I.^.^.R.q.r.tXtXtXtXtXtXtXtXtXtXtXtXtXtXtXtXtXtXtXtXtX",
"tXtXtXtXtXtXtXtXtXtXtXtXtXtXtXtXtXtXtXtXtX$.  o  X|. X^.^.^.^.^.I.s.s.s.e.I.^.^.E.y.7.tXtXtXtXtXtXtXtXtXtXtXtXtXtXtXtXtXtXtXtXtX",
"tXtXtXtXtXtXtXtXtXtXtXtXtXtXtXtXtXtXtX&.;.( I D H.H.H.!.!.!.!.!.Z.C.C.C.C.Y.^.^.E.y.e.XX*X*XtXtXtXtXtXtXtXtXtXtXtXtXtXtXtXtXtXtX",
"tXtXtXtXtXtXtXtXtXtXtXtXtXtXtXtXtXtX$X  o U G.S.m.N.m.v.v.v.v.N.n.n.n.A.N.K.^.^.E.y.a.w.w.7.tXtXtXtXtXtXtXtXtXtXtXtXtXtXtXtXtXtX",
"tXtXtXtXtXtXtXtXtXtXtXtXtXtXtXtXtXtX%Xo   U G.S.S.F.S.S.F.S.G.S.G.F.F.S.S.J.^.^.E.y.t.t.t.t.tXtXtXtXtXtXtXtXtXtXtXtXtXtXtXtXtXtX",
"tXtXtXtXtXtXtXtXtXtXtXtXtXtXtXtX  o 5 D.A.K V m V G m G m m m m m m m m m D G.n.Y.|.}.(./.^.v { f.tXtXtXtXtXtXtXtXtXtXtXtXtXtXtX",
"tXtXtXtXtXtXtXtXtXtXtXtXtXtXtXtX    5 G.G.H 3 3 3 3 3 m 3 3 m 6 3 m 3 3 2 F S.N.Y.|.|./.^.^.y a u.tXtXtXtXtXtXtXtXtXtXtXtXtXtXtX",
"tXtXtXtXtXtXtXtXtXtXtXtXtXtXtXtX    C D.A.D m G B m G m G G V C G m m G m F M.v.Y.}.}.(././.n g f.tXtXtXtXtXtXtXtXtXtXtXtXtXtXtX",
"tXtXtXtXtXtXtXtXtXtXtXtXtX      l.k.T < : z.S.S.A.S.S.S.S.S.S.S.S.S.S.F.G.b.- < S ! g.o     `.e.XXtXtXtXtXtXtXtXtXtXtXtXtXtXtXtX",
"tXtXtXtXtXtXtXtXtXtXtXtXtXX   . k.h.Y 3 < x.S.A.A.A.A.A.A.A.A.A.A.A.A.A.A.z.< > Y Q g.+     `.7.].tXtXtXtXtXtXtXtXtXtXtXtXtXtXtX",
"tXtXtXtXtXtXtXtXtXtXtXtXtXX     ^ J K P K z.A.A.A.A.A.A.A.A.A.A.A.A.A.A.A.b.K P J J J +     2X*X3XtXtXtXtXtXtXtXtXtXtXtXtXtXtXtX",
"tXtXtXtXtXtXtXtXtXtXtXtXtXX     m 1 P F.S.A.A.A.A.A.A.A.A.A.A.A.A.A.A.A.A.A.D.F.U 3 G .     tXtXtXtXtXtXtXtXtXtXtXtXtXtXtXtXtXtX",
"tXtXtXtXtXtXtXtXtXtXtXtXtXo     m 3 P G.S.A.A.A.A.A.A.A.A.A.A.A.A.A.A.A.A.D.S.G.U 3 m       eXtXtXtXtXtXtXtXtXtXtXtXtXtXtXtXtXtX",
"tXtXtXtXtXtXtXtX].].;X3X9X5 - 1 T T K D D z.A.A.A.A.A.A.A.A.A.A.A.A.A.A.A.b.D D J J E 1 - = 9X3X1X].].tXtXtXtXtXtXtXtXtXtXtXtXtX",
"tXtXtXtXtXtXtXtX8.9.].=X>XC 3 B h.h.J 3 < x.D.A.A.A.A.A.A.A.A.A.A.A.A.A.A.z.< 3 J h.h.B m , >X=XXX9.7.3XtXtXtXtXtXtXtXtXtXtXtXtX",
"tXtXtXtXtXtXtXtX5.8.].=X>XG N m h.Q J > < x.S.A.A.A.A.A.A.A.A.A.A.A.A.A.A.z.< > A ~ h.B 3 , >X=X.Xq.8.3XtXtXtXtXtXtXtXtXtXtXtXtX",
"tXtXtXtXtXe a t.qX0X0X6XqXC 2 m h.~ ~ ~ W v.A.A.A.A.A.m.A.A.A.A.A.A.A.A.A.v.Q ~ ~ ~ h.B 3 : wX0X6X6XqX'.a p tXtXtXtXtXtXtXtXtXtX",
"tXtXtXtXtXe a t.wX0X0X0XwXC 3 V h.~ ~ ~ Q v.A.A.A.A.A.A.A.A.A.A.m.A.A.A.A.v.Q ~ ~ ~ h.M 3 , wX0X6X6XqX'.a e tXtXtXtXtXtXtXtXtXtX",
"tXtXtXtXtX} 6.d.4X5X4X4X6XC 3 m h.~ Q E E c.v.v.A.A.A.A.A.A.A.A.A.A.A.b.v.v.T W E ~ h.M 3 , 0X4X4X5X4X[. .} tXtXtXtXtXtXtXtXtXtX",
"tXtXtXtXtXtXtXtXe e 4.w.e.m m V h.~ J 3 > J Q ! A.A.A.A.A.A.A.A.A.A.D.! Q T > > A h.~ M m 2 e.w.4.p e ,XtXtXtXtXtXtXtXtXtXtXtXtX",
"tXtXtXtXtXtXtXtXe a 0._.`.4 > 4 h.h.Y m m J ~ Q A.A.A.A.A.A.A.A.A.A.D.W Q E m m J h.h.m 4 > `._.q.a p :XtXtXtXtXtXtXtXtXtXtXtXtX",
"tXtXtXtXtXtXtXtXtXtXt.4.5.@.@.#.S J B = @ J ~ W c.c.c.D.A.A.A.A.c.c.c.Q ~ T @ @ m J S #.@.@.5.4.t.#X[.tXtXtXtXtXtXtXtXtXtXtXtXtX",
"tXtXtXtXtXtXtXtXtXtX[.a <.OX@XOX> m =     Z h.~ Q Q ~ D.A.A.A.D.j.Q Q ~ ~ Y     @ m > +X@X@Xk k f.tXtXtXtXtXtXtXtXtXtXtXtXtXtXtX",
"tXtXtXtXtXtXtXtXtXtX[.j <.+XOXOX> N =     Z h.~ ~ Q ~ D.A.D.A.D.j.Q ~ ~ ~ Y     = N : +XeXOX<.g d.tXtXtXtXtXtXtXtXtXtXtXtXtXtXtX",
"tXtXtXtXtXtXtXtXtXtX,.o   ).).).r ` 7     Z ~ ~ ~ Q ~ j.j.j.~ j.~ ~ ~ ~ ~ Y     8 ` r ~.).).  O *.tXtXtXtXtXtXtXtXtXtXtXtXtXtXtX",
"tXtXtXtXtXtXtXtXtXtX%.    /././.n } r     A ~ ~ ~ ~ ~ E ~ ~ ~ Q Q ~ ~ ~ ~ Y     7 } n (.^.^.    $.tXtXtXtXtXtXtXtXtXtXtXtXtXtXtX",
"tXtXtXtXtXtXtXtXtXtX$.o   ^.^.^.z g i     _ h.k.~ ~ ~ ~ ~ ~ ~ Q ~ ~ ~ h.k.Y     * b y /.^.^.    w tXtXtXtXtXtXtXtXtXtXtXtXtXtXtX",
"tXtXtXtXtXtXtXtXtXtXtXtXtXo     `.`.[     ; 3 < ~ ~ ~ ~ ~ ~ ~ ~ Q ~ ~ > 5 1     [ `.`.o     tXtXtXtXtXtXtXtXtXtXtXtXtXtXtXtXtXtX",
"tXtXtXtXtXtXtXtXtXtXtXtXtXo     `.`.[     1 m 5 ~ ~ ~ ~ ~ ~ ~ ~ ~ ~ h.3 m 3     ] `.`..     tXtXtXtXtXtXtXtXtXtXtXtXtXtXtXtXtXtX",
"tXtXtXtXtXtXtXtXtXtXtXtXtXq w q q.0.u     ; 1 1 ~ ~ ~ ~ ~ ~ ~ ~ ~ ~ h.; 1 ;     i 0.0.] w 0 tXtXtXtXtXtXtXtXtXtXtXtXtXtXtXtXtXtX",
"tXtXtXtXtXtXtXtXtXtXtXtXtXtXtXtX    .           ~ ~ ~ ~ ~ Q ~ ~ ~ ~ k.                rXtXtXtXtXtXtXtXtXtXtXtXtXtXtXtXtXtXtXtXtX",
"tXtXtXtXtXtXtXtXtXtXtXtXtXtXtXtX                h.~ ~ ~ ~ ~ ~ ~ ~ ~ k.                rXtXtXtXtXtXtXtXtXtXtXtXtXtXtXtXtXtXtXtXtX",
"tXtXtXtXtXtXtXtXtXtXtXtXtX>.>.>.2 V < @ ; .     A A J ~ ~ ~ ~ ~ J A J       ; = 1 V 2 ,.>.>.tXtXtXtXtXtXtXtXtXtXtXtXtXtXtXtXtXtX",
"tXtXtXtXtXtXtXtXtXtXtXtXtX      l.h.T m B +     m 3 m ~ ~ ~ ~ ~ B m m     + M m Y h.k..     tXtXtXtXtXtXtXtXtXtXtXtXtXtXtXtXtXtX",
"tXtXtXtXtXtXtXtXtXtXtXtXtXX o o L L S 3 V .     B m B h.~ ~ ~ h.S G M       M 3 J ! L .     tXtXtXtXtXtXtXtXtXtXtXtXtXtXtXtXtXtX",
"tXtXtXtXtXtXtXtXtXtX>.$ 0 7 7 l tXtX$X: m A T E .   @ h.~ ~ ~ h.= .   E T J 3 : P.rXrX-.O.O.0 9 :.tXtXtXtXtXtXtXtXtXtXtXtXtXtXtX",
"tXtXtXtXtXtXtXtXtXtX%.    t l x tXtX%X: 3 J k.k.    . k.~ ~ ~ k.@ o   k.h.E 3 : $XeXeXoX+.+.    c tXtXtXtXtXtXtXtXtXtXtXtXtXtXtX",
"tXtXtXtXtXtXtXtXtXtX:.    l t x tXtX<X: 3 J h.k.    . k.~ ~ ~ h.@     k.Q T 2 , $XeXeXoX+.+.    $.tXtXtXtXtXtXtXtXtXtXtXtXtXtXtX",
"tXtXtXtXtXtXtXtX    i 3.} { } s     O 1.1./ Q k.      m 3 > 3 m .     k.h.) 1.3.%     p 2.j 2.2.r   o tXtXtXtXtXtXtXtXtXtXtXtXtX",
"tXtXtXtXtXtXtXtX    i g s s ` s     % 3.f / g.g.    . M m M m G .     k.Q ^ 1.b *     u ` g s g y   o tXtXtXtXtXtXtXtXtXtXtXtXtX",
"tXtXtXtXtXtXtXtX    ' p.t.0.0.6.  + 8 o.o.( / ) # # # < 1 1 1 1 # # O ) / ( | o.8 . .  .q.0.t.t. .    tXtXtXtXtXtXtXtXtXtXtXtXtX",
"tXtXtXtXtXtXtXtX    {.wXwX1X>X-X, N K F.B.o.f h 3.{ s           d 3.3.b 1.| B.B.U N N *X>X;XwXwX:X    tXtXtXtXtXtXtXtXtXtXtXtXtX",
"tXtXtXtXtXtXtXtX    [.wXwX2X>X;X, m P S.M.| g g b b d           y b g g f ` M.S.U N , *X2X>XwXwX:X    tXtXtXtXtXtXtXtXtXtXtXtXtX",
"tXtXtXtXtXtXtXtXtXtX>.=.=.' ' ' + + F F.n.V...........H I I I K X.V.......V.M.S.D + + ] ' ' =.=.,.tXtXtXtXtXtXtXtXtXtXtXtXtXtXtX",
"tXtXtXtXtXtXtXtXtXtX%.              5 G.m.S.n.n.M.M.M.S.S.S.S.S.S.M.M.M.M.A.A.S.C               ' tXtXtXtXtXtXtXtXtXtXtXtXtXtXtX",
"tXtXtXtXtXtXtXtXtXtX&.              C G.F.D.S.D.A.A.A.A.A.m.A.A.A.A.A.A.D.S.F.L.H               w tXtXtXtXtXtXtXtXtXtXtXtXtXtXtX",
"tXtXtXtXtXtXtXtXtXtXtXtXtXX   o l t & .   A h.Q A.A.A.A.A.A.A.A.A.A.D.Q h.Y   . % l l o     tXtXtXtXtXtXtXtXtXtXtXtXtXtXtXtXtXtX",
"tXtXtXtXtXtXtXtXtXtXtXtXtXo     x z &     Z ~ ! A.A.M.A.A.A.A.A.A.A.A.W h.Y     % y z o     tXtXtXtXtXtXtXtXtXtXtXtXtXtXtXtXtXtX",
"tXtXtXtXtXtXtXtXtXtXtXtXtXX   X t l &     Z ~ W A.A.A.m.b.A.A.m.A.A.A.W ~ J     % l l X o   tXtXtXtXtXtXtXtXtXtXtXtXtXtXtXtXtXtX",
"tXtXtXtXtXtXtXtXtXtXtXtXtXtXtXtX    # x l b 1.h f b d           y f f h 1.g z z # o   tXtXtXtXtXtXtXtXtXtXtXtXtXtXtXtXtXtXtXtXtX",
"tXtXtXtXtXtXtXtXtXtXtXtXtXtXtXtXo   O z l v } { b { s           u { { { { b l z # o o tXtXtXtXtXtXtXtXtXtXtXtXtXtXtXtXtXtXtXtXtX",
"tXtXtXtXtXtXtXtXtXtXtXtXtXtXtXtX$.:.c & & t r r r r l %.%.%.%.:.z r r r r i & & c %.$.tXtXtXtXtXtXtXtXtXtXtXtXtXtXtXtXtXtXtXtXtX",
"tXtXtXtXtXtXtXtXtXtXtXtXtXtXtXtXtXtXtX              9 tXtXtXtXtXq               tXtXtXtXtXtXtXtXtXtXtXtXtXtXtXtXtXtXtXtXtXtXtXtX",
"tXtXtXtXtXtXtXtXtXtXtXtXtXtXtXtXtXtXtX              X tXtXtXtXtX0               >.tXtXtXtXtXtXtXtXtXtXtXtXtXtXtXtXtXtXtXtXtXtXtX",
"tXtXtXtXtXtXtXtXtXtXtXtXtXtXtXtXtXtXtXtXtXtXtXtXtXtXtXtXtXtXtXtXtXtXtXtXtXtXtXtXtXtXtXtXtXtXtXtXtXtXtXtXtXtXtXtXtXtXtXtXtXtXtXtX",
"tXtXtXtXtXtXtXtXtXtXtXtXtXtXtXtXtXtXtXtXtXtXtXtXtXtXtXtXtXtXtXtXtXtXtXtXtXtXtXtXtXtXtXtXtXtXtXtXtXtXtXtXtXtXtXtXtXtXtXtXtXtXtXtX"
};
