/* XPM */
static char *result[] = {
/* columns rows colors chars-per-pixel */
"64 64 14 1 ",
"  c #AA8347",
". c #C2A25D",
"X c #D2B66B",
"o c #91CC67",
"O c #AEDC6C",
"+ c #B6DD6C",
"@ c #BFDF6D",
"# c #DDCD75",
"$ c #C6E57B",
"% c #5DAACE",
"& c #68BDD5",
"* c #D7F089",
"= c #82DCDF",
"- c #A8F0ED",
/* pixels */
"&&&&==&&&&==-----%%####  OOOOOO**$$OO$$OO$$@@OOOOO@@@@OO$$$$++$$",
"&&&&==&&&&==-----%%####  OOOOOO**$$OO$$OO$$@@OOOOO@@@@OO$$$$++$$",
"&&====&&&&==-----%%####  OOOO**OOOO$$OO@@OOOOOO$$$OO@@OOOO$$++$$",
"&&====&&&&==-----%%####  OOOO**OOOO$$OO@@OOOOOO$$$OO@@OOOO$$++$$",
"========&&==-----%%XXXX  oooo**$$OO@@++OO$$OO@@OOO$$++$$$$OO$$OO",
"========&&==-----%%XXXX  oooo**$$OO@@++OO$$OO@@OOO$$++$$$$OO$$OO",
"==&&&&&&====-----%%XXXXXX  OOOO**++++$$$$OOOO@@@@@++++++$$OOOO@@",
"==&&&&&&====-----%%XXXXXX  OOOO**++++$$$$OOOO@@@@@++++++$$OOOO@@",
"&&&&&&&&&&====---==%%XXXX  OOOOOO**$$$$OO@@OO@@OOO$$$$++$$$$OO@@",
"&&&&&&&&&&====---==%%XXXX  OOOOOO**$$$$OO@@OO@@OOO$$$$++$$$$OO@@",
"&&&&&&&&&&&&==-----%%####  OOOOOOOO**@@@@OO$$OO$$$OO$$++@@OO$$OO",
"&&&&&&&&&&&&==-----%%####  OOOOOOOO**@@@@OO$$OO$$$OO$$++@@OO$$OO",
"&&&&&&&&&&&&=====--%%####  oooooo**$$OO@@@@OOOOOOO@@OO$$OO@@OOOO",
"&&&&&&&&&&&&=====--%%####  oooooo**$$OO@@@@OOOOOOO@@OO$$OO@@OOOO",
"&&&&&&&&&&=========%%####  oooo**@@OO$$OO@@OO$$OOO@@OO$$OO@@@@@@",
"&&&&&&&&&&=========%%####  oooo**@@OO$$OO@@OO$$OOO@@OO$$OO@@@@@@",
"&&&&&&&&&&=========%%####  oooo**@@OO$$OO@@OO$$OOO@@OO$$OO@@@@@@",
"==&&&&&&&&====---%%####  oooo**@@@@@@OOOO@@OO$$OOO@@@@OOOO@@@@@@",
"==&&&&&&&&====---%%####  oooo**@@@@@@OOOO@@OO$$OOO@@@@OOOO@@@@@@",
"============-----%%####  oooo**OOOO$$OO@@OO$$OOOOO@@@@$$$$++@@@@",
"============-----%%####  oooo**OOOO$$OO@@OO$$OOOOO@@@@$$$$++@@@@",
"============-----%%####  oooo**++$$OO@@@@$$$$$$$$$OO@@@@@@++$$++",
"============-----%%####  oooo**++$$OO@@@@$$$$$$$$$OO@@@@@@++$$++",
"========&&&&-----%%XXXX  ooOOOO**$$$$@@@@@@$$OOOOO$$OO$$@@++++++",
"========&&&&-----%%XXXX  ooOOOO**$$$$@@@@@@$$OOOOO$$OO$$@@++++++",
"======&&&&&&==---%%XXXXXX  OOOOOO**@@$$@@@@$$@@@@@OO$$OO@@$$++++",
"======&&&&&&==---%%XXXXXX  OOOOOO**@@$$@@@@$$@@@@@OO$$OO@@$$++++",
"&&&&==&&&&&&&&---==%%XXXXXX  ooOOOO**++@@$$@@@@@@@OO$$OO@@$$++$$",
"&&&&==&&&&&&&&---==%%XXXXXX  ooOOOO**++@@$$@@@@@@@OO$$OO@@$$++$$",
"&&&&==&&&&&&&&===--%%XXXXXX..  oooooo**$$OOOO@@$$$$$OOOO@@@@++$$",
"&&&&==&&&&&&&&===--%%XXXXXX..  oooooo**$$OOOO@@$$$$$OOOO@@@@++$$",
"&&====&&&&&&&&===--==%%####  oooooo**$$@@OO$$OO@@@@@@@@@OOOO$$OO",
"&&====&&&&&&&&===--==%%####  oooooo**$$@@OO$$OO@@@@@@@@@OOOO$$OO",
"==========&&&&===--==%%####  oooo**@@@@@@@@++$$OOO@@++OO$$OOOO@@",
"==========&&&&===--==%%####  oooo**@@@@@@@@++$$OOO@@++OO$$OOOO@@",
"====&&&&&&=======----%%####  oooo**@@@@$$$$++$$+++++$$$$OO@@@@OO",
"====&&&&&&=======----%%####  oooo**@@@@$$$$++$$+++++$$$$OO@@@@OO",
"==&&&&&&&&&&=======--%%####  oooo**@@@@@@$$++++$$$$$$$OO@@@@OO$$",
"==&&&&&&&&&&=======--%%####  oooo**@@@@@@$$++++$$$$$$$OO@@@@OO$$",
"&&&&&&&&&&&&&&=====--%%XXXX  ooOOOO**@@+++++++++++++@@@@@@$$$$OO",
"&&&&&&&&&&&&&&=====--%%XXXX  ooOOOO**@@+++++++++++++@@@@@@$$$$OO",
"&&&&&&&&&&&&&&=====--%%XXXXXX  OOOOOO**++++$$++$$$$$OO@@$$$$$$$$",
"&&&&&&&&&&&&&&=====--%%XXXXXX  OOOOOO**++++$$++$$$$$OO@@$$$$$$$$",
"&&&&&&&&&&&&&&&&&----==%%XXXX  OOOOOOOO**++@@@@@@@OO$$OO@@@@OOOO",
"&&&&&&&&&&&&&&&&&----==%%XXXX  OOOOOOOO**++@@@@@@@OO$$OO@@@@OOOO",
"&&&&&&&&&&&&&&&&&------%%####..  oooooo**++@@@@@@@@@OOOO@@@@OO$$",
"&&&&&&&&&&&&&&&&&------%%####..  oooooo**++@@@@@@@@@OOOO@@@@OO$$",
"==&&&&&&&&&&&&&&&------%%####..  oooo**OO@@@@OOOOO@@@@$$@@@@@@++",
"==&&&&&&&&&&&&&&&------%%####..  oooo**OO@@@@OOOOO@@@@$$@@@@@@++",
"==&&&&&&&&&&&&&&&------%%####..  oooo**OO@@@@OOOOO@@@@$$@@@@@@++",
"&&==&&&&&&&&=====----==%%####  oooo**OO@@$$$$$$OOO@@@@@@$$@@@@++",
"&&==&&&&&&&&=====----==%%####  oooo**OO@@$$$$$$OOO@@@@@@$$@@@@++",
"&&&&========&&&&&==--%%XX##XX  oooo**@@$$$$OOOO@@@@@@@@@$$@@@@++",
"&&&&========&&&&&==--%%XX##XX  oooo**@@$$$$OOOO@@@@@@@@@$$@@@@++",
"&&&&========&&&&&==--%%XXXXXX  OOOO**@@@@$$$$OO@@@@@@@OOOO@@++++",
"&&&&========&&&&&==--%%XXXXXX  OOOO**@@@@$$$$OO@@@@@@@OOOO@@++++",
"============&&===----%%XXXXXX  OOOO**@@@@@@OO$$OOO@@OO$$$$OO++$$",
"============&&===----%%XXXXXX  OOOO**@@@@@@OO$$OOO@@OO$$$$OO++$$",
"==============-----==%%XXXXXX  OOOO**@@@@$$@@OOOOOOOOOOOOO$$OO@@",
"==============-----==%%XXXXXX  OOOO**@@@@$$@@OOOOOOOOOOOOO$$OO@@",
"&&============-----%%XX####XX  oooo**@@$$$$@@@@OOO$$OO@@@@++$$++",
"&&============-----%%XX####XX  oooo**@@$$$$@@@@OOO$$OO@@@@++$$++",
"&&&&==========---==%%######  oooooo**$$OOOO@@$$@@@OO$$OO@@++++++",
"&&&&==========---==%%######  oooooo**$$OOOO@@$$@@@OO$$OO@@++++++"
};
