/* XPM */
static char *result[] = {
/* columns rows colors chars-per-pixel */
"64 64 13 1 ",
"  c #AA8347",
". c #D2B66B",
"X c #91CC67",
"o c #AEDC6C",
"O c #B6DD6C",
"+ c #BFDF6D",
"@ c #DDCD75",
"# c #C6E57B",
"$ c #5DAACE",
"% c #68BDD5",
"& c #D7F089",
"* c #82DCDF",
"= c #A8F0ED",
/* pixels */
"%%%%%%****====$$$......  XX&&+++++++++++++++++++++++++++++++++++",
"%%%%%%******==$$$......  XXXX&&####OOOO##oo+++++++++++++oo####++",
"%%%%%%******==$$$......  XXXX&&####OOOO##oo+++++++++++++oo####++",
"%%%%%%******=====$$......  XXXX&&OOOOOOOO+++++++++++++oo##oooo++",
"%%%%%%******=====$$......  XXXX&&OOOOOOOO+++++++++++++oo##oooo++",
"%%%%**********=====$$....  XXXXXX&&OO##OO++++##+++++++oooooo##++",
"%%%%**********=====$$....  XXXXXX&&OO##OO++++##+++++++oooooo##++",
"*****************==$$......  XXXX&&++oo##oooooo+++++++oo##oooo++",
"*****************==$$......  XXXX&&++oo##oooooo+++++++oo##oooo++",
"******%%%%%%%%%%%====$$..@@@@  oooo&&OOoo####oo+++++OO##oo####++",
"******%%%%%%%%%%%====$$..@@@@  oooo&&OOoo####oo+++++OO##oo####++",
"%%**%%%%%%%%%%%%%**==**$$@@@@  oooo&&OO++oooo+++++OO##OOOOOOOO++",
"%%**%%%%%%%%%%%%%**==**$$@@@@  oooo&&OO++oooo+++++OO##OOOOOOOO++",
"%%**%%%%%%%%%%%%%%%====$$@@@@  oooo&&&&&&++##++OOO##OOoo######++",
"%%**%%%%%%%%%%%%%%%====$$@@@@  oooo&&&&&&++##++OOO##OOoo######++",
"%%**%%%%%%%%%%%%%%%**====$$@@  ooXXXXXXXX&&++##OOOOOoo####OOOO++",
"%%**%%%%%%%%%%%%%%%**====$$@@  ooXXXXXXXX&&++##OOOOOoo####OOOO++",
"%%**%%%%%%%%%%%%%%%**====$$@@  ooXXXXXXXX&&++##OOOOOoo####OOOO++",
"****%%%%%%%%%%%%%%%****==$$@@..  XXXXXXXXXX&&+++++OO##ooOO++oo++",
"****%%%%%%%%%%%%%%%****==$$@@..  XXXXXXXXXX&&+++++OO##ooOO++oo++",
"******%%%%%%%%%%%******====$$....        XXXX&&###OOoo++++++++++",
"******%%%%%%%%%%%******====$$....        XXXX&&###OOoo++++++++++",
"*************************====$$..........  XXXX&&&OOOO++++++++++",
"*************************====$$..........  XXXX&&&OOOO++++++++++",
"********%%%%%%%%%%%********====$$......@@  XXXX&&&######OOOOOO++",
"********%%%%%%%%%%%********====$$......@@  XXXX&&&######OOOOOO++",
"******%%%%%%%%%%%%%%%****%%%%====$$$$@@@@  XXXX&&&&&&&OO####OO++",
"******%%%%%%%%%%%%%%%****%%%%====$$$$@@@@  XXXX&&&&&&&OO####OO++",
"******%%%%%%%%%%%%%%%**%%%%%%%%====$$@@@@  XXXXooooooo&&&&OOOO++",
"******%%%%%%%%%%%%%%%**%%%%%%%%====$$@@@@  XXXXooooooo&&&&OOOO++",
"%%%%****%%%%%%%%%%%**%%%%%%%%%%%%====$$@@@@  oooooooooXXXX&&++++",
"%%%%****%%%%%%%%%%%**%%%%%%%%%%%%====$$@@@@  oooooooooXXXX&&++++",
"%%%%%%%%**%%%%%%%****%%%%%%%%%%%%%%====$$@@..         XXXXXX&&&&",
"%%%%%%%%**%%%%%%%****%%%%%%%%%%%%%%====$$@@..         XXXXXX&&&&",
"%%%%%%%%***************%%%%%%%%%%%%%%====$$...........  XXXXoooo",
"%%%%%%%%***************%%%%%%%%%%%%%%====$$...........  XXXXoooo",
"%%%%%%%%*********%%%%%%**%%%%%%%%%%%%**====$$.........@@    oooo",
"%%%%%%%%*********%%%%%%**%%%%%%%%%%%%**====$$.........@@    oooo",
"%%%%%%********%%%%%%%%%%%**%%%%%%%%******====$$.......@@@@..    ",
"%%%%%%********%%%%%%%%%%%**%%%%%%%%******====$$.......@@@@..    ",
"**************%%%%%%%%%%%******************====$$$$$$$@@@@@@@@@@",
"**************%%%%%%%%%%%******************====$$$$$$$@@@@@@@@@@",
"**%%%%%%%%%%*****%%%%%%************%%%%%%%%**=========$$$$@@@@@@",
"**%%%%%%%%%%*****%%%%%%************%%%%%%%%**=========$$$$@@@@@@",
"%%%%%%%%%%%%%%*******************%%%%%%%%%%%%**===========$$@@@@",
"%%%%%%%%%%%%%%*******************%%%%%%%%%%%%**===========$$@@@@",
"%%%%%%%%%%%%%%*******%%%%%%%%****%%%%%%%%%%%%*********======$$$$",
"%%%%%%%%%%%%%%*******%%%%%%%%****%%%%%%%%%%%%*********======$$$$",
"%%%%%%%%%%%%%%*******%%%%%%%%****%%%%%%%%%%%%*********======$$$$",
"%%%%%%%%%%%%%%*****%%%%%%%%%%%%**%%%%%%%%%%%%*************======",
"%%%%%%%%%%%%%%*****%%%%%%%%%%%%**%%%%%%%%%%%%*************======",
"**%%%%%%%%%%*****%%%%%%%%%%%%%%%%**%%%%%%%%%%*********%%%%**====",
"**%%%%%%%%%%*****%%%%%%%%%%%%%%%%**%%%%%%%%%%*********%%%%**====",
"*****************%%%%%%%%%%%%%%%%%%**%%%%%%*********%%%%%%%%%%**",
"*****************%%%%%%%%%%%%%%%%%%**%%%%%%*********%%%%%%%%%%**",
"*****************%%%%%%%%%%%%%%%%%%*******************%%%%%%%%**",
"*****************%%%%%%%%%%%%%%%%%%*******************%%%%%%%%**",
"*******************%%%%%%%%%%%%%%%%*********************%%%%%%**",
"*******************%%%%%%%%%%%%%%%%*********************%%%%%%**",
"%%********%%%%%%%%%**%%%%%%%%%%%%%%************%%%%%%%%%********",
"%%********%%%%%%%%%**%%%%%%%%%%%%%%************%%%%%%%%%********",
"%%%%****%%%%%%%%%%%%%**%%%%%%%%%%************%%%%%%%%%%%%%****%%",
"%%%%****%%%%%%%%%%%%%**%%%%%%%%%%************%%%%%%%%%%%%%****%%",
"%%%%****%%%%%%%%%%%%%**********************%%%%%%%%%%%%%%%**%%%%"
};
