/* XPM */
static char *result[] = {
/* columns rows colors chars-per-pixel */
"64 64 171 2 ",
"   c #2D170D",
".  c #2E1C0E",
"X  c #3C1F0C",
"o  c #271C15",
"O  c #371F18",
"+  c #3E200D",
"@  c #3D2512",
"#  c #3D2817",
"$  c #3B2719",
"%  c #3D291B",
"&  c #44240E",
"*  c #442613",
"=  c #4B2714",
"-  c #442916",
";  c #4B2A14",
":  c #412B1A",
">  c #4C2E1B",
",  c #522E14",
"<  c #512F1A",
"1  c #4E321C",
"2  c #553116",
"3  c #593316",
"4  c #55331A",
"5  c #5B351B",
"6  c #5B391E",
"7  c #623516",
"8  c #633B1D",
"9  c #723A1A",
"0  c #4D3A2B",
"q  c #533723",
"w  c #563822",
"e  c #5B3B23",
"r  c #5B362F",
"t  c #5C3E2A",
"y  c #633E24",
"u  c #683F22",
"i  c #623F29",
"p  c #773E20",
"a  c #723C2E",
"s  c #73431B",
"d  c #78451F",
"f  c #5F442E",
"g  c #5B4330",
"h  c #644126",
"j  c #6C4325",
"k  c #6F4827",
"l  c #64422A",
"z  c #6E452A",
"x  c #6F4829",
"c  c #734525",
"v  c #7B4722",
"b  c #734927",
"n  c #7C4A23",
"m  c #724629",
"M  c #734A2C",
"N  c #7B4D2C",
"B  c #7D502E",
"V  c #654936",
"C  c #6C4C33",
"Z  c #7D4732",
"A  c #754D32",
"S  c #7B4C32",
"D  c #744E3A",
"F  c #62503E",
"G  c #69523F",
"H  c #765034",
"J  c #7D5233",
"K  c #765039",
"L  c #7B553A",
"P  c #785B3F",
"I  c #6D5942",
"U  c #6A514C",
"Y  c #665543",
"T  c #775B44",
"R  c #7B5A40",
"E  c #7E6144",
"W  c #72604D",
"Q  c #7E6B55",
"!  c #7E6764",
"~  c #81421F",
"^  c #824C23",
"/  c #824E2A",
"(  c #8F4E28",
")  c #845027",
"_  c #84522C",
"`  c #8B552C",
"'  c #8E592F",
"]  c #925425",
"[  c #935A2E",
"{  c #804731",
"}  c #824F30",
"|  c #855533",
" . c #895631",
".. c #855936",
"X. c #8C5A34",
"o. c #855739",
"O. c #855B3B",
"+. c #8B5D3B",
"@. c #955D34",
"#. c #9A5E32",
"$. c #935F39",
"%. c #A65F34",
"&. c #956135",
"*. c #9B6236",
"=. c #94623C",
"-. c #9C653B",
";. c #9E683D",
":. c #A16436",
">. c #AB6734",
",. c #A86937",
"<. c #A3663A",
"1. c #AD663A",
"2. c #A56A3C",
"3. c #AC6E3D",
"4. c #B56F35",
"5. c #B0663A",
"6. c #B16E3C",
"7. c #AE703E",
"8. c #B67037",
"9. c #BB7236",
"0. c #B2713E",
"q. c #BB753D",
"w. c #C1773E",
"e. c #8C5E41",
"r. c #826144",
"t. c #8D6343",
"y. c #816348",
"u. c #8E6548",
"i. c #836A4D",
"p. c #946543",
"a. c #996741",
"s. c #956945",
"d. c #9C6A43",
"f. c #9D6E48",
"g. c #9D714C",
"h. c #876F5B",
"j. c #886F5C",
"k. c #986F50",
"l. c #87705C",
"z. c #8A745F",
"x. c #947051",
"c. c #9B7251",
"v. c #A56D42",
"b. c #AC6F40",
"n. c #A26F4B",
"m. c #A47145",
"M. c #AD7142",
"N. c #A4744D",
"B. c #AC754A",
"V. c #AF794E",
"C. c #B37543",
"Z. c #BA7643",
"A. c #B57845",
"S. c #BA7843",
"D. c #B27649",
"F. c #B67A4A",
"G. c #BA7B4A",
"H. c #A97954",
"J. c #B97E50",
"K. c #B47C51",
"L. c #867160",
"P. c #8A7460",
"I. c #C37741",
"U. c #C27A43",
"Y. c #C37E4B",
"T. c #BE8050",
"R. c #8E8370",
"E. c #C28048",
"W. c #D6C5BF",
"Q. c #E6E1DC",
"!. c None",
/* pixels */
"!.!.!.!.!.!.!.!.!.!.!.!.!.!.!.!.!.!.!.!.!.!.!.!.!.!.!.!.!.!.!.!.!.!.!.!.!.!.!.!.!.!.!.!.!.!.!.!.!.!.!.!.!.!.!.!.!.!.!.!.!.!.!.!.",
"!.!.!.!.!.!.!.!.!.!.!.!.!.!.!.!.!.!.!.!.!.!.!.!.!.!.!.!.!.!.!.!.!.!.!.!.!.!.!.!.!.!.!.!.!.!.!.!.!.!.!.!.!.!.!.!.!.!.!.!.!.!.!.!.",
"!.!.!.!.!.!.!.!.!.!.!.!.!.!.!.!.!.!.!.!.!.!.!.!.!.!.!.!.!.!.!.!.!.!.!.!.!.!.!.!.!.!.!.!.!.!.!.!.!.!.!.!.!.!.!.!.!.!.!.!.!.!.!.!.",
"!.!.!.!.!.!.!.!.!.Q.Q.Q.Q.Q.Q.Q.Q.Q.Q.Q.Q.!.!.!.!.!.!.!.!.!.!.!.!.!.!.!.!.!.!.!.!.!.!.!.!.!.!.!.!.!.!.!.!.!.!.!.!.!.!.!.!.!.!.!.",
"!.!.!.!.!.W L y.i.y.y.y.E r.e.E E E y.E y.E E y.y.y.y.y.y.y.y.y.y.y.y.y.y.y.y.y.y.y.y.y.E E E E E E r.r.E r.y.y.y.y.y.T I R.!.!.",
"!.!.!.!.!.l 9 _ +.a.;.;.d.d.d.a.-.-.;.;.;.-.-.;.;.d.;.-.;.-.-.;.-.-.-.;.;.-.-.;.;.-.-.-.d.;.;.-.;.;.;.;.;.;.;.2.;.;._ j 6 Q !.!.",
"!.!.!.!.!.M ^ /  .M.I.I.G.Y.E.Y.Z.S.S.Z.Z.A.S.Z.Z.Z.Z.Z.Z.S.S.S.S.S.S.S.S.S.A.S.S.Z.S.Z.S.S.S.S.A.Z.G.S.E.G.Z.I.U.b.) ^ b z.!.!.",
"!.!.!.!.!.H ( / _ 2.I.U.C.b.2.C.U.q.Z.Z.Z.Z.Z.Z.Z.Z.Z.Z.Z.Z.Z.Z.S.S.Z.S.q.Z.S.S.S.S.S.S.S.S.Z.S.S.Z.C.7.2.M.U.U.q.-._ ` N P.!.!.",
"!.!.!.!.!.S :.;.X.) 2.C.` 8 -  .Z.0.7.0.3.7.M.6.6.3.3.3.0.b.6.b.7.0.7.7.6.b.6.3.6.3.3.6.7.7.3.M.0.0.+.f $ B A.7.[ _ @.&.b l.!.!.",
"!.!.!.!.!.S 5.J.B.&.) ;.X.j : ..S.C.M.M.3.C.b.C.0.b.C.D.C.b.C.b.M.M.M.C.C.b.M.D.M.C.C.M.C.M.0.M.C.0.+.V % L ;.) ^ @.v.#.k l.!.!.",
"!.!.!.!.!.D 1.S.A.M.&._ =.;.2.2.2.2.2.2.2.1.2.2.2.1.b.2.2.2.2.2.1.2.<.3.2.2.1.2.1.v.2.2.1.2.2.2.2.2.2.2.2.;.) X.2.C.7.@.M P.!.!.",
"!.!.!.!.!.S 5.B.+.h o.+._ ) ) ) ~ ^ n n / X.+.X.+.X.X.X.X.X.+.X.X.+.X.X.+.X.+.X.X.X.X.X.+.| / n ~ ^ n _ _ ) ....N j &.#.M P.!.!.",
"!.!.!.!.!.S 6.c.F $ G ;.n s d d n n n v c m x b M M b b m b M x M x m M m b m m M M m M m m c n n n n M v n a.M 4 - X.#.M z.!.!.",
"!.!.!.!.!.S 6.k.Y $ H f.) s L =.=.=.s.a.| 6 2 2 2 2 2 2 4 5 4 2 4 4 4 4 2 < 4 5 4 4 4 ; 3 u ..=.=.=.s.t.B ) H.k - $ O.#.b z.!.!.",
"!.!.!.!.!.J 1.B.m.*.2.=.n ) ,.=.C +.C.G.Z.| y j x x l h M H M z z z z x l y S N m m u y N $.D.Z.-.C O.=.&.[ F.7.*.*.2.@.M z.!.!.",
"!.!.!.!.!.S 1.A.A.C.0.=.n B ,.B $ b b.Z.q.D. .m j S M m o.+.J S S S J S M m  . .| M m $.D.G.Z.Z._ $ e B @.@.F.C.7.0.7.&.M z.!.!.",
"!.!.!.!.!.S 1.A.7.7.7.&.B B ;.=.V r.m.C.0.q.q.' m z M v o.X./ N S / N N m c  . ./ j | 0.Z.8.3.D.s.V P t.=.[ F.C.7.8.3.#.M P.!.!.",
"!.!.!.!.!.S 1.A.A.7.0.=.n B ;.N.u.f.7.7.7.q.T.;. .m z c  .o.| N N / N N N c  ._ N c *.U.9.3.3.M.f.u.g.N.=.[ F.0.7.7.3.#.x P.!.!.",
"!.!.!.!.!.S 1.A.M.7.7.&.B B *.0.A.0.7.7.7.7.q.T.C.X.u z o.+.} N S N S N M m J M N ' A.A.0.3.7.3.0.A.A.7.@. .G.0.3.7.3.&.k l.!.!.",
"!.!.!.!.!.A 1.A.A.7.7.*.B n ' ,.8.0.7.7.3.7.7.8.Z.D.o.p } o.S S A N N S Z u c | *.D.C.7.7.7.7.7.8.8.7.;._ ` F.q.4.7.2.[ x h.!.!.",
"!.!.!.!.!.D 1.C.A.7.7.*._ j e +.2.M.m.7.7.3.7.,.b.Z.Z.X.N b N N N N S B m u X.C.Z.C.8.7.7.7.3.7.3.;.=.D 6 _ G.0.4.7.7.[ x l.!.!.",
"!.!.!.!.!.S 1.C.M.7.7.;.| j = u =.m.7.M.7.7.7.7.b.6.Z.B.` v m N N N S N c _ D.G.q.7.7.7.3.7.7.7.2.=.l 1 * | G.C.3.7.3.@.b P.!.!.",
"!.!.!.!.!.S 1.A.A.7.7.;. .b = , L <.7.7.M.7.7.M.b.3.A.G.<.` c M J N M b m :.G.C.3.3.7.7.7.M.7.7.;.B 1 + *  .G.q.6.3.2.&.M z.!.!.",
"!.!.!.!.!.S 1.A.0.7.7.*.X.J y * 5 @.2.2.3.M.7.7.M.b.b.Z.G.D. .m M M j b X.A.A.M.3.3.7.b.7.7.7.2.` 3 - : e  .G.0.6.6.7.@.M z.!.!.",
"!.!.!.!.!.S 1.A.C.7.7.-. .| N y - 6 ..=.,.7.7.7.3.7.7.7.C.S.A.` j z | *.Z.A.b.b.7.3.7.M.3.3.2.+.w : t z m X.F.q.6.7.7.@.x z.!.!.",
"!.!.!.!.!.D 1.A.M.M.7.*. ._ N D e * 2 h X.2.7.3.7.7.3.7.3.0.A.B.` X.D.G.C.6.3.C.M.7.7.7.<.2...4 , m L D m X.G.0.3.8.2.&.M z.!.!.",
"!.!.!.!.!.S 1.Z.C.M.0.*. .N N N k 6 + & f *.2.7.7.M.7.7.3.7.3.C.b.C.Z.Z.7.3.3.3.7.M.7.2.;.X.6 + z ` } M m ' G.0.3.7.2.@.M P.!.!.",
"!.!.!.!.!.S 1.A.M.3.C.*. .S M N M k 1 * > | <.2.3.7.3.7.3.7.3.3.A.G.D.b.3.0.3.M.7.0.7.-.+.M ; # H [ N m m ' A.C.8.7.M.@.M z.!.!.",
"!.!.!.!.!.S 1.A.A.7.7.-.| B M N b J H l = 6 X.2.3.3.7.7.7.3.3.3.A.C.7.3.3.7.7.7.M.3.2. .8 ; * e o.` N M c  .F.C.3.7.3.@.x l.!.!.",
"!.!.!.!.!.H 1.Z.A.7.7.-._ B N A b B +.O.y * 6 | -.2.7.7.3.3.0.C.C.7.3.3.7.7.7.7.3.v.X.5 * ; l z |  .S A m X.G.0.3.7.3.@.x z.!.!.",
"!.!.!.!.!.D 1.A.M.7.7.*. .B N A m N ..X.N l - > y +.<.3.3.C.D.C.7.3.0.7.7.3.3.,.<. .4 : y m N m |  .S M x X.F.0.3.7.3.[ k l.!.!.",
"!.!.!.!.!.S 1.A.A.7.M.-. .B N N m N  . .N J e X + 8 &.3.A.A.C.3.7.3.3.7.7.3.2.*.` 5 * y S L N z }  .N C k X.F.8.4.7.3.@.k l.!.!.",
"!.!.!.!.!.D 1.Z.C.3.b.-.| _ N A m N o.o.N | m : X ,  .7.S.S.C.3.3.3.b.b.C.3.:.@.N ; = b | J S z } | S M x X.Z.6.6.6.3.@.j h.!.!.",
"!.!.!.!.!.S 1.D.C.C.b.*.| N M A m / o.o.M N | l q 4 @.A.A.0.3.7.3.C.C.b.1.*.<.$.N 4 f N S N M z | _ S M m X.G.C.6.6.3.@.k h.!.!.",
"!.!.!.!.!.S 1.Z.A.7.6.*.` B M S m N o. .N S A l j @.C.C.0.3.3.7.3.7.M.b.-.-.M.A.M. .x N J B N x J  .S M j ' G.0.6.0.3.@.k l.!.!.",
"!.!.!.!.!.D 1.C.A.7.0.-.| B N N c N  . .N m b _ -.D.C.7.7.7.7.3.7.3.-.*.<.3.3.C.A.D. .m M S M m | _ S A m X.F.C.6.7.3.[ M z.!.!.",
"!.!.!.!.!.S 3.A.M.M.7.-. .B N S m N  .o.N j | M.S.Z.b.b.3.7.7.M.7.;.*.;.,.6.3.3.b.Z.D.S a m A m | | B M x  .S.q.8.7.3.' M P.!.!.",
"!.!.!.!.!.H 1.A.M.7.7.-.| B M N m N o.o.b c *.G.E.C.3.6.M.7.M.7.2.*.<.<.b.C.M.3.3.Z.G.@.m u m m | _ S b m X.G.0.7.7.2.&.x P.!.!.",
"!.!.!.!.!.S ,.C.A.M.7.-. .B M N m N o.L c @.D.S.C.6.b.b.7.7.M.3.<.<.2.7.M.3.7.7.b.6.C.A.@./ z u | ` S C x X.G.0.7.7.3.&.M P.!.!.",
"!.!.!.!.!.S 1.C.A.7.0.*.| N N S m m n N +.D.Z.0.3.6.b.b.M.7.3.<.@.@.;.3.3.M.M.7.6.b.b.A.G.B. .u J  .S M z ` A.C.7.7.3.&.M P.!.!.",
"!.!.!.!.!.S 1.A.M.7.7.*.| B N A z l } *.Z.A.6.3.3.7.7.M.7.3.,. .4 w ..*.,.7.M.7.7.M.M.3.C.Z.Z. .N | S A b X.F.0.3.8.3.[ M z.!.!.",
"!.!.!.!.!.S 1.A.A.7.7.-.| N N N j _ B.J.Z.b.6.b.b.3.C.3.3.2.=.u X + 4 k =.2.7.M.M.7.7.3.3.6.Z.B._ m S S m  .G.C.3.7.3.&.M z.!.!.",
"!.!.!.!.!.S 1.A.A.7.0.*. .B N m c *.J.G.C.3.3.M.3.M.7.b.2.-.L ; * & * 5 L 2.3.M.M.M.3.3.3.3.D.G.@.c m C x X.G.0.7.7.3.[ M P.!.!.",
"!.!.!.!.!.S 1.A.C.M.6.-. .J b m @.Z.Z.D.3.3.3.C.7.M.7.2.=.J 4 * l l ; + w  .2.2.7.0.7.M.3.3.3.A.A.X.m j j X.F.C.3.8.,.@.M z.!.!.",
"!.!.!.!.!.D >.Z.A.7.7.-. .N z X.D.A.6.3.3.3.7.M.B.3.<.X.8 ; - l B B x e - 4 X.2.,.3.M.3.7.7.3.M.C.D.$.} u  .G.q.7.8.3.@.x l.!.!.",
"!.!.!.!.!.S 1.A.C.M.7.&.n m X.D.Z.0.3.3.7.7.7.7.3.2.X.4 * > j S N B B H h * 5  .;.2.3.M.7.7.7.M.6.Z.J.N._ ` F.0.4.7.2.[ k z.!.!.",
"!.!.!.!.!.D 1.D.B.M.3.=.N / b.U.9.0.7.7.0.M.7.6.,.*.6 @ e H | N N N B B N q @ 6 M *.1.b.M.7.3.7.4.w.U.Z.&.X.F.0.7.7.m.&.M z.!.!.",
"!.!.!.!.!.S 1.F.M.M.3.@.N _ b.q.6.C.7.7.7.M.3.,.:._ - : C O.| N S N N B N l - - 4 | <.b.M.0.7.7.7.0.S.Z.2.X.F.0.7.7.3.&.M P.!.!.",
"!.!.!.!.!.S 1.A.C.0.7.&.n _ 2.d.r.;.M.C.6.3.v.$.} 4 & 8 o.+.| N N N N A N m x > & 5 ..1.3.3.6.C.v.r.s.d.&.' F.q.4.3.,.@.M P.!.!.",
"!.!.!.!.!.S 1.A.A.0.0.=.N _ 2.M % b m.S.8.<.X.8 = = e M o. .N N S N N N M m | S h * 6  .<.2.b.Z._ % e B &.[ G.C.0.C.3.@.M z.!.!.",
"!.!.!.!.!.S 5.F.m.2.m.=.B ) ,.+.t X.M.C.,. .q @ - l M m o.o.N N A N N S M z |  ._ y * 6 | =.<.0.=.t K t.&.[ F.B.2.;.v.#.k l.!.!.",
"!.!.!.!.!.S 6.n.P 1 J ;.) n ;.N.N.N.m.3.[ 7 X 4 l S m c |  .N M N M N M m j | | _ A w & 3 m @.v.N.N.H.N.@.[ K.` 7 2 +.#.b l.!.!.",
"!.!.!.!.!.S 6.k.Y o x f.) d @.v.B.v.;.=./ , = u S J m c } o.N M M N M N m c N } } S x = , 7 | =.v.B.B.f.` ` D.b &   L #.b l.!.!.",
"!.!.!.!.!.S 6.c.I % K s.B d _ ` ( ` ` | N M N |  . .| }  . .| | | _ | | | /  . . .| | A M b _ _ ] ] '  ./ ^ d.N 2 : ..#.b l.!.!.",
"!.!.!.!.!.H 1.S.M.3.=.) X.*.M.B.b.b.b.b.D.C.A.D.D.D.D.C.D.D.D.D.D.C.B.C.A.D.B.D.D.D.D.A.D.B.M.M.B.b.B.B.B.&./ +.;.2.3.@.x P.!.!.",
"!.!.!.!.!.H 1.G.D.;.) &.+.M 6 &.C.D.D.C.6.b.0.C.C.3.6.b.6.b.6.6.3.b.C.6.b.6.6.b.6.6.C.b.C.0.0.7.0.0.=.A y | $./ _ 2.M.&.M P.!.!.",
"!.!.!.!.!.S 1.V.s.) X.M.B 2 . n w.6.b.6.8.7.7.3.8.3.7.8.6.3.0.6.0.3.7.7.6.8.7.3.6.6.7.8.7.3.3.7.8.8.L 0   m B.#.^ _ n.:.c h.!.!.",
"!.!.!.!.!.S %.v.+.B -.A.` 8 # ' w.0.0.6.7.M.M.7.7.7.7.3.8.0.7.3.7.6.7.7.7.7.7.7.3.6.7.7.7.7.7.M.8.8.O.g : N F.1.[ B =.#.M j.!.!.",
"!.!.!.!.!.H ` ` _ &.M.A.2.*.&.2.b.b.b.B.7.M.M.M.7.M.M.b.b.b.b.0.M.M.M.M.M.b.7.7.C.b.b.b.7.7.7.M.M.M.v.-.@.;.D.C.3.@.` @.H P.!.!.",
"!.!.!.!.!.C p _ X.;.&.&.-.*.;.&.$.@.@.$.@.@.@.@.@.@.@.@.$.@.$.$.@.@.@.@.@.$.@.@.@.@.@.$.@.@.@.@.@.@.&.*.-.*.@.#.&.*._ c l L.!.!.",
"!.!.!.!.!.U a S S { { { N J S S { S { { S { { S S S { Z S { Z { { { S { S Z { Z S { Z { S Z S S S S S Z S S Z S S S S a r ! !.!.",
"!.!.!.!.!.!.!.!.!.!.!.!.!.!.!.!.!.!.!.!.!.!.!.!.!.!.!.!.!.!.!.!.!.W.W.W.W.W.W.W.W.W.W.W.W.W.W.W.!.!.!.!.!.!.!.!.!.!.!.!.!.!.!.!.",
"!.!.!.!.!.!.!.!.!.!.!.!.!.!.!.!.!.!.!.!.!.!.!.!.!.!.!.!.!.!.!.!.!.!.!.!.!.!.!.!.!.!.!.!.!.!.!.!.!.!.!.!.!.!.!.!.!.!.!.!.!.!.!.!.",
"!.!.!.!.!.!.!.!.!.!.!.!.!.!.!.!.!.!.!.!.!.!.!.!.!.!.!.!.!.!.!.!.!.!.!.!.!.!.!.!.!.!.!.!.!.!.!.!.!.!.!.!.!.!.!.!.!.!.!.!.!.!.!.!."
};
