/* XPM */
static char *result[] = {
/* columns rows colors chars-per-pixel */
"64 64 13 1 ",
"  c #AA8347",
". c #D2B66B",
"X c #91CC67",
"o c #AEDC6C",
"O c #B6DD6C",
"+ c #BFDF6D",
"@ c #DDCD75",
"# c #C6E57B",
"$ c #5DAACE",
"% c #68BDD5",
"& c #D7F089",
"* c #82DCDF",
"= c #A8F0ED",
/* pixels */
"%%%%**%%%%%%%%%%%%%%%**********************%%%%%%%%%%%%%****%%%%",
"%%****%%%%%%%%%%%%%************%%%%%%%%%%**%%%%%%%%%%%%%****%%%%",
"%%****%%%%%%%%%%%%%************%%%%%%%%%%**%%%%%%%%%%%%%****%%%%",
"********%%%%%%%%%************%%%%%%%%%%%%%%**%%%%%%%%%********%%",
"********%%%%%%%%%************%%%%%%%%%%%%%%**%%%%%%%%%********%%",
"**%%%%%%*********************%%%%%%%%%%%%%%%%*******************",
"**%%%%%%*********************%%%%%%%%%%%%%%%%*******************",
"**%%%%%%%%*******************%%%%%%%%%%%%%%%%%%*****************",
"**%%%%%%%%*******************%%%%%%%%%%%%%%%%%%*****************",
"**%%%%%%%%%%*********%%%%%%**%%%%%%%%%%%%%%%%%%*****************",
"**%%%%%%%%%%*********%%%%%%**%%%%%%%%%%%%%%%%%%*****************",
"====**%%%%*********%%%%%%%%%%**%%%%%%%%%%%%%%%%*****%%%%%%%%%%**",
"====**%%%%*********%%%%%%%%%%**%%%%%%%%%%%%%%%%*****%%%%%%%%%%**",
"======*************%%%%%%%%%%%%**%%%%%%%%%%%%*****%%%%%%%%%%%%%%",
"======*************%%%%%%%%%%%%**%%%%%%%%%%%%*****%%%%%%%%%%%%%%",
"$$$$======*********%%%%%%%%%%%%****%%%%%%%%*******%%%%%%%%%%%%%%",
"$$$$======*********%%%%%%%%%%%%****%%%%%%%%*******%%%%%%%%%%%%%%",
"$$$$======*********%%%%%%%%%%%%****%%%%%%%%*******%%%%%%%%%%%%%%",
"@@@@$$===========**%%%%%%%%%%%%*******************%%%%%%%%%%%%%%",
"@@@@$$===========**%%%%%%%%%%%%*******************%%%%%%%%%%%%%%",
"@@@@@@$$$$=========**%%%%%%%%************%%%%%%*****%%%%%%%%%%**",
"@@@@@@$$$$=========**%%%%%%%%************%%%%%%*****%%%%%%%%%%**",
"@@@@@@@@@@$$$$$$$====******************%%%%%%%%%%%**************",
"@@@@@@@@@@$$$$$$$====******************%%%%%%%%%%%**************",
"    ..@@@@.......$$====******%%%%%%%%**%%%%%%%%%%%********%%%%%%",
"    ..@@@@.......$$====******%%%%%%%%**%%%%%%%%%%%********%%%%%%",
"oooo    @@.........$$====**%%%%%%%%%%%%**%%%%%%*********%%%%%%%%",
"oooo    @@.........$$====**%%%%%%%%%%%%**%%%%%%*********%%%%%%%%",
"ooooXXXX  ...........$$====%%%%%%%%%%%%%%***************%%%%%%%%",
"ooooXXXX  ...........$$====%%%%%%%%%%%%%%***************%%%%%%%%",
"&&&&XXXXXX         ..@@$$====%%%%%%%%%%%%%%****%%%%%%%**%%%%%%%%",
"&&&&XXXXXX         ..@@$$====%%%%%%%%%%%%%%****%%%%%%%**%%%%%%%%",
"++++&&XXXXooooooooo  @@@@$$====%%%%%%%%%%%%**%%%%%%%%%%%****%%%%",
"++++&&XXXXooooooooo  @@@@$$====%%%%%%%%%%%%**%%%%%%%%%%%****%%%%",
"++OOOO&&&&oooooooXXXX  @@@@$$====%%%%%%%%**%%%%%%%%%%%%%%%******",
"++OOOO&&&&oooooooXXXX  @@@@$$====%%%%%%%%**%%%%%%%%%%%%%%%******",
"++OO####OO&&&&&&&XXXX  @@@@$$$$====%%%%****%%%%%%%%%%%%%%%******",
"++OO####OO&&&&&&&XXXX  @@@@$$$$====%%%%****%%%%%%%%%%%%%%%******",
"++OOOOOO######&&&XXXX  @@......$$====********%%%%%%%%%%%********",
"++OOOOOO######&&&XXXX  @@......$$====********%%%%%%%%%%%********",
"++++++++++OOOO&&&XXXX  ..........$$====*************************",
"++++++++++OOOO&&&XXXX  ..........$$====*************************",
"++++++++++ooOO###&&XXXX        ....$$====******%%%%%%%%%%%******",
"++++++++++ooOO###&&XXXX        ....$$====******%%%%%%%%%%%******",
"++oo++OOoo##OO+++++&&XXXXXXXXXX  ..@@$$==****%%%%%%%%%%%%%%%****",
"++oo++OOoo##OO+++++&&XXXXXXXXXX  ..@@$$==****%%%%%%%%%%%%%%%****",
"++OOOO####ooOOOOO##++&&XXXXXXXXoo  @@$$====**%%%%%%%%%%%%%%%**%%",
"++OOOO####ooOOOOO##++&&XXXXXXXXoo  @@$$====**%%%%%%%%%%%%%%%**%%",
"++OOOO####ooOOOOO##++&&XXXXXXXXoo  @@$$====**%%%%%%%%%%%%%%%**%%",
"++######ooOO##OOO++##++&&&&&&oooo  @@@@$$====%%%%%%%%%%%%%%%**%%",
"++######ooOO##OOO++##++&&&&&&oooo  @@@@$$====%%%%%%%%%%%%%%%**%%",
"++OOOOOOOO##OO+++++oooo++OO&&oooo  @@@@$$**==**%%%%%%%%%%%%%**%%",
"++OOOOOOOO##OO+++++oooo++OO&&oooo  @@@@$$**==**%%%%%%%%%%%%%**%%",
"++####oo##OO+++++oo####ooOO&&oooo  @@@@..$$====%%%%%%%%%%%******",
"++####oo##OO+++++oo####ooOO&&oooo  @@@@..$$====%%%%%%%%%%%******",
"++oooo##oo+++++++oooooo##oo++&&XXXX  ......$$==*****************",
"++oooo##oo+++++++oooooo##oo++&&XXXX  ......$$==*****************",
"++##oooooo+++++++##++++OO##OO&&XXXXXX  ....$$=====**********%%%%",
"++##oooooo+++++++##++++OO##OO&&XXXXXX  ....$$=====**********%%%%",
"++oooo##oo+++++++++++++OOOOOOOO&&XXXX  ......$$=====******%%%%%%",
"++oooo##oo+++++++++++++OOOOOOOO&&XXXX  ......$$=====******%%%%%%",
"++####oo+++++++++++++oo##OOOO####&&XXXX  ......$$$==******%%%%%%",
"++####oo+++++++++++++oo##OOOO####&&XXXX  ......$$$==******%%%%%%",
"+++++++++++++++++++++++++++++++++++&&XX  ......$$$====****%%%%%%"
};
