/* XPM */
static char *result[] = {
/* columns rows colors chars-per-pixel */
"64 64 14 1 ",
"  c #AA8347",
". c #C2A25D",
"X c #D2B66B",
"o c #91CC67",
"O c #AEDC6C",
"+ c #B6DD6C",
"@ c #BFDF6D",
"# c #DDCD75",
"$ c #C6E57B",
"% c #5DAACE",
"& c #68BDD5",
"* c #D7F089",
"= c #82DCDF",
"- c #A8F0ED",
/* pixels */
"$$OO$$OO$$++$$+++OO@@@@++++++@@@@++@@++$$++$$OO@@@$$$$$$@@@@@@$$",
"$$OO$$OO$$++$$+++OO@@@@++++++@@@@++@@++$$++$$OO@@@$$$$$$@@@@@@$$",
"$$OOOOOO$$++$$+++@@@@@@++$$++@@++$$++$$$$@@OO$$OOO$$OO$$@@@@@@OO",
"$$OOOOOO$$++$$+++@@@@@@++$$++@@++$$++$$$$@@OO$$OOO$$OO$$@@@@@@OO",
"OO$$OO$$OO++$$$$$++@@@@++$$$$@@++@@OO$$OO@@@@OOOOOOOOO$$OO$$@@OO",
"OO$$OO$$OO++$$$$$++@@@@++$$$$@@++@@OO$$OO@@@@OOOOOOOOO$$OO$$@@OO",
"@@OOOOOO$$++OO$$$OO@@@@$$++@@$$@@OO$$OO@@$$@@OOOOO@@@@OOOO$$OO$$",
"@@OOOOOO$$++OO$$$OO@@@@$$++@@$$@@OO$$OO@@$$@@OOOOO@@@@OOOO$$OO$$",
"@@@@@@@@++$$++OOO$$OO++$$$$@@$$$$OOOOOOOO@@@@@@@@@@@@@@@@@$$OOOO",
"@@@@@@@@++$$++OOO$$OO++$$$$@@$$$$OOOOOOOO@@@@@@@@@@@@@@@@@$$OOOO",
"@@@@@@@@@@++$$+++++++++$$$$@@OOOO@@OO$$OO@@@@@@OOOOO@@@@$$++++$$",
"@@@@@@@@@@++$$+++++++++$$$$@@OOOO@@OO$$OO@@@@@@OOOOO@@@@$$++++$$",
"@@@@@@@@@@@@+++++@@$$++++++++$$OO@@OO$$OO@@@@OO$$$OO@@$$++++++++",
"@@@@@@@@@@@@+++++@@$$++++++++$$OO@@OO$$OO@@@@OO$$$OO@@$$++++++++",
"@@@@$$OOOO@@@@$$$@@++++++$$$$OO@@@@@@OO$$++++$$$$$@@OOOO@@++$$++",
"@@@@$$OOOO@@@@$$$@@++++++$$$$OO@@@@@@OO$$++++$$$$$@@OOOO@@++$$++",
"@@@@$$OOOO@@@@$$$@@++++++$$$$OO@@@@@@OO$$++++$$$$$@@OOOO@@++$$++",
"@@@@@@OO$$OO$$@@@@@$$++$$++OO@@@@@@++++OO$$+++++++++$$OO@@@@$$OO",
"@@@@@@OO$$OO$$@@@@@$$++$$++OO@@@@@@++++OO$$+++++++++$$OO@@@@$$OO",
"OO@@@@OO$$OO@@@@@OO$$++$$++@@++++++++$$@@++++++$$$$$OO@@@@$$@@OO",
"OO@@@@OO$$OO@@@@@OO$$++$$++@@++++++++$$@@++++++$$$$$OO@@@@$$@@OO",
"$$++++$$OO@@@@OOO$$OO@@$$$$++$$$$++++$$****OO$$@@@OO@@@@@@OOOOOO",
"$$++++$$OO@@@@OOO$$OO@@$$$$++$$$$++++$$****OO$$@@@OO@@@@@@OOOOOO",
"++++$$OO++++@@OOOOO@@@@@@**OOOO++$$@@**OOOO**OO$$$++++++$$$$@@++",
"++++$$OO++++@@OOOOO@@@@@@**OOOO++$$@@**OOOO**OO$$$++++++$$$$@@++",
"++++$$**$$+++++++OO$$$$**oo**OO$$OO**ooOOOOOO***************++$$",
"++++$$**$$+++++++OO$$$$**oo**OO$$OO**ooOOOOOO***************++$$",
"$$OO**oo**++++$$$@@++**ooooOO******ooooOOOOOOoooooooooooooOO**OO",
"$$OO**oo**++++$$$@@++**ooooOO******ooooOOOOOOoooooooooooooOO**OO",
"OO**ooooOO**$$$$$++**ooooooOOOOOOOOoooooo    oooooooooooooOOOO**",
"OO**ooooOO**$$$$$++**ooooooOOOOOOOOoooooo    oooooooooooooOOOO**",
"**ooooooOOOO*******oooooo  OOOOOOOOoo    ....             OOOOOO",
"**ooooooOOOO*******oooooo  OOOOOOOOoo    ....             OOOOOO",
"OOooooooOOOOOOOOOoooooo  ..          XXXX######XXXXXXXXXXX  OOOO",
"OOooooooOOOOOOOOOoooooo  ..          XXXX######XXXXXXXXXXX  OOOO",
"oo          OOOOOOOoo  XXXXXX######XXXXXX#########XXXXXX####  OO",
"oo          OOOOOOOoo  XXXXXX######XXXXXX#########XXXXXX####  OO",
"  XXXX######         XXXXXX########XXXXXX#########XXXXXX######  ",
"  XXXX######         XXXXXX########XXXXXX#########XXXXXX######  ",
"XXXXXX#############XXXXXXXX########XXXXXX#########XXXXXX########",
"XXXXXX#############XXXXXXXX########XXXXXX#########XXXXXX########",
"XXXXXX#############XXXXXXXX########XXXX%%%%%%%%XXXXXXXXX########",
"XXXXXX#############XXXXXXXX########XXXX%%%%%%%%XXXXXXXXX########",
"XXXXXX#############XXXXXXXX%%%%%%%%%%%%==----==%%%%%%%%%XX######",
"XXXXXX#############XXXXXXXX%%%%%%%%%%%%==----==%%%%%%%%%XX######",
"XXXX%%%%%%%%#######XXXX%%%%====-----------------------==%%%%XX##",
"XXXX%%%%%%%%#######XXXX%%%%====-----------------------==%%%%XX##",
"%%%%==----==%%%%%%%%%%%==--------======--------=====------==%%%%",
"%%%%==----==%%%%%%%%%%%==--------======--------=====------==%%%%",
"%%%%==----==%%%%%%%%%%%==--------======--------=====------==%%%%",
"--------====-------------====&&&&&&==========&&&&&&&==----------",
"--------====-------------====&&&&&&==========&&&&&&&==----------",
"----======&&=====----====&&&&&&&&&&========&&&&&&&&&&&======&&==",
"----======&&=====----====&&&&&&&&&&========&&&&&&&&&&&======&&==",
"==========&&&&&&&&&&&&&==&&&&&&&&==========&&&&&&&&&&&========&&",
"==========&&&&&&&&&&&&&==&&&&&&&&==========&&&&&&&&&&&========&&",
"==========&&&&&&&&&&&&&====&&&&==&&&&&&====&&&&&&&&&&&==========",
"==========&&&&&&&&&&&&&====&&&&==&&&&&&====&&&&&&&&&&&==========",
"&&&&&&======&&&&&&&&&============&&&&&&&&==&&&&&&&&&&&==========",
"&&&&&&======&&&&&&&&&============&&&&&&&&==&&&&&&&&&&&==========",
"&&&&&&&&=======================&&&&&&&&&&==&&&&&&&&&&&========&&",
"&&&&&&&&=======================&&&&&&&&&&==&&&&&&&&&&&========&&",
"&&&&&&&&====&&&&&&&============&&&&&&&&&&====&&&&&&&========&&&&",
"&&&&&&&&====&&&&&&&============&&&&&&&&&&====&&&&&&&========&&&&"
};
