/* XPM */
static char *result[] = {
/* columns rows colors chars-per-pixel */
"64 64 7 1 ",
"  c #97CE66",
". c #AEDC6C",
"X c #B6DD6C",
"o c #BFDF6D",
"O c #C6E57B",
"+ c #E9B184",
"@ c #FFFAA2",
/* pixels */
".OOOO..ooXXXXoo..OOOOXXOO....OOOO..OO..OOoo....oooo..OOOOXXOOo..",
".OOOO..ooXXXXoo..OOOOXXOO....OOOO..OO..OOoo....oooo..OOOOXXOOo..",
"O....OO..OOXXXX......XXOO..OO....OO..oo......OO..oo....OOXXOO.OO",
"O....OO..OOXXXX......XXOO..OO....OO..oo......OO..oo....OOXXOO.OO",
"ooooo....XXXXOOOOoo..OO..ooXXOO..ooXX..OO..oo..OOXXOOOO..OO..Ooo",
"ooooo....XXXXOOOOoo..OO..ooXXOO..ooXX..OO..oo..OOXXOOOO..OO..Ooo",
"oooOOOOOOXXXXXXooOO....ooOOXXOOXXXXOOOO....ooooXXXXXXOO....oo.oo",
"oooOOOOOOXXXXXXooOO....ooOOXXOOXXXXOOOO....ooooXXXXXXOO....oo.oo",
"ooo....ooOOXXooooooooooooOOXXXXOOOOOO..oo..oo..OOOOXXOOOO..ooooo",
"ooo....ooOOXXooooooooooooOOXXXXOOOOOO..oo..oo..OOOOXXOOOO..ooooo",
"OOOOO..ooooOO....ooooooooXXXXXXXXXXoooo..OO..OO..OOXXoo..OO..oOO",
"OOOOO..ooooOO....ooooooooXXXXXXXXXXoooo..OO..OO..OOXXoo..OO..oOO",
"O....oooooooo..OO..ooooooXXOOXXOOOO..oooo......oo..OO..oo....OOO",
"O....oooooooo..OO..ooooooXXOOXXOOOO..oooo......oo..OO..oo....OOO",
"OOO..oooo....ooXXOO..oo..XXoooooo..OO..oo..OO..oo..OO..oooooooOO",
"OOO..oooo....ooXXOO..oo..XXoooooo..OO..oo..OO..oo..OO..oooooooOO",
"o......oo..OOOOXXOOoo..OOOO..oooooo....oo..OO..oooo....ooooooooo",
"o......oo..OOOOXXOOoo..OOOO..oooooo....oo..OO..oooo....ooooooooo",
".OO....oooo..OOXXXXOOOOOO..oo....OO..oo..OO....ooooOOOOXXooooo..",
".OO....oooo..OOXXXXOOOOOO..oo....OO..oo..OO....ooooOOOOXXooooo..",
"O..ooooooooooXXXXXXXX....oo..OOOO..ooooOOOOOOOO..ooooooXXOOXXOOO",
"O..ooooooooooXXXXXXXX....oo..OOOO..ooooOOOOOOOO..ooooooXXOOXXOOO",
"XooooOO@@@@@@@@OOXXOOOO......OOOOOOoooo@@@@....OO..OOooXXXXXXXXX",
"XooooOO@@@@@@@@OOXXOOOO......OOOOOOoooo@@@@....OO..OOooXXXXXXXXX",
"OOO..@@@@++++@@@@oo......OO..XXXXooOOoo@@@@oooo..OO..ooOOXXXXOOO",
"OOO..@@@@++++@@@@oo......OO..XXXXooOOoo@@@@oooo..OO..ooOOXXXXOOO",
"XOOOO@@@@++++@@@@OOXXOOOO..ooXXXXXXXXoo    oooo..OO..ooOOXXOOXXX",
"XOOOO@@@@++++@@@@OOXXOOOO..ooXXXXXXXXoo    oooo..OO..ooOOXXOOXXX",
"oXX..  @@@@@@@@  XXXXXXXXooooXXooooOOOO....ooOOOO....ooooXXOO.oo",
"oXX..  @@@@@@@@  XXXXXXXXooooXXooooOOOO....ooOOOO....ooooXXOO.oo",
"XOOoo..        ooXXXXOOOOOO..ooooOOOOoo..OO..oooooooo....OO..OXX",
"XOOoo..        ooXXXXOOOOOO..ooooOOOOoo..OO..oooooooo....OO..OXX",
"oXXXXooOO....ooooXXOOXXXXOOOO..ooooooooooXXOO..ooXX..OO....ooooo",
"oXXXXooOO....ooooXXOOXXXXOOOO..ooooooooooXXOO..ooXX..OO....ooooo",
"oooooOOOO..OO..ooXXOOoo......OO..ooooOOOOXXOOXXXXOOOO..oooo...oo",
"oooooOOOO..OO..ooXXOOoo......OO..ooooOOOOXXOOXXXXOOOO..oooo...oo",
"XXXOOooooooXXOO..ooXX..OO..oo....ooooooOOXXXXOOOOOO..oooo..OO.XX",
"XXXOOooooooXXOO..ooXX..OO..oo....ooooooOOXXXXOOOOOO..oooo..OO.XX",
"XOOOOXXOOOOXXOOXXXXOOOO..OOooooXXXXooXXXXXXXXXXXXooooooOOOO..oXX",
"XOOOOXXOOOOXXOOXXXXOOOO..OOooooXXXXooXXXXXXXXXXXXooooooOOOO..oXX",
"XXXXXOOOOOOXXXXOOOOOO..ooooooXXOOXXooXXXXOOXXOOOO..ooOOOOOOOO.XX",
"XXXXXOOOOOOXXXXOOOOOO..ooooooXXOOXXooXXXXOOXXOOOO..ooOOOOOOOO.XX",
"oooooooXXXXXXXXXXXXoooo..ooOOOOXXooooXXXXoooooo..OO..oooo....Ooo",
"oooooooXXXXXXXXXXXXoooo..ooOOOOXXooooXXXXoooooo..OO..oooo....Ooo",
"ooooooo..XXOOXXOOOO..ooOO..OO@@@@@@@@..XXoooooooo....oooo..OO.oo",
"ooooooo..XXOOXXOOOO..ooOO..OO@@@@@@@@..XXoooooooo....oooo..OO.oo",
".ooXX..OOXX@@@@@@@@OO..XXOO@@@@++++@@@@oooo....ooooOOooooooXXO..",
".ooXX..OOXX@@@@@@@@OO..XXOO@@@@++++@@@@oooo....ooooOOooooooXXO..",
"XXXOOOO..@@@@++++@@@@..XXOO@@@@++++@@@@OOOOOO..ooooooOOooooXXOXX",
"XXXOOOO..@@@@++++@@@@..XXOO@@@@++++@@@@OOOOOO..ooooooOOooooXXOXX",
"OOOOO..XX@@@@++++@@@@ooXXXX  @@@@@@@@  OO....ooooooooOOooooXXXOO",
"OOOOO..XX@@@@++++@@@@ooXXXX  @@@@@@@@  OO....ooooooooOOooooXXXOO",
"XXXXXXXOO  @@@@@@@@  XXXXXXXX        ooOOOO..oooooo....ooXXXXXXX",
"XXXXXXXOO  @@@@@@@@  XXXXXXXX        ooOOOO..oooooo....ooXXXXXXX",
"OOO@@@@XXoo        ..XXOOXXOOOO..oooooooo..OO..oo..OOOO..XXOOXOO",
"OOO@@@@XXoo        ..XXOOXXOOOO..oooooooo..OO..oo..OOOO..XXOOXOO",
"...@@@@oooooo......@@@@oo......OO..ooooOOoo............OO..oo...",
"...@@@@oooooo......@@@@oo......OO..ooooOOoo............OO..oo...",
"O..    ooooooOOoooo@@@@XXOOOO......ooOOOOoooo..OO..ooooXXOOXXOOO",
"O..    ooooooOOoooo@@@@XXOOOO......ooOOOOoooo..OO..ooooXXOOXXOOO",
"...OO..oooooooooooo    XXXX....OO..OO....ooOOoo..OO..ooXXXXXXX..",
"...OO..oooooooooooo    XXXX....OO..OO....ooOOoo..OO..ooXXXXXXX..",
".OOOO..ooXXXXoo..OOOOXXOO....OOOO..OO..OOoo....oooo..OOOOXXOOo..",
".OOOO..ooXXXXoo..OOOOXXOO....OOOO..OO..OOoo....oooo..OOOOXXOOo..",
".OOOO..ooXXXXoo..OOOOXXOO....OOOO..OO..OOoo....oooo..OOOOXXOOo.."
};
