/* XPM */
static char *result[] = {
/* columns rows colors chars-per-pixel */
"64 64 240 2 ",
"   c #000000",
".  c #0A0503",
"X  c #020B02",
"o  c #090A07",
"O  c #170A06",
"+  c #041303",
"@  c #031C03",
"#  c #061909",
"$  c #17110E",
"%  c #1A1A1B",
"&  c #151413",
"*  c #0C0F14",
"=  c #29140C",
"-  c #2A1813",
";  c #381C14",
":  c #3C1C08",
">  c #002D01",
",  c #04270B",
"<  c #003300",
"1  c #06350A",
"2  c #0B3C0A",
"3  c #063706",
"4  c #073B13",
"5  c #152E12",
"6  c #3B3B01",
"7  c #362314",
"8  c #292D13",
"9  c #272728",
"0  c #343233",
"q  c #4A1C1E",
"w  c #47251A",
"e  c #572917",
"r  c #563018",
"t  c #5D2D0A",
"y  c #6A3615",
"u  c #6A3719",
"i  c #753C1D",
"p  c #733A16",
"a  c #652F0F",
"s  c #4C2A21",
"d  c #472620",
"f  c #552A22",
"g  c #453B35",
"h  c #4E362A",
"j  c #693222",
"k  c #683B20",
"l  c #783E21",
"z  c #682623",
"x  c #4F1F20",
"c  c #0D430D",
"v  c #0E4A0E",
"b  c #024C0B",
"n  c #084516",
"m  c #0D5415",
"M  c #0E5B19",
"N  c #0A5617",
"B  c #185613",
"V  c #0F4D13",
"C  c #255416",
"Z  c #0D651D",
"A  c #01731A",
"S  c #007318",
"D  c #156716",
"F  c #296E17",
"G  c #364B24",
"H  c #355420",
"J  c #0C6B23",
"K  c #1C6A27",
"L  c #02732A",
"P  c #0B7629",
"I  c #0C7B29",
"U  c #097626",
"Y  c #107C29",
"T  c #1E7E2D",
"R  c #1A7F37",
"E  c #1A5E23",
"W  c #7C4219",
"Q  c #757B02",
"!  c #4C5823",
"~  c #4E4C30",
"^  c #754220",
"/  c #7B4421",
"(  c #7C4A27",
")  c #7E4F31",
"_  c #536C30",
"`  c #566B2C",
"'  c #3F3F40",
"]  c #414243",
"[  c #484840",
"{  c #585859",
"}  c #745A52",
"|  c #66736A",
" . c #7F635B",
".. c #81351E",
"X. c #844925",
"o. c #87552C",
"O. c #87593A",
"+. c #915E34",
"@. c #986A2A",
"#. c #966C35",
"$. c #9D7439",
"%. c #896735",
"&. c #A5783B",
"*. c #A97532",
"=. c #8B5319",
"-. c #8B5C48",
";. c #9A6D45",
":. c #986B49",
">. c #9E7244",
",. c #857054",
"<. c #A27542",
"1. c #A37B41",
"2. c #A87946",
"3. c #AF7C4E",
"4. c #30871F",
"5. c #0C842B",
"6. c #07852C",
"7. c #10832C",
"8. c #118A2E",
"9. c #148B31",
"0. c #338B21",
"q. c #389B28",
"w. c #298E2E",
"e. c #3CA325",
"r. c #3DA429",
"t. c #3BA92C",
"y. c #449A1E",
"u. c #6FB81C",
"i. c #4D8D26",
"p. c #46992B",
"a. c #6B8E32",
"s. c #41A529",
"d. c #44AA2A",
"f. c #48AC2A",
"g. c #48B52C",
"h. c #4DAA37",
"j. c #4FAD38",
"k. c #4BBF30",
"l. c #7CA639",
"z. c #61A41D",
"x. c #76C21E",
"c. c #4EC731",
"v. c #308C48",
"b. c #6E9571",
"n. c #AD8838",
"m. c #B28F38",
"M. c #87A834",
"N. c #BDA713",
"B. c #C9B60C",
"V. c #CBB80B",
"C. c #C4AA29",
"Z. c #CDB527",
"A. c #E3B837",
"S. c #A6D812",
"D. c #D5C21C",
"F. c #DBCB18",
"G. c #FFFF00",
"H. c #FAF40B",
"J. c #ECF30A",
"K. c #FFFF38",
"L. c #FFFF29",
"P. c #E5D016",
"I. c #AB8245",
"U. c #B68A45",
"Y. c #AA8357",
"T. c #B08A57",
"R. c #918A7B",
"E. c #B99567",
"W. c #AA9675",
"Q. c #B99873",
"!. c #AA8C79",
"~. c #B6A579",
"^. c #C59549",
"/. c #DEAB53",
"(. c #DBA558",
"). c #D6A949",
"_. c #E5BA46",
"`. c #E4AC57",
"'. c #E6B354",
"]. c #F1B255",
"[. c #C29D71",
"{. c #C8A67E",
"}. c #D8BB72",
"|. c #EEB360",
" X c #FCC559",
".X c #E7D54F",
"XX c #F2D163",
"oX c #FFF863",
"OX c #F8EA5C",
"+X c #0F3D9F",
"@X c #1E469C",
"#X c #2A4C9A",
"$X c #334A8A",
"%X c #1D47A1",
"&X c #5570AD",
"*X c #506EB1",
"=X c #586998",
"-X c #00B8FD",
";X c #00A8EE",
":X c #00A0DC",
">X c #00C3FF",
",X c #9A9A9C",
"<X c #8B918D",
"1X c #A8A8A9",
"2X c #A88A87",
"3X c #CCAB87",
"4X c #D0AD85",
"5X c #CFB18B",
"6X c #D5B48B",
"7X c #DBB98F",
"8X c #D6B388",
"9X c #DCBC93",
"0X c #D5B394",
"qX c #C5BE93",
"wX c #E4BE8F",
"eX c #A6CEAF",
"rX c #AED8B8",
"tX c #EFCA9C",
"yX c #E7C69A",
"uX c #F7CF9C",
"iX c #DACFA8",
"pX c #E9D3AA",
"aX c #FBD6A6",
"sX c #F0D4B1",
"dX c #FFE3B6",
"fX c #FFE6BC",
"gX c #FFEABB",
"hX c #EEE0B6",
"jX c #DFC096",
"kX c #B7E3C1",
"lX c #FFECC3",
"zX c #FFE5C9",
"xX c #FFF3CB",
"cX c #FFF7CB",
"vX c #FFFDD1",
"bX c #FFF7EB",
"nX c white",
"mX c #EBE8E7",
"MX c #DEDBD5",
"NX c None",
/* pixels */
"NXNXNXNXNXNXNXNXNXNXNXNXNXNXNXNXNXNXNXNXNXNXNXNXNXNXNXnXnXnXnXnXnXnXnXnXnXNXNXNXNXNXNXNXNXNXNXNXNXNXNXNXNXNXNXNXNXNXNXNXNXNXNXNX",
"NXNXNXNXNXNXNXNXNXNXNXNXNXNXNXNXNXNXNXNXNX&.Y.;.( X._ 9.9.K V C i.h.h.h.h.h.h.h.h.R 9.v.NXNXNXNXNXNXNXNXNXNXNXNXNXNXNXNXNXNXNXNX",
"NXNXNXNXNXNXNXNXNXNXNXNXNXNXNXNXNXNXNXNXNX@.2.#.u i ! L I N 2 < 4.r.q.e.e.e.e.e.r.L L w.NXNXNXNXNXNXNXNXNXNXNXNXNXNXNXNXNXNXNXNX",
"NXNXNXNXNXNXNXNXNXNXNXNXNXNXNXNXNXNXNXNXmX%.:.O.f z G L I N 2 2 0.r.s.s.s.s.s.s.p.J L w.NXNXNXNXNXNXNXNXNXNXNXNXNXNXNXNXNXNXNXNX",
"NXNXNXNXNXNXNXNXNXNXNXNXNXNXNX=.$.$.).A.A.G.G.G.G.G.S.r.h.D 2 4 0.s.s.s.s.s.s.s.s.s.s.e.Z S S S Z NXNXNXNXNXNXNXNXNXNXNXNXNXNXNX",
"NXNXNXNXNXNXNXNXNXNXNXNXNXNXNX@.$.1.'./._.G.G.G.G.G.S.q.d.F 2 1 0.s.s.s.s.s.q.s.s.s.s.s.U P P I A NXNXNXNXNXNXNXNXNXNXNXNXNXNXNX",
"NXNXNXNXNXNXNXNXNXNXNXNXNXNXNX@.>.1.'./._.G.G.G.G.G.S.q.t.F 4 1 0.f.s.s.s.s.s.s.s.s.s.q.U I Y Y A NXNXNXNXNXNXNXNXNXNXNXNXNXNXNX",
"NXNXNXNXNXNXNXNXNXNXNXNX#.@.+.G.G.G.:.>.$.:.:.3.(.(.`.`.].M.d.g.B 1 > q.s.s.s.s.s.s.s.s.s.f.q.P 7.N > > NXNXNXNXNXNXNXNXNXNXNXNX",
"NXNXNXNXNXNXNXNXNXNXNXNX2.<.:.G.G.G.:.1.1.1.1.U.`./././.`.l.t.d.B c 1 q.s.s.s.s.s.s.s.s.s.d.q.I Y Z c < NXNXNXNXNXNXNXNXNXNXNXNX",
"NXNXNXNXNXNXNXNXNXNXNXNXm.n.n.H.H.J.>.2.2.&.$.U._._.).(./.l.t.d.B 2 4 y.s.s.s.s.r.s.s.s.q.p.w.I Y Z c 3 NXNXNXNXNXNXNXNXNXNXNXNX",
"NXNXNXNXNXNXNXNXNXI.@.%.G.G.G.-.:.>.].'./.>.>.C.G.G.D.#.&.a.r.d.B c 3 q.s.s.s.s.s.s.s.q.P P P Y Y Y 7.7.b < @ NXNXNXNXNXNXNXNXNX",
"NXNXNXNXNXNXNXNXNXE.&.:.G.G.G.:.&.&.'.`.).$.>.C.G.G.D.;.<.a.r.d.B 1 1 y.d.s.d.s.s.s.d.r.P P Y Y Y Y Y I M c < NXNXNXNXNXNXNXNXNX",
"NXNXNXNXNXNXNXNXNX3.#.O.G.G.G.3.U.U.m.^.U.T.Y.^.G.G.D.>.2.M.u.x.F B B 4.0.0.0.0.0.0.0.4.P Y Y Y Y Y Y Y M c < NXNXNXNXNXNXNXNXNX",
"NXNXNXNXNXNXNXNXNX-.y z G.G.H.(.`./.e u ) yX0XXXG.G.Z.>.>.P.G.G.x.d.g.v 1 1 1 2 1 2 2 2 Y Y P Y Y Y Y Y M 2 < NXNXNXNXNXNXNXNXNX",
"NXNXNXNXNXNXNXNXNXO.a e G.G.G.(.'.`.r y ) jX5X.XG.G.F.>.>.F.G.G.u.t.g.v c c 2 2 2 2 2 c 7.Y Y Y Y Y Y Y M 2 > NXNXNXNXNXNXNXNXNX",
"NXNXNXNXNXNXNXNXNXNX!.2XD.F.P.2.n.I.>.:.Y.9X6X}.F.F.C.<.>.F.G.G.z.w.q.n c 2 M M M M M M Y Y Y Y Y Y Y Y J M b b.NXNXNXNXNXNXNXNX",
"NXNXNXNXNXNXNXNXNXNXNXNX<.>.<.u u k tX9X9X6X6X[.$.>.>.2.>.F.G.G.p.L Y V 2 2 7.Y Y Y 7.Y Y Y Y Y Y Y Y P Y Y 7.b 3 > NXNXNXNXNXNX",
"NXNXNXNXNXNXNXNXNXNXNXNX&.#.&.i l ( 9X8X6X5X6X[.$.$.$.>.:.F.G.G.y.L I V 2 2 7.7.Y Y Y Y Y Y Y Y Y Y Y Y Y Y Y m 2 > NXNXNXNXNXNX",
"NXNXNXNXNXNXNXNXNXNXNXNXiXiXsXO - 7 yX8X7XpXpX9XE.Q.).D.F.Z.Z.Z.a.` ` F M D M M M Y Y K m M M M M Z Y Y Y Y Y m 2 > NXNXNXNXNXNX",
"NXNXNXNXNXNXNXNXNXNXNXNXNXNXnX      tX8X9XlXlXsX6X6X.XG.G.C.>.>.2.3.3.T I 7.2 2 2 7.Y Y 2 2 2 2 2 m Y Y Y Y Y m 2 > NXNXNXNXNXNX",
"NXNXNXNXNXNXNXNXNXNXNXNXNXNXNX    . aX9XyXvXcXhX3X5X.XG.G.C.>.$.n.2.U.T I 5.2 2 2 7.7.Y 2 c c v c M 7.Y Y Y Y M c < NXNXNXNXNXNX",
"NXNXNXNXNXNXNXNXNXNXNXNXNXNXNX      ;.%.-.~ g ,.fXsXOXG.G.Z.>.I.+.X.o.B m V J Z Z m m V 2 c 2 o + , B V Z Y Y 4 +   NXNXNXNXNXNX",
"NXNXNXNXNXNXNXNXNXNXNXNXNXNXNX      p i r     [ cXzXoXG.G.C.>.I.( i ..2 c 2 7.Y Y 3 c c c c 1     + v 2 Z Y 7.,     NXNXNXNXNXNX",
"NXNXNXNXNXNXNXNXNXNXNXNXNXNXNX      =.W t     g xXzXoXG.G.C.;.I.( ^ ..2 < > A A A > < < c v ,     # v 2 Z 7.8.,     NXNXNXNXNXNX",
"NXNXNXNXNXNXNXNXNXNXNXNX9 9 % 3XQ.Q.$X$X=XmXMXMXfXlX}.n.m.^././.o.^ y Q.~.Q.iXiXiXiXpXqX< v 1     # v c n V B +     NXNXNXNXNXNX",
"NXNXNXNXNXNXNXNXNXNXNXNX      uX9X0X%X#X&XnXnXbXdXlX4X$.<.^./.'.o.^ y 4X7X6XlXlXlXgXgXpX< c 1     + c c 2 c c +     NXNXNXNXNXNX",
"NXNXNXNXNXNXNXNXNXNXNXNX      tX6X5X%X#X&XnXnXbXgXlX8X&.2.^.(.`.+./ p {.4X3XgXgXfXxXvXhX< v <     X V v c 2 2 +     NXNXNXNXNXNX",
"NXNXNXNXNXNXNXNXNXNXNXNXo     tX6X6X@X#X&XnXnXbXdXlXQ.y j V.H.G.6     pXlXfXgXgXlX#.2.#.    ] nXnX,X    n 7.7.,     NXNXNXNXNXNX",
"NXNXNXNXNXNXNXNXNXNXNXNX      tX6X6X#X#X&XnXnXbXdXlX[.y j B.G.G.6     pXlXgXfXgXlX#.1.#.    ' nXNX,X    n 7.7.,     NXNXNXNXNXNX",
"NXNXNXNXNXNXNXNXNXNXNXNX      aXtX9X+X@X*XnXnXbXgXlXQ.y j B.G.G.6     aXgXgXlXxXcX&.U.1.    ' nXNX,X    n 8.8.,     NXNXNXNXNXNX",
"NXNXNXNXNXNXNXNXNXNXNXNXNXNXNX      uXwXwXfXdXdXgXlXQ.y j B.G.G.6     ;X-X>X@.#.*.          ' nXNX,X    @ 2 2 +     NXNXNXNXNXNX",
"NXNXNXNXNXNXNXNXNXNXNXNXNXNXNX      uX6X9XgXfXfXfXxXQ.y j B.G.G.6   . ;X>X>X*.&.I.          ' NXNXNX    , c v +     NXNXNXNXNXNX",
"NXNXNXNXNXNXNXNXNXNXNXNXNXNXNX  o & 9X3X6XlXdXdXfXzXQ.u j B.G.G.6     :X-X-X*.>.1.  . o O X [ NXNXNX  * , 2 c # $   NXNXNXNXNXNX",
"NXNXNXNXNXNXNXNXNXNXNXNXNXNXNXNXNXNX    & wX4X4X3X6X3.u j B.G.G.6                 XX|. XG.G.K.NXNXNXNXNXNX    NXNXNXNXNXNXNXNXNX",
"NXNXNXNXNXNXNXNXNXNXNXNXNXNXNXNXNXNX    % tX7X7X7X9X3.i j B.G.G.6                  X'._.G.G.K.NXNXNXNXNXNX    NXNXNXNXNXNXNXNXNX",
"NXNXNXNXNXNXNXNXNXNXNXNXNXNXNXNXNXNX% 9 ~ Q.W.W.W.~.,.r f N.H.H.6     # # # X X X ^.U.U.L.L.oXNXNXNXNXNXNX9 9 NXNXNXNXNXNXNXNXNX",
"NXNXNXNXNXNXNXNXNXNXNXNXNXNXNXNXNXNXNXNXNX      b < @     %.`.|.7     Y 8.8.c v v     * NXNXNXNXNXNXNXNXNXNXNXNXNXNXNXNXNXNXNXNX",
"NXNXNXNXNXNXNXNXNXNXNXNXNXNXNXNXNXNXNXNXNX    + c c @     #.|. X7     P 5.7.2 c c     % NXNXNXNXNXNXNXNXNXNXNXNXNXNXNXNXNXNXNXNX",
"NXNXNXNXNXNXNXNXNXNXNXNXNXNXNXNXNXNXNX1X<X> , 1 M m n , , ! $.$.w = = n N N m m M     % NXNXNXNXNXNXNXNXNXNXNXNXNXNXNXNXNXNXNXNX",
"NXNXNXNXNXNXNXNXNXNXNXNXNXNXNXNXNXNX    X 9.7.7.7.Y 7.7.9.,     r ( X..     7.7.7.    % NXNXNXNXNXNXNXNXNXNXNXNXNXNXNXNXNXNXNXNX",
"NXNXNXNXNXNXNXNXNXNXNXNXNXNXNXNXNXNX    o 8.I I Y Y Y 7.9.1     r W X..     7.Y Y     % NXNXNXNXNXNXNXNXNXNXNXNXNXNXNXNXNXNXNXNX",
"NXNXNXNXNXNXNXNXNXNXNXNXNXNXNXNXNX<XQ Q Q L Y Y Y Y M 4 4 4 4 4 H ! ` X     7.Y 7.    % NXNXNXNXNXNXNXNXNXNXNXNXNXNXNXNXNXNXNXNX",
"NXNXNXNXNXNXNXNXNXNXNXNXNXNXNX      G.G.J.L Y Y I 7.4     N 5.7.6.6.6.X     Y Y 7.    % NXNXNXNXNXNXNXNXNXNXNXNXNXNXNXNXNXNXNXNX",
"NXNXNXNXNXNXNXNXNXNXNXNXNXNXNX    o G.G.J.L I I I 5.n     n A A S A S X     5.6.5.    % NXNXNXNXNXNXNXNXNXNXNXNXNXNXNXNXNXNXNXNX",
"NXNXNXNXNXNXNXNXNXNXNXNXNXNXNX    X u.u.z.~ ! ! ! ! 8     | rXeXeXeXkX&     G G G = - ; | { NXNXNXNXNXNXNXNXNXNXNXNXNXNXNXNXNXNX",
"NXNXNXNXNXNXNXNXNXNXNXNXNXNXNX      6.L J l i p i X.w     1XnXnXnXnXnX%     f s s s s w     0 NXNXNXNXNXNXNXNXNXNXNXNXNXNXNXNXNX",
"NXNXNXNXNXNXNXNXNXNXNXNXNXNXNX    X I P E ..i i i ..;     1XnXnXnXnXnX%     s w w x s q     ' NXNXNXNXNXNXNXNXNXNXNXNXNXNXNXNXNX",
"NXNXNXNXNXNXNXNXNXNXNXNXNXNXNX      t.q.p.i.i.i.i.i.C     g } } } } } .     s s s K K E     ' NXNXNXNXNXNXNXNXNXNXNXNXNXNXNXNXNX",
"NXNXNXNXNXNXNXNXNXNXNXNXNXNXNX      g.d.s.t.d.e.e.g.C     - w w q w w .     s s w 6.Y U     ' NXNXNXNXNXNXNXNXNXNXNXNXNXNXNXNXNX",
"NXNXNXNXNXNXNXNXNXNXNXNXNXNXNX      c.g.g.s.s.s.f.g.C     - w d w d s       d q w 6.8.U     9 NXNXNXNXNXNXNXNXNXNXNXNXNXNXNXNXNX",
"NXNXNXNXNXNXNXNXNXNXNXNXNXNXNXNXNXNX  X 5 f.s.w.Y 7.n     w ^ l ^ k / .     s.p.p.    9 NXNXNXNXNXNXNXNXNXNXNXNXNXNXNXNXNXNXNXNX",
"NXNXNXNXNXNXNXNXNXNXNXNXNXNXNXNXNXNX    + g.s.q.P 5.n     w ^ ^ ^ ^ X..     d.d.g.    % NXNXNXNXNXNXNXNXNXNXNXNXNXNXNXNXNXNXNXNX",
"NXNXNXNXNXNXNXNXNXNXNXNXNXNXNXNXNXNX    X c.g.t.7.9.n     : y t t y p .     k.g.k.      NXNXNXNXNXNXNXNXNXNXNXNXNXNXNXNXNXNXNXNX",
"NXNXNXNXNXNXNXNXNXNXNXNXNXNXNXNXNXNXNXNXNX                W.vXcXiX9XtX$           NXNXNXNXNXNXNXNXNXNXNXNXNXNXNXNXNXNXNXNXNXNXNX",
"NXNXNXNXNXNXNXNXNXNXNXNXNXNXNXNXNXNXNXNXNX                R.cXlX9X6XyX$           NXNXNXNXNXNXNXNXNXNXNXNXNXNXNXNXNXNXNXNXNXNXNX",
"NXNXNXNXNXNXNXNXNXNXNXNXNXNXNXNXNXNXNXNXNX                W.vXlXyX9XtX$           NXNXNXNXNXNXNXNXNXNXNXNXNXNXNXNXNXNXNXNXNXNXNX",
"NXNXNXNXNXNXNXNXNXNXNXNXNXNXNXNXNXNX      X.( k s s f s f .                 NXNXNXNXNXNXNXNXNXNXNXNXNXNXNXNXNXNXNXNXNXNXNXNXNXNX",
"NXNXNXNXNXNXNXNXNXNXNXNXNXNXNXNXNXNX    O X.^ k d s s s f $                 NXNXNXNXNXNXNXNXNXNXNXNXNXNXNXNXNXNXNXNXNXNXNXNXNXNX",
"NXNXNXNXNXNXNXNXNXNXNXNXNXNXNXNXNXNX    O ( ^ u s s d d f $           % % o NXNXNXNXNXNXNXNXNXNXNXNXNXNXNXNXNXNXNXNXNXNXNXNXNXNX",
"NXNXNXNXNXNXNXNXNXNXNXNXNXNXNXNXNXNX    O ( ^ i ^ ( k d s -           NXNXNXNXNXNXNXNXNXNXNXNXNXNXNXNXNXNXNXNXNXNXNXNXNXNXNXNXNX",
"NXNXNXNXNXNXNXNXNXNXNXNXNXNXNXNXNXNX    . X.^ ^ ^ / k d f $           NXNXNXNXNXNXNXNXNXNXNXNXNXNXNXNXNXNXNXNXNXNXNXNXNXNXNXNXNX",
"NXNXNXNXNXNXNXNXNXNXNXNXNXNXNXNXNXNX0 ] g r r r r r w 7 ; 0 ] ] ] ' 0 NXNXNXNXNXNXNXNXNXNXNXNXNXNXNXNXNXNXNXNXNXNXNXNXNXNXNXNXNX",
"NXNXNXNXNXNXNXNXNXNXNXNXNXNXNXNXNXNXNXNXNX                NXNXNXNXNXNXNXNXNXNXNXNXNXNXNXNXNXNXNXNXNXNXNXNXNXNXNXNXNXNXNXNXNXNXNX",
"NXNXNXNXNXNXNXNXNXNXNXNXNXNXNXNXNXNXNXNXNX                NXNXNXNXNXNXNXNXNXNXNXNXNXNXNXNXNXNXNXNXNXNXNXNXNXNXNXNXNXNXNXNXNXNXNX"
};
