/* XPM */
static char *_60172b525434aabb14e34c8df9214ccZZdILNuKvCQyeIW9[] = {
/* columns rows colors chars-per-pixel */
"64 64 238 2 ",
"   c None",
".  c #000000",
"X  c #090708",
"o  c #011703",
"O  c #17181A",
"+  c #190E05",
"@  c #381B15",
"#  c #30180A",
"$  c #02220C",
"%  c #042807",
"&  c #122D0C",
"*  c #023A06",
"=  c #053B14",
"-  c #3C2315",
";  c #353610",
":  c #1C1E20",
">  c #282729",
",  c #363436",
"<  c #2F2F30",
"1  c #5C2403",
"2  c #47271C",
"3  c #562A19",
"4  c #553319",
"5  c #473114",
"6  c #632D0C",
"7  c #682900",
"8  c #642C17",
"9  c #663213",
"0  c #693514",
"q  c #6D3B1C",
"w  c #68361A",
"e  c #733D1D",
"r  c #7D3A1E",
"t  c #793919",
"y  c #6C340E",
"u  c #4C2A21",
"i  c #432520",
"p  c #542E23",
"a  c #553925",
"s  c #7A3920",
"d  c #693521",
"f  c #421D13",
"g  c #084516",
"h  c #10470E",
"j  c #006F17",
"k  c #09631F",
"l  c #00771A",
"z  c #25761C",
"x  c #0A5D20",
"c  c #185026",
"v  c #335E21",
"b  c #006E2C",
"n  c #0C6722",
"m  c #057823",
"M  c #097529",
"N  c #0D7A29",
"B  c #047929",
"V  c #107C29",
"C  c #1E7028",
"Z  c #326B2A",
"A  c #245916",
"S  c #4B4C14",
"D  c #75411F",
"F  c #7A431A",
"G  c #6A4A1D",
"H  c #5A4822",
"J  c #4C5528",
"K  c #674925",
"L  c #744221",
"P  c #7A4421",
"I  c #7B4A2A",
"U  c #6B5222",
"Y  c #79562A",
"T  c #7C5D31",
"R  c #5C702C",
"E  c #706F32",
"W  c #172C43",
"Q  c #005076",
"!  c #2C4C77",
"~  c #3C6E42",
"^  c #4B4B4C",
"/  c #595552",
"(  c #43546D",
")  c #666666",
"_  c #757576",
"`  c #6A7764",
"'  c #65634B",
"]  c #81341E",
"[  c #803D20",
"{  c #8A5C2C",
"}  c #865633",
"|  c #875028",
" . c #996C35",
".. c #9C7235",
"X. c #9D743B",
"o. c #91662B",
"O. c #A4793B",
"+. c #B17D3B",
"@. c #8E5D15",
"#. c #9A6D46",
"$. c #956749",
"%. c #9E7244",
"&. c #9D7149",
"*. c #906E55",
"=. c #A17643",
"-. c #A47A42",
";. c #AB7843",
":. c #B47843",
">. c #A5734F",
",. c #947862",
"<. c #A07E67",
"1. c #058129",
"2. c #0D822C",
"3. c #098A2D",
"4. c #12852B",
"5. c #188129",
"6. c #128C2E",
"7. c #188B2C",
"8. c #139130",
"9. c #268D29",
"0. c #298424",
"q. c #2B9229",
"w. c #2E992A",
"e. c #359329",
"r. c #3DA329",
"t. c #39AA28",
"y. c #3AB62A",
"u. c #4D9E2C",
"i. c #42982B",
"p. c #6E9534",
"a. c #44A629",
"s. c #46A829",
"d. c #49AB29",
"f. c #56AB25",
"g. c #45B12C",
"h. c #4AB42C",
"j. c #59B123",
"k. c #5C904E",
"l. c #508D58",
"z. c #648C58",
"x. c #B29010",
"c. c #91833D",
"v. c #A9813C",
"b. c #B6833C",
"n. c #BA9933",
"m. c #BB9A2C",
"M. c #A59422",
"N. c #C9B21C",
"B. c #C5AB29",
"V. c #C3A82A",
"C. c #CCB523",
"Z. c #D2BB24",
"A. c #CAA139",
"S. c #D9C919",
"D. c #DDD110",
"F. c #E4D614",
"G. c #E7DB10",
"H. c #D8EC06",
"J. c #ECE50C",
"K. c #FFFF00",
"L. c #F9F406",
"P. c #F6EB0F",
"I. c #EAC936",
"U. c #EED527",
"Y. c #AD8344",
"T. c #B58948",
"R. c #AF8852",
"E. c #8D986B",
"W. c #B99974",
"Q. c #AE8D6D",
"!. c #BEA279",
"~. c #C4944B",
"^. c #C89250",
"/. c #DCA659",
"(. c #D7A14E",
"). c #E1AC58",
"_. c #E7B456",
"`. c #EDBB53",
"'. c #C99D6E",
"]. c #C8A579",
"[. c #F7C94C",
"{. c #FFD163",
"}. c #173C90",
"|. c #0A5189",
" X c #264A98",
".X c #365592",
"XX c #2952A9",
"oX c #096283",
"OX c #475B8C",
"+X c #556FAA",
"@X c #596D9F",
"#X c #867F84",
"$X c #798389",
"%X c #6987A4",
"&X c #00B9FF",
"*X c #02C4FF",
"=X c #36CFC2",
"-X c #41D3C8",
";X c #8E928E",
":X c #A1B6A9",
">X c #B5A9A4",
",X c #A5A38E",
"<X c #CEAC83",
"1X c #D1AE85",
"2X c #D1B087",
"3X c #D3B28A",
"4X c #DBB78C",
"5X c #DBBB92",
"6X c #D6B991",
"7X c #C6B096",
"8X c #E3B892",
"9X c #EABF98",
"0X c #ABD7B6",
"qX c #D9C09B",
"wX c #CAC798",
"eX c #E5C59B",
"rX c #F3CD9E",
"tX c #D9C2A3",
"yX c #E8CCA5",
"uX c #F0D4AB",
"iX c #F6D8AA",
"pX c #F6DCB3",
"aX c #EAD1AD",
"sX c #FFE3B6",
"dX c #FFE5BC",
"fX c #FFE8BF",
"gX c #FFEAB5",
"hX c #FFF3BE",
"jX c #CBCBCB",
"kX c #E7DDD9",
"lX c #FFEBC2",
"zX c #FFF3C4",
"xX c #FFF3CA",
"cX c #FFF9C7",
"vX c #FFFFD7",
"bX c #FFFFFF",
"nX c #FFFBF4",
"mX c #FFF7E8",
/* pixels */
"                                                                                                                                ",
"                                                                                                                                ",
"                                            > . . l j j j j j j j j j l . . .                                                   ",
"                                            , . . N N N N M N M N N N 2.. . .                                                   ",
"                                        ) _ c g = w.q.q.q.q.q.q.q.q.q.w.g g = _ )                                               ",
"                                      _ . . x 4.N s.a.s.a.a.a.a.a.a.a.d.7.4.6.. . >                                             ",
"                                        . . x 4.M d.s.s.a.a.a.a.a.a.s.d.V V 4.. . ,                                             ",
"                                  O < c n n V V N 5.5.5.5.5.5.5.5.V 5.5.V N V n k c < :                                         ",
"                                  . . = 4.V N N N N N N N N V V V N N N V V V V 4.k . . _                                       ",
"                                  . . = N M M M M M M M M M m M N M M M M M M M M x . . ;X                                      ",
"                            . . o 8.2.e.d.d.d.a.s.s.a.a.a.s.s.s.s.a.s.s.a.a.a.a.s.r.2.8.= . .                                   ",
"                            . . o 4.M q.r.r.r.r.r.i.r.r.r.a.r.i.a.r.r.i.r.a.r.a.s.e.M 2.= . .                                   ",
"                            . . $ 7.V e.u.u.f.f.j.j.j.f.u.u.u.u.u.f.f.j.u.u.u.u.s.i.V 4.g . X                                   ",
"                            . . & h.s.p.+.>.P.K.K.K.K.K.>.;.;.;.>.F.K.K.b.;.;.;.;.X.t.g.A . X                                   ",
"                            . . % g.t.p.;.#.J.K.K.K.K.L.$.%.=.-.#.D.K.K.O.=.=.-.;.c.t.y.A . .                                   ",
"                            % % h p.p.X.;.#.J.K.K.S.S.S.B.C.n.%.#.S.K.K.Z.B.C.%.-.c.p.p.v % % z.>X;X                            ",
"                      . . . 8.3.0.:.;.;.O.#.J.K.K.$.#.Y.K.K.F.&.&.D.K.K.K.K.K.$.-.-.;.:.R 1.6.o . .                             ",
"                      X . . 3.m Z :.-.>.&.$.J.K.K.$.#.-.K.K.S.$.$.S.K.K.K.K.K.$.%.%.O.;.p.1.3.$ . .                             ",
"            !.!.tX    3 5 3 J J E (.^.Z.D.D.I.I.I.S.F.D.V.V.C.F.D.I.I.I.V.V.V.F.F.S.=.;.E J J 4 3 # aXaXaX!.!.tX                ",
"            o...'.3X5XI e P e t o._.).U.K.K.`././.K.K.L.$.#.V.K.K.I./.).=.&.#.K.K.J.#.;.} q e F D w 3X3X]. ...!.                ",
"            O.O.'.2X5X9 6 6 q w } )./.U.K.K.`.(.'.K.K.K.#.=.V.K.K.I.).`.v.X.X.K.K.P.$.#.} w q 9 6 1 <X3X1XO.O.].                ",
"            y q 2XlXdXpXpXpX .X.n.K.K.Z.O.%.G.K.K.O.v.v.=.=.V.K.K.B.=.O.].2X3XO.-.n.K.K.C.#...qXpXpXdXdXpX9 t <.                ",
"            y 6 3XxXlXdXlXlX..=.n.K.K.C.&.$.J.K.K.#.=.=.O.%.B.K.K.B.%.X.1X3X5X..$.n.K.K.S.#...rXlXlXdXlXsX3 y <.                ",
"            6 6 3XlXlXlXlXlX..=.m.K.K.Z.%.#.J.K.K.#.=.=.=.%.B.K.K.B.%...1X3X6X..%.n.K.K.S.%...eXlXlXlXlXsX1 y ,.                ",
"                ,.1 1 ].2X1X6 w I &.$.T._./.L.K.K.K.K.K.)._.:.p 3 Q.5X6XlXlXxX .-.Y././.T.-...].2X4X6 1 q                       ",
"                <.y 6 1X4X4X9 q I Y.-.~._.(.L.K.K.K.K.L.)._.T.0 y <.6X1XpXlXlX .-.:._._.^.%.O.].4XeXt q L                       ",
"                ,X$.$.:X:X:X@.@.o.#. .T._.(.U.P.P.J.J.F.T.~.;.} } '.qX5XpXlXlX-.R.R.~.^.n.n.m.,X:X:X*.$.,.                      ",
"                      &X&X*XK.K.G.8 w +._.)././.).$.&.$.w 8 $.eX8XiXlXlXlXdXlX3X6X'.6 8 x.K.K.=X&X&X                            ",
"                      *X*X*XK.K.D.3 q +.`._._._._.-.;.=.w 0  .6X].uXlXgXlXlXxX5X8X].y d x.K.K.=X*X&X                            ",
"                      oXoXQ K.K.D.| { T Y U T.T.~.} { { R.>.W.uXuXyXyXuXW.Q.W.' ' ' { } N.K.K.l.|.Q                             ",
"                      X . . K.K.J.%.T.u . . T -.Y.q q I tX6XyXlXlXeX<XqXF y y . . + T.=.C.K.K.; . .                             ",
"                      X . . K.K.J.%.T.; . . { b.b.G q I 5X<XeXlXfXyX5XeX| t [ . . + T.=.Z.K.K.S . .                             ",
"                      X . . [.I.~.L q Q.jXjX@XOXOXe G I dXpXpXlXzXQ.} { ( OX! jXjX>XF L v.I.[.; . .                             ",
"                      X . X `./.~.w 9 7XbXbX+XXXXXt e | xXlXdXdXcX>.9 t .XXX XnXbXkX6 q X._._.- . .                             ",
"                      . . . {.{.(.F e 7XbXbX+X XXX7 1 e xXlXdXdXxX&.1 7 .X X}.bXbXkXy P :.{.{.# . .                             ",
"                            . . . . . ,.zXhX+X.X XbXbXbXsXdXdXdXdXmXbXbX+X X XzXzX6X. . . . . jX                                ",
"                            . . . . . ,.cXzX@XXX}.bX  nXpXlXdXlXsXmXbXbX.XXX}.cXzX7X. . . . .                                   ",
"                            . O X . X ` gXgX@X.X XbXbXnXdXpXdXdXsXmXbXbX+X.X.XdXsX7X. . X O .                                   ",
"                                  . . 4 O.o.iXcXzXsXsXsXlXlXdXdXdXsXsXsXhXhXvX{ X.T . . ;X                                      ",
"                                  . . H Y...uXzXlXfXfXfXpXlXlXlXfXfXdXlXlXlXxX..Y.{ . . _                                       ",
"                                $X% % H  .{ ].1X<XuXuXuXuXuXuXuXuXuXuXiX3X<X3X{  .Y $ % /   :X                                  ",
"                            . . o 6.3.v e q w 9 1 4X3X2X2X2X2X2X2X2X2X5Xe 9 0 q s H 3.6.= . .                                   ",
"                            . . o l l S [ P s s y 9X8X8X8X8X8X8X8X8X8XyX| ] s F I H l l * . .                                   ",
"                      ) ) ) W W ( 0X0Xz.; ; v Z v k.k.k.k.k.k.k.k.k.k.k.Z v Z ; ; J 0X0X` # # ^ ) /                             ",
"                      . . . .X! %XbXbX$X* * M V N M l m m m m M M m m m N N 3.* * ~     >Xf p X . .                             ",
"                      X . . .X! %XbXbX;X* * k V V V V V V N V V V V V N V V 2.* * ~     >X@ u X . .                             ",
"                ) O O w G w K L 4 O O u G q C 2.V V V V V V N N V V V V V V B D G 4 O : 2 e q d w 0 : O >                       ",
"                ^ . . G L D e F 4 . . @ P r z V V N V N V N N N V V N V V N B ] s 4 . . # F L L L | . . X                       ",
"                / . . 0 q 0 6 0 1 . . @ s ] C B N 1.1.B b b b b b M B 1.N 1.1.s t 3 . . # 0 9 0 0 t . . X                       ",
"                ^ . . 6XqXeXvXvXwX* h z y.y.U r r ] s @.K.K.K.K.K.x.s r s s ] y.y.q.h h E.vXvXyXqXiX. . X                       ",
"                ^ . . <X5X6XzXxXwX* = z g.t.U t e F s | K.K.K.K.K.x.w s L e t t.s.e.h * E.xXxXeX4XrX. . .                       ",
"                _ > > Q.W.Q.qXtXE.% & C r.t.R G U H H U H.H.H.H.H.o.H K U U K t.r.0.% * ' tXtXW.Q.!.< > ,                       ",
"                      . . . . . . . . = N M t.t.g.m B B b b b b m B 1.B t.t.t.M V x . . . . . . . .                             ",
"                      . . . . . . . . g 6.N w.a.d.B N N N N N N B V M B a.a.d.N 4.k . . . . . . . .                             ",
"                        _ _ _ _ / . . $ g = 0.q.q.9.9.9.9.9.9.9.9.9.9.9.q.q.w.= g = . . < _ _ _ _ )                             ",
"                                  . . . . . x N m s.a.a.a.a.a.a.a.a.s.d.V N V . . . . . ;X                                      ",
"                                  . . . . . n 4.2.h.g.g.g.g.g.g.g.g.g.h.7.4.8.. . . . . $X                                      ",
"                            < ^ a 3 4 2 @ @ & $ o & & & & & & & & & & & $ $ $ @ @ - 4 3 a ^ ,                                   ",
"                            . . + | P d i p X . . . . . . . . . . . . . . . . p u p F I # . .                                   ",
"                            . . + I L 4 i u X . . . . . . . . . . . . . . . . u 2 p L P - . .                                   ",
"                            . . + P L L L L p i p . . :           / . . i u i P L s L L - . .                                   ",
"                            . . + I L L L F p u p . . O           ) . . 2 u u P L s L L - . .                                   ",
"                            . . # L q D L D 3 i u X . O           ) . . 2 2 2 L D G q e - . .                                   ",
"                                  . . . . . . . .                       O . . . . . . . ;X                                      "
};
