/* XPM */
static char *result[] = {
/* columns rows colors chars-per-pixel */
"64 64 13 1 ",
"  c #AA8347",
". c #D2B66B",
"X c #91CC67",
"o c #AEDC6C",
"O c #B6DD6C",
"+ c #BFDF6D",
"@ c #DDCD75",
"# c #C6E57B",
"$ c #5DAACE",
"% c #68BDD5",
"& c #D7F089",
"* c #82DCDF",
"= c #A8F0ED",
/* pixels */
"++++++++++++++++++++++++++++++++&&oooo  @@@@@@$$$====********%%%",
"++++++++++++++++++++++++++++++++&&oooo  @@@@@@$$$====********%%%",
"+##oo##oo##OO##OOOoo++++OOOOOO++&&oooo  @@@@@@$$$====%%%%%%****%",
"+##oo##oo##OO##OOOoo++++OOOOOO++&&oooo  @@@@@@$$$====%%%%%%****%",
"+##oooooo##OO##OOO++++++OO##OO&&XXXX  ..@@@@$$=====**%%%%%%*****",
"+##oooooo##OO##OOO++++++OO##OO&&XXXX  ..@@@@$$=====**%%%%%%*****",
"+oo##oo##ooOO#####OO++++OO##&&XXXXXX  @@@@$$=====**%%%%%%%%**%%%",
"+oo##oo##ooOO#####OO++++OO##&&XXXXXX  @@@@$$=====**%%%%%%%%**%%%",
"+++oooooo##OOoo###oo++++##OO&&XXXX  @@@@@@$$=====**%%%%%%**%%%%%",
"+++oooooo##OOoo###oo++++##OO&&XXXX  @@@@@@$$=====**%%%%%%**%%%%%",
"+++++++++OO##OOooo##ooOO##&&oooo  ......$$====*******%%****%%%%%",
"+++++++++OO##OOooo##ooOO##&&oooo  ......$$====*******%%****%%%%%",
"+++++++++++OO##OOOOOOOOO##&&oooo  ......$$====*************%%%%%",
"+++++++++++OO##OOOOOOOOO##&&oooo  ......$$====*************%%%%%",
"+++++++++++++OOOOO++##&&&&&&oooo  ......$$====*************%%%%%",
"+++++++++++++OOOOO++##&&&&&&oooo  ......$$====*************%%%%%",
"+++++++++++++OOOOO++##&&&&&&oooo  ......$$====*************%%%%%",
"+++++##oooo++++###++&&XXXXXXXXoo  ....$$====*****************%%%",
"+++++##oooo++++###++&&XXXXXXXXoo  ....$$====*****************%%%",
"+++++++oo##oo##+++&&XXXXXXXXXX  ....$$====**%%%%%%%%%**********%",
"+++++++oo##oo##+++&&XXXXXXXXXX  ....$$====**%%%%%%%%%**********%",
"+oo++++oo##oo++&&&XXXX        @@@@$$====**%%%%%%%%%%%%%*********",
"+oo++++oo##oo++&&&XXXX        @@@@$$====**%%%%%%%%%%%%%*********",
"+##OOOO##oo++&&XXXXX  ..@@@@@@@@$$====****%%%%%%%%%%%%%*********",
"+##OOOO##oo++&&XXXXX  ..@@@@@@@@$$====****%%%%%%%%%%%%%*********",
"+OOOO##ooOOOO&&XXXXX  ....@@@@$$====******%%%%%%%%%%%%%*********",
"+OOOO##ooOOOO&&XXXXX  ....@@@@$$====******%%%%%%%%%%%%%*********",
"+OOOOOO++&&&&&&XXXXX  ....$$$$====%%%%****%%%%%%%%%%%***********",
"+OOOOOO++&&&&&&XXXXX  ....$$$$====%%%%****%%%%%%%%%%%***********",
"+##OO&&&&ooooooXXXXX  ....$$====%%%%%%%%****%%%%%%%**%%%%%%%%***",
"+##OO&&&&ooooooXXXXX  ....$$====%%%%%%%%****%%%%%%%**%%%%%%%%***",
"+##&&XXXXooooooooo  ....$$====%%%%%%%%%%***********%%%%%%%%%%%%*",
"+##&&XXXXooooooooo  ....$$====%%%%%%%%%%***********%%%%%%%%%%%%*",
"+&&XXXXXX         ....$$====%%%%%%%%%%%%*********%%%%%%%%%%%%%%*",
"+&&XXXXXX         ....$$====%%%%%%%%%%%%*********%%%%%%%%%%%%%%*",
"&XXXXXX  @@@@@@@@@@@$$====%%%%%%%%%%%%%%******%%%%%%%%%%%%%%%%%*",
"&XXXXXX  @@@@@@@@@@@$$====%%%%%%%%%%%%%%******%%%%%%%%%%%%%%%%%*",
"XXX    ..@@@@@@$$$$$====**%%%%%%%%%%%%********%%%%%%%%%%%%%%%%%*",
"XXX    ..@@@@@@$$$$$====**%%%%%%%%%%%%********%%%%%%%%%%%%%%%%%*",
"   ........$$$$=======******%%%%%%%%**%%%%****%%%%%%%%%%%%%%%%%*",
"   ........$$$$=======******%%%%%%%%**%%%%****%%%%%%%%%%%%%%%%%*",
".........$$**=====************%%%%**%%%%%%%%**%%%%%%%%%%%%%%%***",
".........$$**=====************%%%%**%%%%%%%%**%%%%%%%%%%%%%%%***",
".....$$$$======***********%%%%******%%%%%%%%*****%%%%%%%%%%**%%%",
".....$$$$======***********%%%%******%%%%%%%%*****%%%%%%%%%%**%%%",
"...$$======**%%%%%%%****%%%%%%%%****%%%%%%%%*******%%%%%%**%%%%%",
"...$$======**%%%%%%%****%%%%%%%%****%%%%%%%%*******%%%%%%**%%%%%",
"$$$====**%%%%%%%%%%%%%**%%%%%%%%%%****%%%%*****************%%%%%",
"$$$====**%%%%%%%%%%%%%**%%%%%%%%%%****%%%%*****************%%%%%",
"$$$====**%%%%%%%%%%%%%**%%%%%%%%%%****%%%%*****************%%%%%",
"=====****%%%%%%%%%%%%%**%%%%%%%%%%**********%%%%%%%********%%%%%",
"=====****%%%%%%%%%%%%%**%%%%%%%%%%**********%%%%%%%********%%%%%",
"=********%%%%%%%%%%%%%**%%%%%%%%%%********%%%%%%%%%%%******%%%%%",
"=********%%%%%%%%%%%%%**%%%%%%%%%%********%%%%%%%%%%%******%%%%%",
"*********%%%%%%%%%%%%%**%%%%%%%%**********%%%%%%%%%%%********%%%",
"*********%%%%%%%%%%%%%**%%%%%%%%**********%%%%%%%%%%%********%%%",
"*********%%%%%%%%%%%%%****%%%%**%%%%%%****%%%%%%%%%%%***********",
"*********%%%%%%%%%%%%%****%%%%**%%%%%%****%%%%%%%%%%%***********",
"%%%%%******%%%%%%%%%************%%%%%%%%**%%%%%%%%%%%***********",
"%%%%%******%%%%%%%%%************%%%%%%%%**%%%%%%%%%%%***********",
"%%%%%%%***********************%%%%%%%%%%**%%%%%%%%%%%********%%%",
"%%%%%%%***********************%%%%%%%%%%**%%%%%%%%%%%********%%%",
"%%%%%%%****%%%%%%%************%%%%%%%%%%****%%%%%%%********%%%%%",
"%%%%%%%****%%%%%%%************%%%%%%%%%%****%%%%%%%********%%%%%"
};
