/* XPM */
static char *result[] = {
/* columns rows colors chars-per-pixel */
"64 64 14 1 ",
"  c #AA8347",
". c #C2A25D",
"X c #D2B66B",
"o c #91CC67",
"O c #AEDC6C",
"+ c #B6DD6C",
"@ c #BFDF6D",
"# c #DDCD75",
"$ c #C6E57B",
"% c #5DAACE",
"& c #68BDD5",
"* c #D7F089",
"= c #82DCDF",
"- c #A8F0ED",
/* pixels */
"&&&&==&&&&&&&&&&&&&&&======================&&&&&&&&&&&&&====&&&&",
"&&====&&&&&&&&&&&&&============&&&&&&&&&&==&&&&&&&&&&&&&====&&&&",
"&&====&&&&&&&&&&&&&============&&&&&&&&&&==&&&&&&&&&&&&&====&&&&",
"========&&&&&&&&&============&&&&&&&&&&&&&&==&&&&&&&&&========&&",
"========&&&&&&&&&============&&&&&&&&&&&&&&==&&&&&&&&&========&&",
"==&&&&&&=====================&&&&&&&&&&&&&&&&===================",
"==&&&&&&=====================&&&&&&&&&&&&&&&&===================",
"&&&&&&&&&&===================&&&&&&&&&&&&&&&&&&=================",
"&&&&&&&&&&===================&&&&&&&&&&&&&&&&&&=================",
"&&&&&&&&&&&&=========&&&&&&==&&&&&&&&&&&&&&&&&&=================",
"&&&&&&&&&&&&=========&&&&&&==&&&&&&&&&&&&&&&&&&=================",
"--&&&&&&&&&&=======&&&&&&&&&&==&&&&&&&&&&&&&&-----==&&&&&&&&&&--",
"--&&&&&&&&&&=======&&&&&&&&&&==&&&&&&&&&&&&&&-----==&&&&&&&&&&--",
"------------=======&&&&&&&&&&&&==&&&&&&&&-----------====&&------",
"------------=======&&&&&&&&&&&&==&&&&&&&&-----------====&&------",
"%%%%%%==------=====--------&&&&==--------==%%%%%%%%%%%==--====%%",
"%%%%%%==------=====--------&&&&==--------==%%%%%%%%%%%==--====%%",
"%%%%%%==------=====--------&&&&==--------==%%%%%%%%%%%==--====%%",
"####XX%%%%==-----------------------====%%%%XXXX#######%%%%%%%%XX",
"####XX%%%%==-----------------------====%%%%XXXX#######%%%%%%%%XX",
"########XX%%%%%%%%%==----==%%%%%%%%%%%%XXXXXXXX#############XXXX",
"########XX%%%%%%%%%==----==%%%%%%%%%%%%XXXXXXXX#############XXXX",
"    ######XXXXXXXXX%%%%%%%%XXXX########XXXXXX         ######XXXX",
"    ######XXXXXXXXX%%%%%%%%XXXX########XXXXXX         ######XXXX",
"OOOO  ####XXXXXXX########XXXXXX########XXXX  ooOOOOOOO          ",
"OOOO  ####XXXXXXX########XXXXXX########XXXX  ooOOOOOOO          ",
"OOOOOO  XXXXXXXXXXX######XXXX          ..  oooooooOOOOOOOOoooooo",
"OOOOOO  XXXXXXXXXXX######XXXX          ..  oooooooOOOOOOOOoooooo",
"**OOOOOO             ....    ooOOOOOOOO  oooooo*******OOOOoooooo",
"**OOOOOO             ....    ooOOOOOOOO  oooooo*******OOOOoooooo",
"$$**OOOOooooooooooooo    ooooooOOOOOOOOoooooo**+++$$$$**OOoooo**",
"$$**OOOOooooooooooooo    ooooooOOOOOOOOoooooo**+++$$$$**OOoooo**",
"$$OO**OOoooooooooooooOOOOOOoooo******OOoooo**++@@@++$$++**oo**OO",
"$$OO**OOoooooooooooooOOOOOOoooo******OOoooo**++@@@++$$++**oo**OO",
"OO$$++***************OOOOOOoo**OO$$OO**oo**$$$$OOO++$$++$$**$$OO",
"OO$$++***************OOOOOOoo**OO$$OO**oo**$$$$OOO++$$++$$**$$OO",
"OOOO@@$$$$+++++++$$OO**OOOO**@@$$$$OOOO**@@@@OO$$$$$++++++OO$$++",
"OOOO@@$$$$+++++++$$OO**OOOO**@@$$$$OOOO**@@@@OO$$$$$++++++OO$$++",
"$$$$OO@@@@@@@@OOO$$$$OO****$$++$$++OO$$OO@@OO$$+++++++++$$@@++++",
"$$$$OO@@@@@@@@OOO$$$$OO****$$++$$++OO$$OO@@OO$$+++++++++$$@@++++",
"++++$$OO@@@@@@@@@OO$$OO$$OO$$++$$++@@OO$$OO@@@@OOOOO@@++++OO$$++",
"++++$$OO@@@@@@@@@OO$$OO$$OO$$++$$++@@OO$$OO@@@@OOOOO@@++++OO$$++",
"$$OOOOOO@@@@@@OOO@@$$++$$OO++++++$$$$++$$$$@@OO$$$OO@@@@OO$$++++",
"$$OOOOOO@@@@@@OOO@@$$++$$OO++++++$$$$++$$$$@@OO$$$OO@@@@OO$$++++",
"$$OO@@$$@@@@OO$$$$$++++++@@$$++++++++@@++$$++$$OOO@@@@OO$$OO@@@@",
"$$OO@@$$@@@@OO$$$$$++++++@@$$++++++++@@++$$++$$OOO@@@@OO$$OO@@@@",
"OOOO$$@@@@OO$$+++++++++$$OO++++@@@@@@OO++$$++$$@@@@@$$OO$$OO@@@@",
"OOOO$$@@@@OO$$+++++++++$$OO++++@@@@@@OO++$$++$$@@@@@$$OO$$OO@@@@",
"OOOO$$@@@@OO$$+++++++++$$OO++++@@@@@@OO++$$++$$@@@@@$$OO$$OO@@@@",
"@@++$$++@@OOOO@@@$$$$++++$$OO@@@@@@OO$$$$++++++@@@$$@@@@OOOO$$@@",
"@@++$$++@@OOOO@@@$$$$++++$$OO@@@@@@OO$$$$++++++@@@$$@@@@OOOO$$@@",
"++++++++++$$@@OOO$$OO@@@@OO$$OO@@OO$$++++++++$$@@@++++@@@@@@@@@@",
"++++++++++$$@@OOO$$OO@@@@OO$$OO@@OO$$++++++++$$@@@++++@@@@@@@@@@",
"++$$++++$$@@@@OOOOO@@@@@@OO$$OO@@OOOO@@$$$$+++++++++$$++@@@@@@@@",
"++$$++++$$@@@@OOOOO@@@@@@OO$$OO@@OOOO@@$$$$+++++++++$$++@@@@@@@@",
"@@OOOO$$@@@@@@@@@@@@@@@@@OOOOOOOO$$$$@@$$$$++OO$$$OO++$$++@@@@@@",
"@@OOOO$$@@@@@@@@@@@@@@@@@OOOOOOOO$$$$@@$$$$++OO$$$OO++$$++@@@@@@",
"OO$$OO$$OOOO@@@@@OOOO@@$$@@OO$$OO@@$$@@++$$@@@@OOO$$OO++$$OOOOOO",
"OO$$OO$$OOOO@@@@@OOOO@@$$@@OO$$OO@@$$@@++$$@@@@OOO$$OO++$$OOOOOO",
"$$OO@@$$OO$$OOOOOOOOO@@@@OO$$OO@@++@@$$$$++@@@@+++$$$$++OO$$OO$$",
"$$OO@@$$OO$$OOOOOOOOO@@@@OO$$OO@@++@@$$$$++@@@@+++$$$$++OO$$OO$$",
"$$OO@@@@@@$$OO$$$OO$$OO@@$$$$++$$++@@++$$++@@@@@@@++$$++$$OOOOOO",
"$$OO@@@@@@$$OO$$$OO$$OO@@$$$$++$$++@@++$$++@@@@@@@++$$++$$OOOOOO",
"OO$$@@@@@@$$$$$$$@@OO$$++$$++@@++@@@@++++++@@@@OOO++$$++$$OO$$OO"
};
