/* XPM */
static char *result[] = {
/* columns rows colors chars-per-pixel */
"64 64 13 1 ",
"  c #AA8347",
". c #D2B66B",
"X c #91CC67",
"o c #AEDC6C",
"O c #B6DD6C",
"+ c #BFDF6D",
"@ c #DDCD75",
"# c #C6E57B",
"$ c #5DAACE",
"% c #68BDD5",
"& c #D7F089",
"* c #82DCDF",
"= c #A8F0ED",
/* pixels */
"%%%%%********%%%%%%%****%%%%%%%%%%************%%%%%%%****%%%%%%%",
"%%%%%********%%%%%%%****%%%%%%%%%%************%%%%%%%****%%%%%%%",
"%%%********%%%%%%%%%%%**%%%%%%%%%%***********************%%%%%%%",
"%%%********%%%%%%%%%%%**%%%%%%%%%%***********************%%%%%%%",
"***********%%%%%%%%%%%**%%%%%%%%************%%%%%%%%%******%%%%%",
"***********%%%%%%%%%%%**%%%%%%%%************%%%%%%%%%******%%%%%",
"***********%%%%%%%%%%%****%%%%%%**%%%%****%%%%%%%%%%%%%*********",
"***********%%%%%%%%%%%****%%%%%%**%%%%****%%%%%%%%%%%%%*********",
"%%%********%%%%%%%%%%%**********%%%%%%%%**%%%%%%%%%%%%%*********",
"%%%********%%%%%%%%%%%**********%%%%%%%%**%%%%%%%%%%%%%*********",
"%%%%%******%%%%%%%%%%%********%%%%%%%%%%**%%%%%%%%%%%%%********=",
"%%%%%******%%%%%%%%%%%********%%%%%%%%%%**%%%%%%%%%%%%%********=",
"%%%%%********%%%%%%%**********%%%%%%%%%%**%%%%%%%%%%%%%****=====",
"%%%%%********%%%%%%%**********%%%%%%%%%%**%%%%%%%%%%%%%****=====",
"%%%%%*****************%%%%****%%%%%%%%%%**%%%%%%%%%%%%%**====$$$",
"%%%%%*****************%%%%****%%%%%%%%%%**%%%%%%%%%%%%%**====$$$",
"%%%%%*****************%%%%****%%%%%%%%%%**%%%%%%%%%%%%%**====$$$",
"%%%%%**%%%%%%*******%%%%%%%%****%%%%%%%%****%%%%%%%**======$$...",
"%%%%%**%%%%%%*******%%%%%%%%****%%%%%%%%****%%%%%%%**======$$...",
"%%%**%%%%%%%%%%*****%%%%%%%%******%%%%***********======$$$$.....",
"%%%**%%%%%%%%%%*****%%%%%%%%******%%%%***********======$$$$.....",
"***%%%%%%%%%%%%%%%**%%%%%%%%**%%%%************=====**$$.........",
"***%%%%%%%%%%%%%%%**%%%%%%%%**%%%%************=====**$$.........",
"*%%%%%%%%%%%%%%%%%****%%%%**%%%%%%%%******=======$$$$........   ",
"*%%%%%%%%%%%%%%%%%****%%%%**%%%%%%%%******=======$$$$........   ",
"*%%%%%%%%%%%%%%%%%********%%%%%%%%%%%%**====$$$$$@@@@@@..    XXX",
"*%%%%%%%%%%%%%%%%%********%%%%%%%%%%%%**====$$$$$@@@@@@..    XXX",
"*%%%%%%%%%%%%%%%%%******%%%%%%%%%%%%%%====$$@@@@@@@@@@@  XXXXXX&",
"*%%%%%%%%%%%%%%%%%******%%%%%%%%%%%%%%====$$@@@@@@@@@@@  XXXXXX&",
"*%%%%%%%%%%%%%%*********%%%%%%%%%%%%====$$....         XXXXXX&&+",
"*%%%%%%%%%%%%%%*********%%%%%%%%%%%%====$$....         XXXXXX&&+",
"*%%%%%%%%%%%%***********%%%%%%%%%%====$$....  oooooooooXXXX&&##+",
"*%%%%%%%%%%%%***********%%%%%%%%%%====$$....  oooooooooXXXX&&##+",
"***%%%%%%%%**%%%%%%%****%%%%%%%%====$$....  XXXXXoooooo&&&&OO##+",
"***%%%%%%%%**%%%%%%%****%%%%%%%%====$$....  XXXXXoooooo&&&&OO##+",
"***********%%%%%%%%%%%****%%%%====$$$$....  XXXXX&&&&&&++OOOOOO+",
"***********%%%%%%%%%%%****%%%%====$$$$....  XXXXX&&&&&&++OOOOOO+",
"*********%%%%%%%%%%%%%******====$$@@@@....  XXXXX&&OOOOoo##OOOO+",
"*********%%%%%%%%%%%%%******====$$@@@@....  XXXXX&&OOOOoo##OOOO+",
"*********%%%%%%%%%%%%%****====$$@@@@@@@@..  XXXXX&&++oo##OOOO##+",
"*********%%%%%%%%%%%%%****====$$@@@@@@@@..  XXXXX&&++oo##OOOO##+",
"*********%%%%%%%%%%%%%**====$$@@@@        XXXX&&&++oo##oo++++oo+",
"*********%%%%%%%%%%%%%**====$$@@@@        XXXX&&&++oo##oo++++oo+",
"%**********%%%%%%%%%**====$$....  XXXXXXXXXX&&+++##oo##oo+++++++",
"%**********%%%%%%%%%**====$$....  XXXXXXXXXX&&+++##oo##oo+++++++",
"%%%*****************====$$....  ooXXXXXXXX&&++###++++oooo##+++++",
"%%%*****************====$$....  ooXXXXXXXX&&++###++++oooo##+++++",
"%%%%%*************====$$......  oooo&&&&&&##++OOOOO+++++++++++++",
"%%%%%*************====$$......  oooo&&&&&&##++OOOOO+++++++++++++",
"%%%%%*************====$$......  oooo&&&&&&##++OOOOO+++++++++++++",
"%%%%%*************====$$......  oooo&&##OOOOOOOOO##OO+++++++++++",
"%%%%%*************====$$......  oooo&&##OOOOOOOOO##OO+++++++++++",
"%%%%%****%%*******====$$......  oooo&&##OOoo##oooOO##OO+++++++++",
"%%%%%****%%*******====$$......  oooo&&##OOoo##oooOO##OO+++++++++",
"%%%%%**%%%%%%**=====$$@@@@@@  XXXX&&OO##++++oo###ooOO##oooooo+++",
"%%%%%**%%%%%%**=====$$@@@@@@  XXXX&&OO##++++oo###ooOO##oooooo+++",
"%%%**%%%%%%%%**=====$$@@@@  XXXXXX&&##OO++++OO#####OOoo##oo##oo+",
"%%%**%%%%%%%%**=====$$@@@@  XXXXXX&&##OO++++OO#####OOoo##oo##oo+",
"*****%%%%%%**=====$$@@@@..  XXXX&&OO##OO++++++OOO##OO##oooooo##+",
"*****%%%%%%**=====$$@@@@..  XXXX&&OO##OO++++++OOO##OO##oooooo##+",
"%****%%%%%%====$$$@@@@@@  oooo&&++OOOOOO++++ooOOO##OO##oo##oo##+",
"%****%%%%%%====$$$@@@@@@  oooo&&++OOOOOO++++ooOOO##OO##oo##oo##+",
"%%%********====$$$@@@@@@  oooo&&++++++++++++++++++++++++++++++++",
"%%%********====$$$@@@@@@  oooo&&++++++++++++++++++++++++++++++++"
};
