/* XPM */
static char *result[] = {
/* columns rows colors chars-per-pixel */
"64 64 14 1 ",
"  c #AA8347",
". c #C2A25D",
"X c #D2B66B",
"o c #91CC67",
"O c #AEDC6C",
"+ c #B6DD6C",
"@ c #BFDF6D",
"# c #DDCD75",
"$ c #C6E57B",
"% c #5DAACE",
"& c #68BDD5",
"* c #D7F089",
"= c #82DCDF",
"- c #A8F0ED",
/* pixels */
"O$$$$OO@@++++@@OOO$$$$++$$OOOO$$$$**OOOO  ####%%%----&&====&&&&&",
"O$$$$OO@@++++@@OOO$$$$++$$OOOO$$$$**OOOO  ####%%%----&&====&&&&&",
"$OOOO$$OO$$++++OOOOOOO++$$OO$$OO**OOOOOO  ####%%%--==&&====&&&&&",
"$OOOO$$OO$$++++OOOOOOO++$$OO$$OO**OOOOOO  ####%%%--==&&====&&&&&",
"@@@@@OOOO++++$$$$$@@OO$$OO@@++**OOOOOO  ####XX%%%--&&========&&&",
"@@@@@OOOO++++$$$$$@@OO$$OO@@++**OOOOOO  ####XX%%%--&&========&&&",
"@@@$$$$$$++++++@@@$$OOOO@@$$**OOOOOO  ######%%===--=============",
"@@@$$$$$$++++++@@@$$OOOO@@$$**OOOOOO  ######%%===--=============",
"@@@OOOO@@$$++@@@@@@@@@@@@@$$**oooo  XX####XX%%-----=============",
"@@@OOOO@@$$++@@@@@@@@@@@@@$$**oooo  XX####XX%%-----=============",
"$$$$$OO@@@@$$OOOOO@@@@@@@@++**oooo  XXXXXX%%==-----=============",
"$$$$$OO@@@@$$OOOOO@@@@@@@@++**oooo  XXXXXX%%==-----=============",
"$OOOO@@@@@@@@OO$$$OO@@@@@@++**oooo  XXXXXX%%-----==&&&&&&&&&&===",
"$OOOO@@@@@@@@OO$$$OO@@@@@@++**oooo  XXXXXX%%-----==&&&&&&&&&&===",
"$$$OO@@@@OOOO@@+++$$OO@@OO++**oooo  XXXXXX%%--===&&&&&&&&&&&&&&=",
"$$$OO@@@@OOOO@@+++$$OO@@OO++**oooo  XXXXXX%%--===&&&&&&&&&&&&&&=",
"$$$OO@@@@OOOO@@+++$$OO@@OO++**oooo  XXXXXX%%--===&&&&&&&&&&&&&&=",
"@OOOOOO@@OO$$$$+++$$@@OO$$$$**oooo  XX##XX%%--===&&&&&&&&&&&&&&=",
"@OOOOOO@@OO$$$$+++$$@@OO$$$$**oooo  XX##XX%%--===&&&&&&&&&&&&&&=",
"O$$OOOO@@@@OO$$+++++$$$$$$OO**oooo  ####%%==-----&&&&&&&&&&&&&&=",
"O$$OOOO@@@@OO$$+++++$$$$$$OO**oooo  ####%%==-----&&&&&&&&&&&&&&=",
"$OO@@@@@@@@@@+++++++++OOOO**OOOO  ..####%%-------==&&&&&&&&&&===",
"$OO@@@@@@@@@@+++++++++OOOO**OOOO  ..####%%-------==&&&&&&&&&&===",
"+@@@@$$@@@@@@++$$$++$$$$**OOOOOO  ..####%%-------===============",
"+@@@@$$@@@@@@++$$$++$$$$**OOOOOO  ..####%%-------===============",
"$$$OO@@OOOOOO$$OOO@@OOOO**OOOOOOoo  XXXX%%==-----========&&&&&&&",
"$$$OO@@OOOOOO$$OOO@@OOOO**OOOOOOoo  XXXX%%==-----========&&&&&&&",
"+$$$$OOOO$$$$OO+++$$++$$$$**oooooo  XXXXXX%%--=========&&&&&&&&&",
"+$$$$OOOO$$$$OO+++$$++$$$$**oooooo  XXXXXX%%--=========&&&&&&&&&",
"@++OO$$OOOOOO@@+++++++++++@@**oooooo  XXXX%%--=========&&&&&&&&&",
"@++OO$$OOOOOO@@+++++++++++@@**oooooo  XXXX%%--=========&&&&&&&&&",
"+$$@@OOOO@@@@@@@@@++++$$$$$$OO**OOOO  ####%%--===&&&&==&&&&&&&&&",
"+$$@@OOOO@@@@@@@@@++++$$$$$$OO**OOOO  ####%%--===&&&&==&&&&&&&&&",
"@++++@@$$OOOO@@@@@++$$++++$$$$**OOOO  ####%%-----&&&&&&====&&&&&",
"@++++@@$$OOOO@@@@@++$$++++$$$$**OOOO  ####%%-----&&&&&&====&&&&&",
"@@@@@$$$$OO$$OO@@@++$$@@OOOOOO**OOOO  ####%%==---&&&&&&&&=======",
"@@@@@$$$$OO$$OO@@@++$$@@OOOOOO**OOOO  ####%%==---&&&&&&&&=======",
"+++$$@@@@@@++$$OOO@@++OO$$OO**OOOOOO  ####%%==---==&&&&&&=======",
"+++$$@@@@@@++$$OOO@@++OO$$OO**OOOOOO  ####%%==---==&&&&&&=======",
"+$$$$++$$$$++$$+++++$$$$OO**oooooo  ..XXXXXX%%---==&&&&=========",
"+$$$$++$$$$++$$+++++$$$$OO**oooooo  ..XXXXXX%%---==&&&&=========",
"+++++$$$$$$++++$$$$$$$OO@@@@**oooooo  XXXXXX%%===--=============",
"+++++$$$$$$++++$$$$$$$OO@@@@**oooooo  XXXXXX%%===--=============",
"@@@@@@@+++++++++++++@@@@OO@@$$**oooooo  XXXXXX%%%--==&&&&=======",
"@@@@@@@+++++++++++++@@@@OO@@$$**oooooo  XXXXXX%%%--==&&&&=======",
"@@@@@@@OO++$$++$$$$$OO@@$$OO$$++**oooooo  XXXX%%%----&&&&&&=====",
"@@@@@@@OO++$$++$$$$$OO@@$$OO$$++**oooooo  XXXX%%%----&&&&&&=====",
"O@@++OO$$++@@@@@@@OO$$OO++$$OO@@++**ooOO  ####%%%----&&&&&&==&&&",
"O@@++OO$$++@@@@@@@OO$$OO++$$OO@@++**ooOO  ####%%%----&&&&&&==&&&",
"O@@++OO$$++@@@@@@@OO$$OO++$$OO@@++**ooOO  ####%%%----&&&&&&==&&&",
"+++$$$$OO++++$$@@@@@OOOO++$$++++$$**OOOO  ####%%%--==&&&&&&==&&&",
"+++$$$$OO++++$$@@@@@OOOO++$$++++$$**OOOO  ####%%%--==&&&&&&==&&&",
"$$$$$OO++$$++@@$$$@@@@@@++++$$$$$$**OOOO  ####%%%--==&&&&&&==&&&",
"$$$$$OO++$$++@@$$$@@@@@@++++$$$$$$**OOOO  ####%%%--==&&&&&&==&&&",
"+++++++$$++@@@@OOOOO@@++++++++++**OOOO  ####%%=====&&&&&&======&",
"+++++++$$++@@@@OOOOO@@++++++++++**OOOO  ####%%=====&&&&&&======&",
"$$$OO$$++@@@@OO$$$$$OO++$$++$$**OOOOOO  ####%%---===============",
"$$$OO$$++@@@@OO$$$$$OO++$$++$$**OOOOOO  ####%%---===============",
"OOO$$OO@@@@@@OOOOOOO$$OO@@OO**oooooooo  ####%%-----========&&&&&",
"OOO$$OO@@@@@@OOOOOOO$$OO@@OO**oooooooo  ####%%-----========&&&&&",
"$OOOOOO@@@@@@$$@@@@@++$$++$$$$**oooooo  XXXX%%===--======&&&&&&&",
"$OOOOOO@@@@@@$$@@@@@++$$++$$$$**oooooo  XXXX%%===--======&&&&&&&",
"OOO$$OO@@@@@@@@@@@@@++++++++OOOO**oooo  XXXXXX%%%----====&&&&&&&",
"OOO$$OO@@@@@@@@@@@@@++++++++OOOO**oooo  XXXXXX%%%----====&&&&&&&"
};
